<?xml version="1.0" encoding="UTF-8"?>
<svg xmlns="http://www.w3.org/2000/svg" xmlns:xlink="http://www.w3.org/1999/xlink" width="226px" height="60px" viewBox="0 0 225 60" version="1.1">
<g id="surface1">
<path style=" stroke:none;fill-rule:nonzero;fill:rgb(0%,0%,0%);fill-opacity:1;" d="M 7.511719 1.488281 C 6.1875 5.613281 4.042969 8.71875 0.773438 11.273438 C 0.175781 11.738281 0.222656 11.714844 1.257812 11.183594 C 1.878906 10.871094 2.828125 10.183594 3.335938 9.695312 C 3.933594 9.121094 4.21875 8.941406 4.109375 9.207031 C 4.019531 9.453125 3.800781 10.40625 3.625 11.316406 C 3.445312 12.226562 3.160156 13.78125 2.960938 14.757812 C 2.785156 15.730469 2.078125 17.90625 1.390625 19.59375 C 0.730469 21.28125 0.222656 22.699219 0.265625 22.765625 C 0.441406 22.921875 2.804688 17.75 3.179688 16.421875 C 3.378906 15.753906 3.734375 14.089844 3.976562 12.738281 C 4.417969 10.183594 5.257812 7.1875 5.433594 7.390625 C 5.5 7.457031 5.300781 8.832031 4.992188 10.453125 C 4.042969 15.597656 3.335938 19.835938 2.984375 22.65625 C 2.585938 25.871094 2.539062 31 2.894531 33.019531 L 3.136719 34.460938 L 3.777344 31.953125 C 4.839844 27.714844 6.914062 21.835938 7.269531 22.054688 C 7.355469 22.121094 7.753906 21.855469 8.152344 21.5 C 8.574219 21.144531 8.949219 20.902344 8.992188 20.945312 C 9.058594 20.992188 8.949219 21.835938 8.75 22.789062 C 7.511719 29 6.828125 35.769531 6.828125 42.136719 L 6.828125 46.441406 L 6.054688 45.6875 C 4.949219 44.621094 2.917969 41.472656 1.523438 38.675781 C 0.839844 37.277344 0.308594 36.433594 0.265625 36.679688 C 0.175781 37.144531 2.34375 41.515625 3.644531 43.492188 C 4.175781 44.289062 5.105469 45.488281 5.722656 46.175781 C 6.804688 47.394531 6.828125 47.417969 7.046875 49.480469 C 7.179688 50.613281 7.3125 51.566406 7.355469 51.632812 C 7.421875 51.679688 7.578125 51.078125 7.734375 50.304688 C 7.867188 49.527344 8.0625 48.773438 8.152344 48.617188 C 8.394531 48.238281 11.488281 50.570312 12.992188 52.277344 C 13.652344 52.988281 15.132812 55.007812 16.28125 56.738281 C 17.453125 58.492188 18.492188 59.910156 18.625 59.910156 C 18.957031 59.910156 18.667969 59.402344 16.4375 55.984375 C 14.074219 52.410156 12.019531 50.148438 9.789062 48.707031 C 9.015625 48.21875 8.394531 47.707031 8.394531 47.597656 C 8.394531 47.394531 9.476562 43.890625 9.589844 43.78125 C 9.609375 43.757812 10.296875 44.089844 11.136719 44.511719 C 11.976562 44.933594 12.878906 45.265625 13.144531 45.265625 C 13.5 45.265625 14.117188 45.753906 15.066406 46.796875 C 16.503906 48.351562 16.855469 48.839844 18.625 51.632812 C 19.332031 52.742188 19.90625 53.386719 20.589844 53.765625 C 21.609375 54.363281 30.597656 56.804688 31.75 56.804688 C 32.984375 56.804688 33.03125 56.425781 32.144531 53.765625 C 31.085938 50.546875 29.164062 46.597656 28.390625 45.976562 L 27.773438 45.488281 L 27.925781 43.203125 C 28.167969 39.363281 28.875 35.613281 30.089844 31.6875 L 30.578125 30.066406 L 30.777344 31.285156 C 30.886719 31.953125 31.195312 33.507812 31.484375 34.726562 C 31.769531 35.945312 32.167969 37.988281 32.367188 39.273438 C 33.25 44.777344 34.53125 49.0625 36.828125 54.253906 C 37.648438 56.09375 39.722656 59.910156 39.902344 59.910156 C 39.945312 59.910156 39.589844 59.089844 39.082031 58.070312 C 36.828125 53.609375 34.996094 48.640625 33.914062 44.113281 C 32.324219 37.457031 32.300781 34.371094 33.824219 28.425781 C 34.53125 25.695312 36.609375 19.304688 36.894531 19.015625 C 37.050781 18.839844 38.15625 19.394531 38.441406 19.792969 C 38.507812 19.882812 39.214844 20.480469 40.011719 21.125 C 47.167969 26.914062 46.574219 26.359375 47.632812 28.445312 C 48.1875 29.488281 49.222656 31.242188 49.929688 32.328125 C 50.726562 33.527344 51.144531 34.371094 51.015625 34.503906 C 50.703125 34.816406 50.769531 35.148438 51.101562 34.882812 C 51.324219 34.683594 51.875 35.148438 53.464844 36.878906 C 56.40625 40.050781 58.015625 41.316406 61.089844 42.824219 C 63.984375 44.246094 66.257812 45.089844 68.734375 45.597656 C 70.214844 45.910156 70.5 46.085938 72.488281 47.707031 C 73.683594 48.683594 74.71875 49.480469 74.808594 49.480469 C 75.007812 49.480469 74.011719 48.574219 72.488281 47.351562 C 71.871094 46.886719 71.382812 46.421875 71.363281 46.308594 C 71.363281 46.21875 72.578125 46.152344 74.078125 46.152344 C 76.996094 46.152344 80.042969 45.777344 83.183594 45.042969 C 85.832031 44.445312 90.828125 43.003906 90.738281 42.890625 C 90.671875 42.847656 89.300781 43.160156 87.6875 43.578125 C 86.054688 44.023438 83.335938 44.621094 81.636719 44.957031 C 75.25 46.175781 68.621094 45.664062 64.976562 43.691406 C 61.242188 41.671875 56.78125 37.832031 54.019531 34.28125 C 52.605469 32.464844 49.601562 27.957031 48.960938 26.695312 C 48.5625 25.917969 48.496094 25.429688 48.804688 25.605469 C 48.914062 25.671875 49.070312 25.207031 49.15625 24.585938 C 49.488281 21.855469 49.996094 19.171875 50.21875 18.90625 C 50.375 18.707031 51.101562 18.640625 52.890625 18.683594 C 55.652344 18.75 55.277344 18.4375 56.050781 21.191406 L 56.40625 22.523438 L 56.582031 21.632812 C 56.691406 21.144531 56.824219 20.371094 56.890625 19.902344 C 56.980469 19.414062 57.179688 18.992188 57.375 18.925781 C 57.820312 18.75 61.640625 19.214844 61.882812 19.460938 C 61.996094 19.570312 61.75 20.546875 61.375 21.632812 C 60.710938 23.476562 60.667969 23.855469 60.667969 26.40625 C 60.691406 28.78125 60.757812 29.421875 61.265625 30.953125 C 63.34375 37.300781 69.019531 41.492188 75.558594 41.492188 C 82.828125 41.492188 88.96875 36.324219 90.339844 29.023438 L 90.695312 27.070312 L 91.863281 27.625 C 93.167969 28.226562 93.144531 28.203125 94.164062 31.730469 L 94.890625 34.28125 L 95.023438 32.128906 C 95.089844 30.933594 95.199219 29.890625 95.289062 29.824219 C 95.445312 29.667969 98.714844 31.953125 99.332031 32.640625 C 99.707031 33.039062 99.621094 33.460938 98.867188 35.371094 C 98.734375 35.660156 99 35.523438 99.730469 34.96875 C 100.304688 34.527344 100.878906 34.171875 100.988281 34.171875 C 101.296875 34.171875 103.417969 35.28125 104.015625 35.746094 C 104.304688 35.96875 104.945312 36.523438 105.429688 36.96875 L 106.335938 37.789062 L 105.363281 38.632812 C 104.832031 39.097656 103.15625 40.496094 101.628906 41.738281 C 97.433594 45.175781 97.234375 45.332031 96.59375 45.886719 C 95.246094 47.085938 97.101562 45.867188 98.714844 44.511719 C 101.652344 42.070312 102.46875 41.382812 103.222656 40.785156 C 103.617188 40.453125 104.546875 39.695312 105.277344 39.097656 C 106.492188 38.097656 106.667969 38.03125 107.265625 38.230469 C 107.640625 38.34375 108.082031 38.566406 108.257812 38.675781 C 108.433594 38.808594 108.300781 38.632812 107.972656 38.253906 C 107.550781 37.789062 107.394531 37.433594 107.507812 37.144531 C 107.59375 36.855469 107.574219 36.8125 107.441406 37.011719 C 107.285156 37.234375 106.820312 36.835938 105.652344 35.457031 C 104.8125 34.4375 103.796875 33.328125 103.417969 32.972656 C 103.042969 32.597656 102.734375 32.242188 102.734375 32.152344 C 102.734375 32.0625 103.308594 31.355469 104.015625 30.578125 C 104.699219 29.800781 105.652344 28.714844 106.09375 28.179688 C 106.800781 27.316406 106.953125 27.226562 107.199219 27.535156 C 107.351562 27.714844 107.882812 28.160156 108.367188 28.511719 C 108.832031 28.867188 109.40625 29.3125 109.605469 29.511719 C 110.355469 30.199219 111.042969 30.753906 111.949219 31.488281 C 112.476562 31.886719 112.898438 32.285156 112.898438 32.375 C 112.898438 32.464844 112.476562 32.839844 111.96875 33.238281 C 111.460938 33.640625 111.175781 33.949219 111.328125 33.949219 C 111.484375 33.949219 111.992188 33.640625 112.457031 33.261719 L 113.316406 32.550781 L 114.265625 33.351562 C 114.796875 33.773438 115.59375 34.460938 116.058594 34.835938 C 116.5 35.214844 116.875 35.4375 116.875 35.324219 C 116.875 35.148438 116.410156 34.703125 114.222656 32.863281 L 113.671875 32.394531 L 114.886719 31.285156 C 116.34375 29.957031 116.167969 29.824219 114.597656 31.066406 C 113.980469 31.574219 113.363281 31.929688 113.207031 31.910156 C 112.851562 31.820312 107.175781 27.25 107.175781 27.027344 C 107.152344 26.9375 107.660156 26.183594 108.300781 25.363281 C 110.929688 21.878906 113.804688 17.085938 116.035156 12.425781 C 118 8.34375 121.515625 0.355469 121.449219 0.15625 C 121.425781 0.0429688 120.496094 1.796875 119.4375 4.039062 C 115.859375 11.425781 113.40625 16.285156 112.234375 18.304688 C 109.363281 23.1875 105.210938 28.734375 101.652344 32.417969 C 99.773438 34.347656 99.664062 34.4375 99.996094 33.617188 C 100.195312 33.128906 100.988281 31.019531 101.761719 28.957031 C 102.558594 26.871094 103.285156 24.984375 103.398438 24.742188 C 103.730469 24.007812 106.269531 15.933594 106.269531 15.621094 C 106.269531 15.222656 106.269531 15.222656 108.789062 15.976562 C 110.003906 16.355469 111.0625 16.640625 111.175781 16.640625 C 111.75 16.640625 110.910156 16.199219 108.941406 15.445312 C 107.707031 14.976562 106.710938 14.511719 106.710938 14.402344 C 106.710938 14.289062 107.066406 12.9375 107.484375 11.382812 C 108.234375 8.609375 110.027344 0.777344 110.027344 0.199219 C 110.027344 -0.464844 109.761719 0.355469 109.03125 3.238281 C 107.75 8.277344 106.226562 13.847656 106.046875 14.046875 C 105.894531 14.222656 99.773438 12.117188 99.332031 11.714844 C 98.980469 11.425781 101.410156 5.96875 103.863281 1.554688 C 105.078125 -0.664062 104.414062 0.0234375 102.890625 2.550781 C 101.5625 4.75 100.347656 7.167969 99.199219 9.828125 C 98.625 11.160156 98.359375 11.515625 98.117188 11.40625 C 97.917969 11.339844 96.726562 10.894531 95.445312 10.453125 C 93.851562 9.894531 93.144531 9.542969 93.167969 9.320312 C 93.390625 7.742188 94.117188 0.777344 94.097656 0.378906 C 94.050781 -0.730469 93.675781 1.066406 93.125 5.105469 C 92.792969 7.367188 92.503906 9.253906 92.460938 9.296875 C 92.371094 9.386719 89.035156 8.253906 88.59375 7.988281 C 88.375 7.855469 88.574219 7.324219 89.480469 5.636719 C 91.113281 2.53125 91.777344 1.621094 93.210938 0.445312 L 93.742188 0 L 93.078125 0 C 92.527344 0 92.242188 0.222656 91.421875 1.265625 C 90.871094 1.976562 89.808594 3.726562 89.058594 5.148438 L 87.6875 7.742188 L 86.320312 7.257812 L 84.949219 6.769531 L 84.839844 3.328125 C 84.726562 -0.355469 84.574219 -0.0898438 84.265625 4.28125 C 84.109375 6.457031 84.109375 6.457031 83.578125 6.324219 C 82.671875 6.101562 80.664062 5.304688 80.554688 5.125 C 80.488281 5.035156 80.972656 3.839844 81.636719 2.464844 C 82.296875 1.109375 82.738281 0.0429688 82.628906 0.109375 C 82.519531 0.175781 81.855469 1.265625 81.171875 2.507812 C 80.464844 3.75 79.867188 4.816406 79.824219 4.859375 C 79.800781 4.902344 79.117188 4.769531 78.320312 4.546875 L 76.863281 4.148438 L 76.996094 2.90625 C 77.0625 2.21875 77.195312 1.265625 77.261719 0.777344 C 77.328125 0.222656 77.304688 -0.0234375 77.171875 0.109375 C 76.929688 0.378906 76.445312 2.441406 76.445312 3.238281 C 76.445312 3.550781 76.3125 3.773438 76.132812 3.773438 C 75.714844 3.773438 74.234375 3.128906 74.234375 2.953125 C 74.234375 2.882812 74.476562 2.394531 74.765625 1.910156 C 75.050781 1.398438 75.359375 0.753906 75.449219 0.445312 L 75.605469 -0.109375 L 75.183594 0.445312 C 74.964844 0.753906 74.566406 1.375 74.34375 1.863281 C 74.101562 2.328125 73.792969 2.75 73.660156 2.816406 C 73.527344 2.863281 71.582031 2.261719 69.328125 1.441406 C 65.242188 0 64.3125 -0.265625 65.019531 0.265625 C 65.332031 0.511719 65.351562 0.753906 65.175781 2.109375 C 64.867188 4.394531 64.511719 9.875 64.511719 12.203125 C 64.511719 14.023438 64.46875 14.222656 64.136719 14.113281 C 63.917969 14.046875 62.722656 13.933594 61.507812 13.847656 C 60.269531 13.78125 59.121094 13.625 58.96875 13.511719 C 58.65625 13.335938 59.167969 11.980469 62.636719 3.707031 C 64.203125 -0.0234375 64.46875 -1.175781 63.078125 1.707031 C 59.453125 9.296875 57.289062 15 56.667969 18.507812 C 56.492188 19.59375 56.292969 20.523438 56.25 20.570312 C 56.183594 20.660156 55.898438 18.371094 55.125 11.117188 L 54.59375 6.144531 L 55.144531 5.082031 C 55.433594 4.480469 56.183594 3.152344 56.800781 2.085938 C 57.421875 1.042969 57.886719 0.132812 57.820312 0.0898438 C 57.6875 -0.0664062 55.476562 3.351562 54.285156 5.546875 C 51.675781 10.40625 49.511719 17.484375 49.136719 22.410156 C 48.914062 25.230469 48.761719 25.429688 48.1875 23.71875 C 47.28125 21.058594 47.148438 18.460938 47.566406 11.492188 C 48.097656 2.550781 48.207031 -0.175781 47.988281 0.332031 C 47.875 0.578125 47.613281 2.972656 47.414062 5.660156 C 47.214844 8.34375 46.992188 11.050781 46.925781 11.695312 L 46.816406 12.847656 L 45.667969 12.9375 L 44.519531 13.003906 L 45.6875 13.046875 C 46.75 13.089844 46.839844 13.136719 46.839844 13.644531 C 46.839844 14.113281 46.726562 14.203125 46.132812 14.203125 C 45.269531 14.203125 39.238281 13.714844 39.148438 13.644531 C 38.929688 13.46875 43.171875 5.457031 45.226562 2.152344 C 45.910156 1.085938 46.394531 0.15625 46.351562 0.0898438 C 46.242188 -0.0234375 43.390625 4.28125 41.933594 6.769531 C 39.636719 10.671875 36.851562 16.953125 35.128906 22.121094 C 33.625 26.628906 32.941406 29.535156 32.5 33.0625 L 32.144531 36.058594 L 31.703125 33.839844 C 31.085938 30.753906 31.085938 21.769531 31.660156 17.972656 C 32.542969 12.359375 33.78125 6.703125 35.195312 1.839844 C 36.078125 -1.199219 35.460938 -0.0234375 34.378906 3.394531 C 31.882812 11.292969 30.488281 19.371094 30.488281 26.25 C 30.488281 28.957031 30.445312 29.179688 29.628906 31.621094 C 28.414062 35.105469 27.640625 39.140625 27.351562 43.492188 C 27.085938 47.085938 27.085938 47.128906 26.800781 46.152344 C 25.871094 43.023438 25.296875 38.277344 25.054688 31.554688 C 24.832031 25.453125 24.765625 25.25 23.90625 28.402344 C 22.933594 31.953125 21.121094 39.320312 20.769531 41.09375 C 20.589844 41.914062 20.414062 42.558594 20.371094 42.492188 C 20.324219 42.449219 20.082031 41.183594 19.839844 39.675781 C 19.550781 37.765625 19.375 35.238281 19.289062 31.242188 L 19.15625 25.539062 L 20.789062 23.253906 C 21.671875 21.988281 23.925781 18.949219 25.804688 16.464844 C 27.660156 14 29.140625 11.980469 29.074219 11.980469 C 28.722656 11.980469 21.210938 21.613281 18.515625 25.519531 C 13.476562 32.816406 9.808594 40.339844 8.175781 46.753906 C 7.800781 48.171875 7.445312 49.394531 7.402344 49.460938 C 7.160156 49.703125 7.3125 38.609375 7.621094 35.238281 C 8.394531 26.382812 10.273438 16.953125 13.699219 4.902344 C 14.425781 2.308594 15 0.132812 14.957031 0.0898438 C 14.847656 -0.0234375 12.59375 7.121094 11.597656 10.761719 C 11.003906 12.914062 10.539062 14.046875 9.808594 15.242188 C 8.460938 17.441406 6.140625 22.324219 5.300781 24.742188 C 4.925781 25.851562 4.265625 28.023438 3.84375 29.621094 L 3.070312 32.507812 L 3.179688 28.292969 C 3.246094 25.960938 3.445312 23.078125 3.644531 21.855469 C 3.84375 20.636719 4.332031 17.53125 4.726562 14.976562 C 5.148438 12.402344 5.613281 9.410156 5.765625 8.320312 C 5.941406 6.988281 6.253906 5.878906 6.671875 5.015625 C 7.3125 3.726562 8.308594 0.289062 8.109375 0.0898438 C 8.042969 0.0234375 7.777344 0.644531 7.511719 1.488281 Z M 69.550781 2.285156 C 71.40625 3.0625 72.976562 3.773438 73.042969 3.839844 C 73.105469 3.90625 72.777344 4.859375 72.269531 5.945312 C 71.074219 8.652344 69.550781 13.203125 68.578125 17.085938 C 67.738281 20.4375 66.5 27.136719 66.5 28.269531 C 66.5 29.15625 66.214844 28.800781 65.707031 27.292969 C 65.308594 26.160156 65.285156 25.25 65.285156 15.3125 C 65.285156 4.238281 65.464844 0.53125 65.90625 0.753906 C 66.058594 0.820312 67.695312 1.507812 69.550781 2.285156 Z M 75.339844 4.546875 C 76.222656 4.859375 76.199219 4.527344 75.824219 8.875 C 75.671875 10.519531 75.492188 12.605469 75.425781 13.46875 L 75.292969 15.066406 L 73.285156 14.957031 C 72.15625 14.890625 70.941406 14.777344 70.542969 14.6875 L 69.835938 14.535156 L 70.789062 11.648438 C 71.316406 10.050781 72.15625 7.699219 72.6875 6.367188 C 73.746094 3.75 73.527344 3.90625 75.339844 4.546875 Z M 77.902344 5.457031 C 79.335938 5.945312 79.402344 6.035156 79.007812 6.835938 C 78.476562 7.878906 76.554688 13.691406 76.222656 15.265625 C 75.691406 17.839844 75.714844 17.351562 76.464844 8.144531 C 76.621094 6.480469 76.753906 5.105469 76.773438 5.105469 C 76.796875 5.105469 77.304688 5.257812 77.902344 5.457031 Z M 82.542969 7.34375 C 82.671875 7.457031 82.851562 7.5 82.917969 7.433594 C 83.003906 7.367188 83.027344 7.390625 82.960938 7.476562 C 82.894531 7.542969 82.960938 7.742188 83.117188 7.921875 C 83.316406 8.164062 83.269531 8.296875 82.9375 8.542969 C 82.210938 9.074219 79.847656 10.960938 78.675781 11.960938 C 77.527344 12.9375 77.527344 12.9375 77.679688 12.292969 C 77.835938 11.648438 79.648438 6.789062 79.867188 6.414062 C 80 6.234375 82.054688 6.945312 82.542969 7.34375 Z M 54.4375 9.875 C 54.527344 10.960938 54.636719 12.203125 54.703125 12.582031 L 54.835938 13.3125 L 53.886719 13.292969 C 53.355469 13.269531 52.648438 13.203125 52.316406 13.113281 L 51.722656 12.980469 L 52.847656 10.140625 C 53.53125 8.410156 54.039062 7.410156 54.128906 7.589844 C 54.21875 7.742188 54.351562 8.765625 54.4375 9.875 Z M 86.585938 8.566406 C 87.160156 8.808594 87.292969 8.964844 87.160156 9.253906 C 86.695312 10.363281 85.921875 13.003906 85.679688 14.355469 L 85.390625 15.867188 L 85.238281 14.976562 C 85.171875 14.488281 85.015625 12.714844 84.925781 11.007812 L 84.773438 7.945312 L 85.304688 8.097656 C 85.589844 8.1875 86.164062 8.410156 86.585938 8.566406 Z M 84.066406 8.699219 C 84.109375 8.855469 84.265625 10.183594 84.398438 11.648438 C 84.507812 13.113281 84.683594 14.800781 84.75 15.398438 C 84.90625 16.464844 84.90625 16.488281 84.375 16.355469 C 84.085938 16.265625 82.320312 16 80.441406 15.753906 C 78.5625 15.511719 76.972656 15.242188 76.929688 15.199219 C 76.863281 15.132812 76.929688 14.710938 77.0625 14.246094 C 77.238281 13.644531 77.636719 13.160156 78.476562 12.535156 C 79.09375 12.046875 80.464844 10.917969 81.503906 10.050781 C 83.402344 8.433594 83.890625 8.1875 84.066406 8.699219 Z M 90.074219 9.785156 C 91.136719 10.164062 92.085938 10.539062 92.175781 10.628906 C 92.417969 10.851562 92.109375 14.421875 91.84375 14.421875 C 91.644531 14.421875 89.941406 13.089844 87.976562 11.382812 C 87.292969 10.785156 87.269531 10.738281 87.535156 9.917969 C 87.667969 9.476562 87.867188 9.097656 87.953125 9.097656 C 88.042969 9.097656 88.992188 9.410156 90.074219 9.785156 Z M 95.839844 11.78125 C 97.585938 12.359375 98.09375 12.605469 98.007812 12.871094 C 96.480469 17.484375 95.378906 22.34375 95.003906 26.339844 C 94.871094 27.78125 94.691406 29.601562 94.605469 30.398438 L 94.449219 31.839844 L 93.941406 29.511719 C 92.925781 24.675781 92.726562 22.722656 92.703125 17.53125 C 92.703125 12.382812 92.835938 10.761719 93.300781 10.9375 C 93.457031 10.984375 94.582031 11.359375 95.839844 11.78125 Z M 89.257812 12.890625 C 90.054688 13.578125 90.957031 14.3125 91.3125 14.535156 C 91.886719 14.910156 91.910156 15 91.910156 16.773438 C 91.910156 17.796875 91.863281 18.640625 91.820312 18.640625 C 91.777344 18.640625 91.246094 18.4375 90.648438 18.171875 C 90.074219 17.929688 88.75 17.464844 87.734375 17.175781 C 86.695312 16.886719 85.832031 16.597656 85.789062 16.554688 C 85.679688 16.464844 86.253906 13.980469 86.738281 12.25 C 87.046875 11.183594 87.136719 11.09375 87.445312 11.359375 C 87.667969 11.539062 88.460938 12.226562 89.257812 12.890625 Z M 102.269531 13.914062 C 104.039062 14.46875 105.5625 15 105.652344 15.089844 C 105.828125 15.222656 103.265625 23.519531 103.042969 23.519531 C 102.824219 23.519531 102.027344 23.03125 101.652344 22.675781 C 101.453125 22.476562 100.304688 21.5 99.132812 20.546875 C 97.960938 19.570312 96.992188 18.683594 96.992188 18.574219 C 96.992188 18.460938 97.300781 17.285156 97.675781 16 C 98.050781 14.710938 98.425781 13.46875 98.46875 13.246094 C 98.535156 13.046875 98.691406 12.871094 98.824219 12.871094 C 98.933594 12.871094 100.503906 13.335938 102.269531 13.914062 Z M 54.261719 13.757812 C 54.613281 13.757812 54.769531 13.914062 54.835938 14.421875 C 54.925781 15.066406 54.902344 15.089844 54.371094 15 C 54.0625 14.933594 53.222656 14.824219 52.515625 14.757812 C 51.5 14.644531 51.257812 14.535156 51.34375 14.269531 C 51.410156 14.089844 51.476562 13.847656 51.476562 13.714844 C 51.476562 13.558594 51.875 13.511719 52.648438 13.625 C 53.265625 13.691406 54.019531 13.757812 54.261719 13.757812 Z M 62.015625 14.445312 L 64.511719 14.710938 L 64.511719 15.597656 C 64.511719 16.199219 64.425781 16.441406 64.246094 16.355469 C 64.09375 16.308594 62.679688 16.085938 61.089844 15.867188 C 59.519531 15.644531 58.195312 15.445312 58.148438 15.421875 C 58.105469 15.378906 58.148438 15.109375 58.238281 14.777344 C 58.394531 14.089844 58.460938 14.089844 62.015625 14.445312 Z M 9.808594 17.640625 C 9.300781 19.96875 9.234375 20.125 8.328125 20.902344 C 7.820312 21.347656 7.378906 21.632812 7.335938 21.546875 C 7.269531 21.347656 10.183594 15.042969 10.296875 15.15625 C 10.339844 15.175781 10.117188 16.308594 9.808594 17.640625 Z M 73.636719 15.753906 C 73.835938 15.933594 73.703125 16.085938 72.621094 16.886719 C 72.289062 17.152344 72.046875 17.394531 72.113281 17.464844 C 72.203125 17.574219 73.550781 16.640625 74.191406 16.019531 C 74.34375 15.886719 74.675781 15.753906 74.917969 15.753906 C 75.292969 15.753906 75.339844 15.910156 75.339844 17.085938 C 75.339844 18.59375 75.40625 18.550781 73.460938 18.0625 C 72.730469 17.863281 71.496094 17.617188 70.699219 17.484375 C 69.902344 17.375 69.242188 17.261719 69.21875 17.21875 C 69.195312 17.195312 69.285156 16.753906 69.417969 16.21875 L 69.660156 15.265625 L 71.5625 15.421875 C 72.597656 15.511719 73.550781 15.664062 73.636719 15.753906 Z M 81.746094 16.554688 C 84.992188 17.019531 84.992188 17.019531 85.191406 17.816406 L 85.347656 18.527344 L 85.433594 17.90625 C 85.5 17.550781 85.679688 17.308594 85.878906 17.308594 C 86.628906 17.308594 91.710938 19.148438 91.886719 19.503906 C 91.996094 19.703125 92.128906 20.902344 92.21875 22.167969 L 92.371094 24.476562 L 91.753906 24.074219 C 88.351562 21.835938 84.265625 20.304688 78.34375 19.082031 C 77.128906 18.839844 76.113281 18.617188 76.089844 18.574219 C 76.023438 18.527344 76.355469 16.910156 76.574219 16.242188 C 76.6875 15.910156 77.480469 15.953125 81.746094 16.554688 Z M 38.929688 17.109375 C 40.808594 18.0625 45.3125 23.296875 46.042969 25.382812 C 46.175781 25.785156 46.152344 25.804688 45.800781 25.496094 C 45.179688 24.964844 42.839844 23.03125 41.890625 22.300781 C 41.425781 21.921875 40.71875 21.367188 40.34375 21.035156 C 39.96875 20.703125 39.082031 19.992188 38.398438 19.480469 C 37.691406 18.949219 37.140625 18.460938 37.117188 18.394531 C 37.117188 18.152344 37.78125 16.640625 37.914062 16.640625 C 37.957031 16.640625 38.421875 16.839844 38.929688 17.109375 Z M 98.140625 20.125 C 98.667969 20.589844 99.972656 21.65625 101.035156 22.5 C 102.644531 23.765625 102.933594 24.097656 102.824219 24.496094 C 102.734375 24.761719 102.644531 24.984375 102.625 25.03125 C 102.601562 25.074219 101.808594 24.542969 100.855469 23.855469 C 99.90625 23.1875 98.558594 22.257812 97.851562 21.8125 C 96.546875 21.011719 96.328125 20.589844 96.679688 19.660156 C 96.878906 19.148438 97.078125 19.214844 98.140625 20.125 Z M 100.480469 24.03125 C 101.609375 24.785156 102.492188 25.496094 102.449219 25.628906 C 102.402344 25.738281 101.984375 26.914062 101.519531 28.226562 L 100.65625 30.597656 L 99.441406 29.535156 C 98.757812 28.957031 97.585938 28.003906 96.8125 27.425781 C 95.730469 26.582031 95.464844 26.273438 95.53125 25.894531 C 95.597656 25.628906 95.753906 24.695312 95.886719 23.855469 C 96.285156 21.324219 96.195312 21.414062 97.386719 22.101562 C 97.960938 22.433594 99.355469 23.296875 100.480469 24.03125 Z M 18.691406 31.019531 C 18.691406 33.550781 18.824219 36.566406 18.976562 37.722656 C 19.332031 40.453125 20.105469 44.222656 20.324219 44.46875 C 20.414062 44.554688 20.679688 43.890625 20.878906 42.957031 L 21.253906 41.273438 L 22.070312 42.558594 C 23.042969 44.066406 24.191406 45.109375 25.273438 45.511719 C 25.9375 45.753906 26.113281 45.976562 26.421875 46.910156 C 26.644531 47.53125 27 48.484375 27.261719 49.039062 L 27.726562 50.035156 L 27.835938 48.039062 L 27.949219 46.042969 L 28.390625 46.53125 C 28.632812 46.796875 29.273438 47.972656 29.78125 49.148438 L 30.753906 51.300781 L 30.269531 51.632812 C 29.03125 52.523438 26.511719 54.652344 26.601562 54.742188 C 26.667969 54.808594 27.175781 54.476562 27.773438 54.007812 C 28.347656 53.519531 29.007812 52.988281 29.25 52.8125 C 29.472656 52.632812 29.847656 52.300781 30.089844 52.078125 C 30.3125 51.878906 30.578125 51.703125 30.6875 51.703125 C 30.953125 51.703125 32.390625 56.074219 32.191406 56.273438 C 31.96875 56.492188 22.378906 53.988281 21.320312 53.433594 C 20.390625 52.921875 19.488281 51.878906 18.050781 49.703125 C 17.367188 48.660156 15.621094 46.554688 14.183594 45 C 12.726562 43.445312 11.332031 41.894531 11.089844 41.5625 L 10.648438 40.9375 L 11.730469 38.566406 C 12.878906 36.011719 14.625 32.75 16.085938 30.355469 C 16.945312 28.933594 18.601562 26.40625 18.648438 26.40625 C 18.667969 26.40625 18.667969 28.46875 18.691406 31.019531 Z M 24.589844 33.21875 L 24.746094 37.722656 L 22.160156 37.722656 L 23.265625 33.195312 C 23.882812 30.6875 24.414062 28.667969 24.433594 28.691406 C 24.457031 28.714844 24.523438 30.753906 24.589844 33.21875 Z M 24.855469 38.898438 C 24.898438 39.164062 25.011719 39.984375 25.074219 40.71875 C 25.164062 41.449219 25.363281 42.738281 25.539062 43.578125 C 25.71875 44.421875 25.804688 45.15625 25.738281 45.222656 C 25.585938 45.398438 23.992188 44.269531 23.21875 43.445312 C 22.867188 43.046875 22.292969 42.25 21.984375 41.671875 C 21.410156 40.628906 21.410156 40.585938 21.738281 39.429688 L 22.070312 38.277344 L 23.417969 38.34375 C 24.566406 38.410156 24.765625 38.5 24.855469 38.898438 Z M 11.910156 43.203125 C 12.550781 43.980469 12.945312 44.601562 12.8125 44.601562 C 12.683594 44.601562 11.929688 44.3125 11.136719 43.933594 L 9.699219 43.292969 L 10.050781 42.46875 C 10.230469 42.027344 10.382812 41.605469 10.382812 41.539062 C 10.382812 41.359375 10.539062 41.539062 11.910156 43.203125 Z M 11.910156 43.203125 "/>
<path style=" stroke:none;fill-rule:nonzero;fill:rgb(0%,0%,0%);fill-opacity:1;" d="M 125.953125 1.996094 C 125.910156 6.101562 126.839844 12.027344 128.273438 16.773438 C 129.003906 19.214844 129.027344 19.371094 128.648438 19.636719 C 128.429688 19.792969 127.765625 20.324219 127.148438 20.835938 C 126.550781 21.324219 125.976562 21.746094 125.867188 21.746094 C 125.777344 21.746094 125.734375 21.835938 125.824219 21.96875 C 125.886719 22.078125 126.59375 21.65625 127.390625 21.011719 C 128.1875 20.371094 128.9375 19.859375 129.046875 19.859375 C 129.160156 19.859375 129.601562 20.636719 129.996094 21.589844 C 130.949219 23.765625 132.164062 25.851562 133.863281 28.136719 L 135.191406 29.933594 L 134.660156 33.660156 C 134.0625 37.855469 133.511719 40.828125 132.539062 44.6875 C 132.183594 46.132812 131.921875 47.351562 131.964844 47.394531 C 132.007812 47.441406 132.824219 46.574219 133.796875 45.464844 C 141.042969 37.101562 147.207031 26.960938 150.941406 17.261719 C 151.296875 16.308594 151.671875 15.53125 151.761719 15.53125 C 151.847656 15.53125 152.335938 15.886719 152.84375 16.332031 C 153.351562 16.753906 153.769531 17.019531 153.769531 16.886719 C 153.769531 16.753906 153.328125 16.332031 152.777344 15.933594 C 151.472656 14.957031 151.515625 14.445312 152.929688 14.089844 C 153.4375 13.957031 153.527344 14.023438 153.636719 14.578125 C 153.882812 15.730469 154.675781 21.144531 154.609375 21.167969 C 154.566406 21.191406 153.175781 21.902344 151.496094 22.722656 C 148.203125 24.339844 147.429688 24.964844 150.480469 23.542969 C 151.496094 23.054688 152.84375 22.457031 153.460938 22.210938 L 154.589844 21.769531 L 154.742188 22.921875 C 154.984375 25.050781 154.964844 25.140625 153.902344 25.695312 C 152.378906 26.515625 146.304688 32.929688 141.796875 38.476562 L 140.007812 40.652344 L 141.199219 39.808594 C 141.863281 39.339844 143.519531 37.8125 144.890625 36.414062 C 146.324219 34.949219 147.453125 33.949219 147.5625 34.082031 C 147.652344 34.195312 147.914062 34.726562 148.113281 35.238281 C 149.019531 37.632812 151.296875 40.316406 153.660156 41.828125 C 154.367188 42.292969 155.738281 42.957031 156.730469 43.3125 C 158.277344 43.890625 158.851562 43.980469 160.839844 44 C 163.601562 44.046875 164.992188 43.734375 167.378906 42.605469 C 170.363281 41.160156 173.035156 38.296875 174.496094 34.992188 C 175.597656 32.484375 175.929688 28.601562 175.3125 25.628906 C 175.136719 24.785156 174.980469 24.054688 174.980469 24.03125 C 174.980469 23.988281 175.136719 23.964844 175.3125 23.964844 C 175.511719 23.964844 175.753906 24.1875 175.84375 24.453125 C 176.039062 24.964844 176.105469 24.894531 176.351562 23.964844 C 176.4375 23.71875 176.878906 23.675781 178.625 23.71875 C 181.695312 23.808594 181.828125 23.875 181.851562 25.453125 C 181.875 26.695312 181.875 26.714844 182.09375 25.960938 C 182.84375 23.34375 183 23.230469 186.160156 23.453125 L 188.566406 23.632812 L 188.632812 24.253906 C 188.855469 26.207031 186.492188 31.863281 183.707031 36.058594 C 179.378906 42.582031 174.890625 46.640625 170.648438 47.863281 C 167.933594 48.640625 163.535156 48.816406 160.464844 48.261719 C 157.195312 47.683594 151.164062 45.554688 147.539062 43.691406 C 147.078125 43.46875 146.632812 43.269531 146.546875 43.269531 C 146.257812 43.292969 149.21875 44.800781 151.894531 45.976562 C 154.632812 47.21875 157.546875 48.195312 159.867188 48.683594 C 167.601562 50.324219 175.664062 48.039062 181.71875 42.492188 C 182.714844 41.605469 183.15625 41.316406 183.488281 41.425781 C 183.863281 41.539062 183.882812 41.515625 183.640625 41.207031 C 183.375 40.894531 183.664062 40.472656 185.652344 38.121094 C 189.230469 33.816406 191.261719 30.53125 191.683594 28.292969 C 191.75 27.847656 191.882812 27.535156 191.925781 27.605469 C 192.058594 27.738281 192.542969 30.578125 192.875 33.195312 L 193.117188 35.214844 L 191.375 39.851562 C 190.402344 42.402344 189.539062 44.710938 189.453125 44.976562 C 189.296875 45.554688 188.855469 45.644531 188.457031 45.15625 C 188.300781 44.976562 188.082031 44.824219 187.925781 44.824219 C 187.792969 44.824219 187.972656 45.066406 188.300781 45.378906 C 188.632812 45.6875 188.898438 46.085938 188.898438 46.265625 C 188.898438 46.421875 188.613281 47.394531 188.257812 48.417969 C 186.910156 52.277344 186.117188 55.316406 185.476562 59.132812 C 185.1875 60.84375 185.738281 59.601562 186.136719 57.625 L 186.535156 55.671875 L 187.992188 54.386719 C 189.386719 53.1875 192.875 50.414062 193.496094 50.058594 C 193.671875 49.949219 194.3125 50.324219 195.195312 51.035156 C 195.992188 51.679688 196.632812 52.101562 196.632812 51.988281 C 196.609375 51.902344 196.035156 51.347656 195.304688 50.769531 L 193.980469 49.75 L 196.765625 47.574219 C 199.8125 45.199219 200.761719 44.179688 201.582031 42.359375 C 202.132812 41.140625 202.929688 37.34375 202.75 36.65625 C 202.664062 36.234375 202.621094 36.347656 202.066406 39.140625 C 201.359375 42.691406 200.320312 44.113281 196.125 47.308594 L 193.515625 49.28125 L 192.609375 48.550781 C 192.125 48.152344 191.574219 47.707031 191.375 47.597656 C 190.867188 47.285156 190.644531 46.976562 190.753906 46.6875 C 190.820312 46.554688 192.015625 44.84375 193.449219 42.914062 C 196.742188 38.453125 196.984375 37.945312 197.40625 35.058594 C 197.890625 31.464844 198.597656 29.734375 201.007812 26.050781 C 202.574219 23.632812 205.449219 19.660156 205.644531 19.570312 C 205.800781 19.527344 206.308594 20.746094 207.015625 22.898438 L 207.4375 24.164062 L 206.773438 27.78125 C 206.417969 29.777344 206.066406 31.597656 206 31.839844 C 205.890625 32.175781 205.933594 32.21875 206.109375 32.042969 C 206.375 31.796875 207.679688 26.894531 207.679688 26.160156 C 207.679688 25.9375 207.765625 25.738281 207.855469 25.738281 C 208.144531 25.738281 209.046875 29.621094 209.558594 33.039062 L 209.867188 35.125 L 206.839844 39.230469 C 200.144531 48.285156 196.476562 52.742188 191.683594 57.648438 L 189.453125 59.910156 L 200.101562 59.910156 L 199.925781 58.957031 C 199.703125 57.757812 198.886719 55.519531 197.980469 53.765625 L 197.292969 52.390625 L 198.222656 51.324219 C 199.28125 50.105469 203.195312 45.199219 203.769531 44.378906 L 204.144531 43.824219 L 204.917969 44.621094 L 205.710938 45.398438 L 205.46875 49.394531 C 205.335938 51.589844 205.292969 54.808594 205.382812 56.628906 L 205.535156 59.910156 L 224.910156 59.910156 L 224.910156 58.179688 L 222.195312 56.847656 C 219.167969 55.363281 215.300781 52.832031 212.097656 50.257812 C 208.386719 47.285156 204.386719 43.625 204.542969 43.378906 C 204.628906 43.246094 205.84375 41.492188 207.238281 39.496094 L 209.777344 35.835938 L 209.933594 36.835938 C 210 37.390625 210.085938 38.675781 210.085938 39.71875 L 210.109375 41.605469 L 210.660156 40.40625 C 212.074219 37.390625 213.269531 32.972656 213.953125 28.292969 C 214.570312 24.1875 215.609375 13.757812 215.632812 11.648438 L 215.65625 10.539062 L 216.425781 11.425781 C 217.445312 12.582031 219.785156 16.085938 220.890625 18.152344 L 221.753906 19.75 L 221.421875 21.8125 C 221.066406 23.988281 220.914062 36.8125 221.199219 39.828125 C 221.574219 43.867188 222.789062 48.617188 224.136719 51.257812 L 224.890625 52.699219 L 224.910156 39.140625 L 224.910156 25.605469 L 224.117188 23.632812 C 222.371094 19.261719 220.027344 15.132812 217.488281 11.847656 L 215.851562 9.742188 L 215.808594 4.816406 L 215.785156 -0.109375 L 215.609375 3.992188 C 215.34375 10.652344 213.84375 25.851562 212.960938 30.953125 C 212.472656 33.617188 211.5 37.433594 210.949219 38.765625 C 210.660156 39.429688 210.617188 39.253906 210.375 35.878906 C 209.953125 30.089844 208.628906 24.695312 206.21875 18.882812 C 205.136719 16.308594 201.824219 9.761719 200.851562 8.34375 C 199.394531 6.144531 198.820312 4.859375 198.886719 3.925781 C 198.953125 3.0625 198.996094 2.996094 199.792969 2.816406 C 200.875 2.550781 200.851562 2.21875 199.746094 2.375 L 198.863281 2.484375 L 198.773438 1.199219 L 198.707031 -0.109375 L 198.664062 1.265625 C 198.640625 2.042969 198.554688 2.664062 198.464844 2.664062 C 198.378906 2.664062 195.527344 3.21875 192.148438 3.90625 C 188.789062 4.59375 185.984375 5.125 185.960938 5.082031 C 185.9375 5.035156 185.363281 3.859375 184.703125 2.484375 C 184.039062 1.132812 183.375 0 183.222656 0 C 183 0 182.933594 0.6875 182.933594 2.953125 L 182.933594 5.902344 L 180.726562 6.367188 L 178.539062 6.8125 L 178.339844 6.234375 C 178.25 5.925781 178.183594 4.4375 178.207031 2.929688 C 178.207031 1.441406 178.160156 0.15625 178.074219 0.109375 C 177.984375 0.0429688 177.832031 1.597656 177.742188 3.550781 C 177.652344 5.503906 177.542969 7.101562 177.5 7.101562 C 177.453125 7.101562 175.996094 7.410156 174.273438 7.789062 C 172.019531 8.296875 171.113281 8.433594 171.046875 8.230469 C 170.605469 6.902344 166.851562 -0.109375 166.671875 0.0664062 C 166.628906 0.109375 167.3125 1.6875 168.21875 3.574219 C 170.5625 8.476562 170.605469 8.609375 170.164062 8.742188 C 169.964844 8.785156 168.59375 9.097656 167.136719 9.429688 C 165.679688 9.742188 164.351562 10.050781 164.175781 10.117188 C 163.910156 10.207031 163.890625 9.652344 163.976562 6.722656 C 164.042969 4.792969 164.023438 2.464844 163.957031 1.554688 L 163.824219 -0.109375 L 163.667969 2.441406 C 163.558594 3.839844 163.492188 5.746094 163.492188 6.679688 C 163.492188 7.609375 163.425781 8.808594 163.359375 9.363281 C 163.226562 10.339844 163.203125 10.363281 162.1875 10.605469 C 161.636719 10.738281 161.171875 10.828125 161.148438 10.804688 C 161.128906 10.785156 161.304688 9.71875 161.527344 8.433594 C 161.902344 6.234375 162.363281 -0.242188 162.121094 0 C 162.054688 0.0664062 161.835938 1.597656 161.636719 3.4375 C 161.28125 6.566406 160.574219 10.785156 160.375 10.960938 C 160.332031 11.007812 158.960938 11.40625 157.351562 11.847656 C 155.738281 12.316406 154.277344 12.714844 154.125 12.78125 C 153.902344 12.871094 153.75 12.558594 153.550781 11.78125 C 153.308594 10.785156 153.351562 10.472656 153.96875 8.277344 C 154.832031 5.214844 155.804688 0.910156 155.691406 0.597656 C 155.648438 0.445312 155.382812 1.285156 155.117188 2.441406 C 154.566406 4.835938 152.910156 10.40625 152.222656 12.25 C 151.847656 13.246094 151.628906 13.535156 151.054688 13.757812 C 147.011719 15.289062 142.082031 17.617188 142.347656 17.882812 C 142.390625 17.929688 143.34375 17.574219 144.46875 17.109375 C 146.746094 16.109375 151.121094 14.554688 151.230469 14.6875 C 151.40625 14.84375 149.085938 20.371094 147.472656 23.632812 C 144.777344 29.132812 141.507812 34.546875 137.90625 39.496094 C 136.25 41.761719 132.980469 45.753906 132.871094 45.644531 C 132.824219 45.597656 133.113281 44.113281 133.554688 42.359375 C 135.851562 32.796875 136.957031 20.769531 136.339844 11.9375 C 136.03125 7.101562 135.324219 1.199219 134.992188 0.445312 C 134.792969 -0.0234375 134.792969 0.0898438 134.878906 1 C 134.945312 1.597656 135.144531 3.507812 135.324219 5.214844 C 135.832031 9.894531 135.984375 18.460938 135.675781 23.71875 C 135.519531 26.183594 135.324219 28.425781 135.234375 28.691406 C 135.078125 29.089844 134.925781 28.957031 133.929688 27.535156 C 129.867188 21.722656 127.324219 13.535156 126.285156 2.882812 L 126 -0.109375 Z M 184.503906 2.929688 C 185.011719 4.128906 185.386719 5.171875 185.296875 5.238281 C 185.230469 5.304688 184.835938 5.4375 184.390625 5.546875 C 183.640625 5.703125 183.597656 5.703125 183.488281 5.015625 C 183.308594 3.90625 183.242188 0.242188 183.421875 0.511719 C 183.488281 0.621094 183.972656 1.730469 184.503906 2.929688 Z M 198.066406 9.851562 C 197.292969 20.035156 196.144531 27.359375 194.222656 34.0625 L 193.605469 36.28125 L 193.472656 35.171875 C 193.40625 34.546875 193.273438 33.351562 193.207031 32.507812 C 192.542969 24.917969 190.203125 15.554688 186.933594 7.367188 C 186.578125 6.5 186.535156 6.167969 186.757812 6.101562 C 186.890625 6.058594 189.164062 5.503906 191.769531 4.882812 C 194.378906 4.238281 196.917969 3.617188 197.40625 3.460938 L 198.289062 3.171875 L 198.355469 4.171875 C 198.398438 4.703125 198.265625 7.277344 198.066406 9.851562 Z M 201.25 10.007812 C 202.996094 13.160156 205.46875 18.285156 205.46875 18.773438 C 205.46875 18.90625 204.519531 20.28125 203.371094 21.835938 C 198.488281 28.335938 197.382812 30.554688 196.742188 35.238281 C 196.585938 36.347656 196.257812 37.675781 196.011719 38.144531 C 195.75 38.632812 194.378906 40.628906 192.941406 42.605469 C 191.507812 44.578125 190.113281 46.53125 189.828125 46.953125 C 189.5625 47.375 189.296875 47.707031 189.253906 47.707031 C 189.1875 47.707031 189.472656 46.773438 189.871094 45.644531 C 193.207031 36.300781 193.207031 36.324219 193.339844 36.96875 C 193.582031 38.296875 196.035156 29.777344 197.050781 23.964844 C 197.847656 19.460938 198.839844 9.71875 198.839844 6.324219 C 198.839844 5.902344 198.839844 5.902344 199.128906 6.324219 C 199.304688 6.566406 200.253906 8.230469 201.25 10.007812 Z M 186.691406 8.253906 C 187.617188 10.671875 189.519531 16.464844 189.671875 17.394531 C 189.804688 17.996094 189.738281 18.171875 189.296875 18.460938 C 189.007812 18.660156 188.589844 18.992188 188.347656 19.238281 C 187.242188 20.28125 186.867188 20.414062 184.964844 20.414062 L 183.132812 20.414062 L 183.199219 19.347656 L 183.265625 18.304688 L 186.136719 18.351562 L 189.007812 18.371094 L 186.910156 18.171875 C 185.761719 18.039062 184.480469 17.90625 184.0625 17.839844 L 183.308594 17.730469 L 183.441406 15.578125 C 183.53125 14.402344 183.597656 11.960938 183.597656 10.164062 L 183.597656 6.902344 L 184.324219 6.679688 C 185.851562 6.234375 185.9375 6.28125 186.691406 8.253906 Z M 182.933594 11.40625 C 182.933594 13.757812 182.867188 16.152344 182.800781 16.730469 C 182.667969 17.664062 182.601562 17.75 182.050781 17.75 C 181.496094 17.75 181.433594 17.664062 181.300781 16.664062 C 181.121094 15.332031 180.019531 11.007812 179.421875 9.253906 C 179.089844 8.296875 179.046875 7.945312 179.246094 7.878906 C 179.730469 7.699219 182.160156 7.144531 182.558594 7.121094 C 182.910156 7.101562 182.933594 7.433594 182.933594 11.40625 Z M 179.355469 10.984375 C 180.105469 13.691406 180.726562 16.597656 180.726562 17.328125 C 180.726562 17.707031 180.636719 17.773438 180.238281 17.664062 C 179.953125 17.597656 179.15625 17.53125 178.449219 17.53125 C 177.742188 17.53125 177.210938 17.464844 177.277344 17.351562 C 177.324219 17.261719 177.542969 15.242188 177.742188 12.871094 C 177.941406 10.496094 178.140625 8.386719 178.207031 8.210938 C 178.382812 7.699219 178.605469 8.1875 179.355469 10.984375 Z M 177.078125 13.269531 C 176.902344 15.53125 176.703125 17.417969 176.679688 17.441406 C 176.660156 17.464844 176.152344 17.53125 175.578125 17.550781 L 174.515625 17.617188 L 173.765625 15.421875 C 173.367188 14.203125 172.726562 12.425781 172.351562 11.449219 C 171.953125 10.496094 171.6875 9.675781 171.734375 9.628906 C 171.777344 9.585938 173.035156 9.253906 174.5625 8.921875 C 177.167969 8.320312 177.300781 8.320312 177.367188 8.71875 C 177.410156 8.941406 177.277344 10.984375 177.078125 13.269531 Z M 171.421875 10.71875 C 171.777344 11.5625 173.875 17.464844 173.875 17.617188 C 173.875 17.664062 172.660156 17.75 171.179688 17.839844 C 169.679688 17.929688 167.269531 18.195312 165.8125 18.394531 C 164.351562 18.617188 163.136719 18.792969 163.117188 18.773438 C 163.09375 18.773438 163.183594 18.261719 163.292969 17.664062 C 163.402344 17.0625 163.601562 15.398438 163.734375 14 C 163.867188 12.582031 164 11.382812 164.066406 11.339844 C 164.15625 11.226562 170.273438 9.808594 170.738281 9.785156 C 170.894531 9.761719 171.203125 10.207031 171.421875 10.71875 Z M 163.269531 12.136719 C 163.269531 13.246094 162.585938 18.75 162.429688 18.90625 C 162.34375 18.992188 161.855469 19.128906 161.371094 19.214844 L 160.464844 19.347656 L 160.308594 17.0625 C 160.199219 15.289062 160.242188 14.445312 160.507812 13.425781 C 160.707031 12.714844 160.90625 12.070312 160.949219 12.027344 C 161.0625 11.894531 162.386719 11.582031 162.894531 11.5625 C 163.160156 11.539062 163.269531 11.714844 163.269531 12.136719 Z M 152.886719 13.113281 C 152.421875 13.3125 152.402344 13.269531 152.710938 12.402344 L 152.976562 11.648438 L 153.109375 12.316406 C 153.195312 12.78125 153.128906 13.023438 152.886719 13.113281 Z M 160.113281 12.582031 C 160.046875 12.804688 159.714844 13.980469 159.382812 15.199219 C 159.050781 16.421875 158.542969 18.039062 158.253906 18.773438 C 157.746094 20.082031 157.679688 20.171875 156.511719 20.613281 C 155.824219 20.859375 155.25 21.078125 155.207031 21.078125 C 155.183594 21.078125 155.097656 20.324219 155.007812 19.394531 C 154.917969 18.4375 154.675781 16.796875 154.457031 15.710938 L 154.058594 13.757812 L 155.183594 13.425781 C 157.085938 12.890625 159.601562 12.25 159.914062 12.226562 C 160.089844 12.203125 160.15625 12.359375 160.113281 12.582031 Z M 159.691406 19.636719 C 159.648438 19.660156 159.359375 19.75 159.050781 19.816406 L 158.476562 19.96875 L 159.625 16.640625 L 159.691406 18.105469 C 159.734375 18.90625 159.734375 19.59375 159.691406 19.636719 Z M 174.449219 19.460938 C 174.648438 20.171875 174.824219 20.835938 174.847656 20.945312 C 174.847656 21.035156 173.234375 21.414062 171.222656 21.746094 C 169.214844 22.101562 166.34375 22.632812 164.816406 22.945312 C 163.292969 23.230469 162.054688 23.476562 162.035156 23.453125 C 162.011719 23.433594 162.210938 22.542969 162.476562 21.480469 L 162.9375 19.546875 L 163.933594 19.328125 C 165.082031 19.082031 170.515625 18.460938 172.441406 18.351562 C 173.167969 18.304688 173.832031 18.261719 173.917969 18.238281 C 174.007812 18.21875 174.25 18.773438 174.449219 19.460938 Z M 176.527344 18.792969 C 176.527344 19.128906 176.417969 20.28125 176.261719 21.390625 L 176.019531 23.410156 L 175.398438 21.078125 C 175.070312 19.792969 174.78125 18.617188 174.78125 18.460938 C 174.757812 18.285156 175.070312 18.195312 175.644531 18.195312 C 176.460938 18.195312 176.527344 18.238281 176.527344 18.792969 Z M 181.035156 18.683594 C 181.253906 19.527344 181.1875 20.414062 180.902344 20.523438 C 180.746094 20.570312 179.796875 20.660156 178.800781 20.746094 L 176.96875 20.878906 L 176.96875 20.238281 C 176.96875 19.882812 177.035156 19.261719 177.101562 18.882812 L 177.257812 18.195312 L 179.066406 18.195312 C 180.769531 18.195312 180.902344 18.21875 181.035156 18.683594 Z M 182.625 19.683594 C 182.535156 20.523438 182.402344 21.789062 182.316406 22.523438 L 182.183594 23.855469 L 182.027344 22.1875 C 181.960938 21.28125 181.808594 19.992188 181.71875 19.347656 C 181.5625 18.195312 181.5625 18.195312 182.160156 18.195312 L 182.757812 18.195312 Z M 190.335938 19.683594 L 190.488281 20.414062 L 189.140625 20.414062 C 188.390625 20.414062 187.792969 20.347656 187.816406 20.238281 C 187.816406 20.148438 188.28125 19.726562 188.855469 19.28125 C 189.960938 18.4375 190.070312 18.460938 190.335938 19.683594 Z M 161.96875 21.324219 C 161.347656 23.808594 160.839844 25.605469 160.730469 25.71875 C 160.664062 25.761719 160.621094 24.652344 160.621094 23.230469 C 160.621094 21.835938 160.554688 20.523438 160.488281 20.347656 C 160.398438 20.082031 160.597656 19.949219 161.328125 19.792969 C 161.855469 19.703125 162.296875 19.617188 162.320312 19.636719 C 162.34375 19.636719 162.1875 20.414062 161.96875 21.324219 Z M 159.957031 22.054688 L 159.957031 23.921875 L 158.433594 24.273438 C 157.570312 24.476562 156.796875 24.628906 156.664062 24.628906 C 156.554688 24.628906 156.863281 23.742188 157.351562 22.675781 L 158.234375 20.703125 L 158.917969 21.324219 C 159.292969 21.679688 159.648438 21.902344 159.714844 21.835938 C 159.78125 21.769531 159.582031 21.480469 159.25 21.191406 C 158.519531 20.570312 158.5 20.480469 159.027344 20.347656 C 159.933594 20.105469 159.957031 20.148438 159.957031 22.054688 Z M 157.105469 21.921875 C 156.863281 22.5 156.378906 23.632812 156.023438 24.410156 L 155.339844 25.851562 L 155.382812 23.652344 L 155.425781 21.480469 L 156.199219 21.191406 C 157.503906 20.726562 157.546875 20.746094 157.105469 21.921875 Z M 192.65625 48.992188 C 192.964844 49.238281 193.164062 49.480469 193.097656 49.527344 C 193.03125 49.570312 192.300781 50.148438 191.441406 50.8125 C 190.601562 51.457031 189.207031 52.609375 188.367188 53.34375 C 187.132812 54.429688 186.890625 54.585938 187.019531 54.140625 C 188.171875 50.324219 188.5 49.503906 189.453125 48.328125 L 190.421875 47.0625 L 191.261719 47.816406 C 191.726562 48.21875 192.347656 48.75 192.65625 48.992188 Z M 192.65625 48.992188 "/>
<path style=" stroke:none;fill-rule:nonzero;fill:rgb(0%,0%,0%);fill-opacity:1;" d="M 75.382812 1.375 C 75.425781 1.507812 75.714844 1.773438 76.023438 1.976562 L 76.554688 2.308594 L 76.023438 1.707031 C 75.449219 1.066406 75.25 0.953125 75.382812 1.375 Z M 75.382812 1.375 "/>
<path style=" stroke:none;fill-rule:nonzero;fill:rgb(0%,0%,0%);fill-opacity:1;" d="M 43.746094 24.984375 C 43.746094 25.382812 46.816406 30.621094 48.515625 33.105469 C 49.402344 34.4375 50.0625 35.503906 49.976562 35.503906 C 49.886719 35.523438 49.335938 35.96875 48.714844 36.523438 C 48.121094 37.078125 47.808594 37.433594 48.054688 37.300781 C 48.296875 37.1875 48.828125 36.789062 49.222656 36.414062 C 49.621094 36.035156 50.042969 35.726562 50.128906 35.726562 C 50.21875 35.726562 51.144531 36.65625 52.207031 37.8125 C 54.394531 40.183594 57 42.269531 59.253906 43.402344 C 62.082031 44.824219 62.855469 44.957031 60.382812 43.601562 C 58.527344 42.582031 56.160156 40.828125 54.238281 39.007812 C 51.589844 36.523438 49.335938 33.484375 44.453125 25.851562 C 44.078125 25.230469 43.746094 24.851562 43.746094 24.984375 Z M 43.746094 24.984375 "/>
<path style=" stroke:none;fill-rule:nonzero;fill:rgb(0%,0%,0%);fill-opacity:1;" d="M 186.027344 39.429688 C 183.421875 42.070312 180.371094 44.601562 177.742188 46.285156 C 175.84375 47.507812 171.777344 49.617188 170.03125 50.257812 C 169.433594 50.503906 169.039062 50.703125 169.167969 50.746094 C 169.523438 50.878906 172.75 49.617188 175.003906 48.460938 C 178.757812 46.574219 182.074219 44.15625 185.03125 41.140625 C 186.691406 39.476562 188.679688 37.054688 188.414062 37.054688 C 188.367188 37.054688 187.308594 38.121094 186.027344 39.429688 Z M 186.027344 39.429688 "/>
<path style=" stroke:none;fill-rule:nonzero;fill:rgb(0%,0%,0%);fill-opacity:1;" d="M 49.996094 39.875 C 51.742188 41.671875 55.078125 43.492188 58.703125 44.601562 C 61.464844 45.445312 60.957031 44.957031 57.640625 43.625 C 54.195312 42.203125 52.050781 41.09375 50.152344 39.675781 L 48.9375 38.765625 Z M 49.996094 39.875 "/>
<path style=" stroke:none;fill-rule:nonzero;fill:rgb(0%,0%,0%);fill-opacity:1;" d="M 94.007812 43.824219 C 92.769531 44.488281 90.449219 45.488281 88.75 46.066406 C 87.070312 46.621094 85.746094 47.128906 85.8125 47.195312 C 86.011719 47.394531 89.941406 46.355469 91.6875 45.644531 C 93.234375 45.023438 93.765625 44.710938 95.972656 43.203125 C 97.410156 42.203125 96.351562 42.535156 94.007812 43.824219 Z M 94.007812 43.824219 "/>
<path style=" stroke:none;fill-rule:nonzero;fill:rgb(0%,0%,0%);fill-opacity:1;" d="M 142.28125 45.664062 C 143.761719 47.683594 149.441406 50.8125 151.164062 50.546875 C 151.539062 50.480469 151.363281 50.371094 150.457031 50.058594 C 148.535156 49.414062 145.617188 47.863281 144.070312 46.6875 C 141.597656 44.800781 141.683594 44.84375 142.28125 45.664062 Z M 142.28125 45.664062 "/>
<path style=" stroke:none;fill-rule:nonzero;fill:rgb(0%,0%,0%);fill-opacity:1;" d="M 152.511719 48.574219 C 151.648438 49.304688 150.988281 49.949219 151.054688 50.015625 C 151.164062 50.125 152.554688 49.0625 153.992188 47.773438 C 155.140625 46.730469 154.035156 47.328125 152.511719 48.574219 Z M 152.511719 48.574219 "/>
<path style=" stroke:none;fill-rule:nonzero;fill:rgb(0%,0%,0%);fill-opacity:1;" d="M 132.207031 47.996094 C 132.449219 48.152344 132.804688 48.417969 133.003906 48.59375 C 134.019531 49.503906 134.394531 49.792969 134.304688 49.570312 C 134.171875 49.195312 132.339844 47.707031 132.050781 47.730469 C 131.898438 47.730469 131.988281 47.863281 132.207031 47.996094 Z M 132.207031 47.996094 "/>
<path style=" stroke:none;fill-rule:nonzero;fill:rgb(0%,0%,0%);fill-opacity:1;" d="M 131.675781 58.734375 C 131.675781 59.378906 131.789062 59.910156 131.898438 59.910156 C 132.183594 59.910156 132.183594 58.359375 131.898438 57.914062 C 131.742188 57.671875 131.675781 57.914062 131.675781 58.734375 Z M 131.675781 58.734375 "/>
<path style=" stroke:none;fill-rule:nonzero;fill:rgb(0%,0%,0%);fill-opacity:1;" d="M 134.925781 59.179688 C 134.660156 59.445312 134.769531 59.910156 135.101562 59.910156 C 135.476562 59.910156 135.519531 59.710938 135.257812 59.289062 C 135.144531 59.132812 135.011719 59.089844 134.925781 59.179688 Z M 134.925781 59.179688 "/>
</g>
</svg>
