<?xml version="1.0" standalone="no"?>
<!DOCTYPE svg PUBLIC "-//W3C//DTD SVG 20010904//EN"
 "http://www.w3.org/TR/2001/REC-SVG-20010904/DTD/svg10.dtd">
<svg version="1.0" xmlns="http://www.w3.org/2000/svg"
 width="512.000000pt" height="512.000000pt" viewBox="0 0 512.000000 512.000000"
 preserveAspectRatio="xMidYMid meet">

<g transform="translate(0.000000,512.000000) scale(0.100000,-0.100000)"
fill="#000000" stroke="none">
<path d="M1910 4636 c95 -55 168 -121 225 -201 42 -59 95 -162 95 -186 0 -14
-61 -6 -250 31 -245 49 -430 120 -561 217 l-59 43 0 -74 c0 -152 49 -334 127
-477 2 -4 -20 0 -49 8 -88 24 -231 27 -338 9 -121 -21 -221 -52 -390 -120
-121 -49 -132 -55 -105 -61 134 -30 204 -53 293 -95 56 -27 102 -52 102 -56 0
-4 -73 -4 -162 -1 -156 6 -345 29 -490 60 -38 8 -68 11 -68 6 0 -5 11 -36 24
-68 57 -140 182 -290 316 -379 36 -24 65 -47 64 -50 0 -4 -15 -37 -33 -75 -22
-45 -35 -87 -38 -130 l-5 -62 36 53 c36 51 110 111 123 99 19 -19 -95 -202
-186 -299 -105 -113 -216 -168 -338 -168 -34 0 -63 -4 -63 -9 0 -16 131 -120
196 -157 71 -40 151 -69 231 -83 31 -6 58 -13 61 -15 2 -3 -5 -18 -17 -35 -54
-75 -87 -194 -76 -269 l7 -47 14 35 c26 60 65 102 121 127 30 14 57 22 61 19
10 -11 -18 -127 -49 -201 -66 -158 -154 -232 -309 -262 l-45 -9 60 -23 c123
-47 205 -63 330 -65 66 0 145 2 176 6 l56 8 -5 -98 c-8 -174 45 -315 159 -427
l60 -60 -28 60 c-33 70 -37 151 -10 201 l16 32 63 -34 c36 -19 92 -63 132
-103 l69 -70 -6 -78 c-5 -60 -15 -94 -41 -148 -19 -38 -33 -71 -31 -73 1 -2
46 39 98 90 l95 94 12 -41 c20 -68 79 -171 139 -242 31 -36 61 -68 67 -70 7
-2 4 19 -8 53 -10 31 -18 69 -16 84 3 27 10 22 208 -135 113 -90 208 -164 211
-165 4 0 10 16 13 36 4 19 10 34 14 32 4 -2 41 -25 82 -52 69 -46 197 -105
229 -106 9 0 11 7 7 25 -6 25 -6 26 21 12 15 -8 59 -24 97 -37 82 -27 166 -24
239 8 46 20 47 21 47 1 0 -10 4 -19 9 -19 5 0 44 25 86 55 43 31 75 49 71 40
-19 -47 -12 -44 51 21 37 39 86 101 108 139 l39 68 21 -29 c35 -50 75 -83 113
-93 20 -6 38 -9 40 -7 2 2 -1 21 -7 43 -6 21 -11 57 -11 81 0 85 20 130 107
246 46 61 96 137 111 168 18 39 33 58 45 58 49 0 102 50 147 139 12 24 44 65
71 91 l49 47 63 -26 c51 -21 78 -26 152 -26 50 0 103 4 119 8 l29 8 -26 27
c-44 46 -53 103 -38 241 7 66 10 139 6 162 l-7 42 41 -33 c69 -56 110 -120
141 -219 l17 -54 13 53 c17 70 17 200 1 270 -7 30 -30 89 -50 130 -20 41 -37
77 -38 80 -2 3 35 6 81 7 46 1 114 9 152 18 84 21 215 82 268 127 l40 32 -97
13 c-117 14 -193 46 -231 96 -15 19 -39 73 -53 119 -31 100 -44 127 -95 197
-36 48 -38 52 -17 46 92 -29 221 -108 283 -174 17 -17 33 -31 37 -31 13 0
-106 232 -146 285 -56 75 -126 144 -165 165 l-34 18 54 27 c77 39 189 154 228
235 55 113 76 247 56 349 l-6 31 -72 -62 c-39 -34 -97 -79 -130 -99 -57 -38
-161 -82 -177 -77 -5 2 6 25 23 52 68 110 105 265 94 396 -5 69 -28 175 -40
187 -3 3 -45 -18 -93 -46 -49 -28 -127 -67 -174 -86 -90 -37 -273 -89 -291
-83 -6 2 45 49 113 103 68 55 130 106 139 113 41 34 -195 -35 -299 -88 -34
-16 -61 -27 -61 -23 0 17 159 190 227 247 39 34 72 64 72 69 2 13 -174 7 -233
-8 -126 -33 -293 -151 -367 -260 -13 -19 -27 -35 -30 -35 -3 0 -9 29 -12 63
-12 133 -96 289 -210 392 -62 57 -190 127 -256 140 -32 7 -34 6 -27 -16 3 -13
11 -55 18 -93 13 -80 0 -191 -32 -263 l-19 -44 -93 93 c-241 241 -543 368
-877 368 l-116 0 75 -44z m213 -1 c277 -42 546 -189 726 -395 36 -41 69 -77
73 -78 12 -5 63 111 78 177 8 33 11 91 8 152 -3 59 -1 99 5 99 33 0 160 -82
223 -145 130 -129 192 -286 181 -462 -3 -51 -4 -93 -2 -93 2 0 21 33 43 73 99
177 240 294 408 337 66 17 134 26 134 18 0 -2 -37 -41 -83 -88 -89 -92 -152
-171 -211 -264 -33 -52 -35 -58 -15 -45 111 72 312 169 324 157 2 -2 -53 -48
-122 -103 -85 -68 -120 -101 -108 -103 27 -6 201 28 288 55 101 31 223 84 298
128 33 19 62 35 63 35 2 0 9 -20 15 -44 16 -65 14 -228 -5 -300 -20 -79 -76
-193 -121 -246 -19 -22 -33 -43 -30 -46 9 -9 117 16 179 41 66 27 146 78 211
135 43 38 46 39 52 20 15 -46 -18 -198 -61 -281 -31 -61 -121 -159 -186 -200
-28 -18 -98 -47 -157 -65 l-106 -33 88 -1 c113 0 139 -12 226 -107 57 -61 131
-173 131 -196 0 -3 -23 9 -52 28 -28 19 -83 46 -122 60 -74 26 -216 57 -216
46 0 -4 17 -15 37 -26 55 -30 137 -114 166 -170 13 -28 36 -88 50 -135 42
-138 104 -192 259 -223 l61 -13 -59 -31 c-113 -60 -193 -78 -345 -78 l-137 0
29 -32 c72 -83 117 -198 126 -323 l6 -85 -43 63 c-50 75 -132 140 -213 171
l-25 10 30 -57 30 -57 -8 -120 c-10 -155 -7 -222 11 -259 8 -16 15 -31 15 -34
0 -2 -39 -2 -88 0 -70 2 -98 8 -142 30 l-54 27 -48 -36 c-49 -38 -92 -91 -126
-158 -11 -22 -31 -50 -44 -62 -27 -25 -73 -39 -82 -25 -10 17 45 266 64 287
29 33 37 56 50 140 15 103 49 185 107 260 37 49 40 54 13 30 -78 -72 -122
-167 -139 -296 -9 -76 -30 -143 -38 -123 -2 7 8 78 22 159 15 81 24 149 22
151 -6 6 -42 -166 -87 -420 -25 -140 -47 -234 -63 -268 -28 -61 -141 -214
-168 -229 -10 -5 -18 -13 -17 -17 1 -4 -6 -32 -17 -62 -12 -36 -19 -80 -18
-127 1 -72 1 -72 -20 -58 -12 8 -36 39 -55 67 l-33 53 29 25 c15 14 48 42 72
63 25 21 40 37 33 35 -20 -5 -341 -260 -432 -344 -89 -81 -156 -118 -231 -129
-61 -9 -178 29 -295 96 -130 74 -249 133 -349 173 -137 55 -215 103 -291 180
-83 83 -116 143 -206 373 -35 89 -65 161 -67 159 -2 -2 20 -68 49 -145 28 -78
49 -145 46 -147 -3 -3 -23 -8 -45 -11 -68 -9 -108 12 -197 106 -96 100 -225
182 -252 160 -24 -21 -45 -70 -52 -124 l-7 -50 -31 60 c-16 33 -36 85 -44 115
-16 65 -16 209 -1 264 6 22 10 41 9 43 -2 1 -35 -4 -73 -12 -120 -25 -324 -18
-433 17 l-35 11 49 25 c60 30 141 111 177 178 40 74 79 199 83 268 3 55 7 65
44 105 65 70 48 72 -22 3 -34 -34 -71 -62 -80 -62 -22 0 -72 -25 -116 -58
l-33 -25 7 24 c28 96 116 232 193 300 60 52 19 32 -51 -25 l-53 -43 -65 9
c-117 15 -247 70 -337 142 l-43 34 56 12 c94 20 192 75 270 154 119 120 217
276 232 370 l6 36 -42 -15 c-23 -8 -54 -23 -69 -33 -50 -35 -53 -35 -42 -8 5
14 20 42 33 63 13 21 26 43 30 49 4 8 -21 30 -67 58 -91 57 -163 121 -221 196
-47 61 -120 188 -113 196 3 2 29 -1 59 -6 211 -40 470 -63 616 -53 l97 6 -32
27 c-49 41 -197 115 -292 146 l-84 27 43 19 c83 35 247 87 326 103 149 31 352
17 445 -30 70 -35 72 -31 25 47 -75 121 -122 267 -140 432 l-7 59 34 -22 c83
-56 260 -132 383 -166 144 -39 468 -96 473 -83 6 13 -18 78 -55 152 -46 93
-112 177 -189 238 -35 28 -64 53 -64 55 0 7 60 2 153 -12z m-576 -3492 c22 -5
22 -6 -9 -49 -17 -24 -39 -51 -49 -60 -17 -15 -18 -14 -13 22 14 103 15 106
32 99 9 -4 27 -10 39 -12z m283 -232 c82 -81 144 -119 308 -186 208 -85 331
-151 338 -180 4 -14 4 -28 1 -31 -11 -11 -155 66 -225 120 l-70 55 -7 -40 c-4
-21 -9 -39 -11 -39 -3 0 -101 77 -218 170 -118 94 -217 170 -220 170 -3 0 -6
-25 -6 -56 l0 -57 -19 24 c-31 40 -79 142 -95 204 -8 33 -14 60 -13 60 1 1 20
8 42 16 l40 15 44 -89 c33 -67 61 -106 111 -156z m1383 -205 c-45 -71 -71 -98
-56 -59 4 9 -27 -11 -68 -46 -41 -34 -82 -67 -92 -72 -16 -9 -17 -7 -11 18 4
15 18 38 33 49 169 138 237 191 239 189 2 -2 -18 -37 -45 -79z"/>
<path d="M2336 3953 c-27 -58 -37 -138 -25 -212 11 -68 57 -167 92 -198 11
-10 7 1 -12 26 -48 67 -75 167 -68 254 2 40 10 86 17 102 l12 30 18 -47 c20
-54 73 -129 121 -173 31 -27 30 -26 -5 13 -56 65 -95 130 -112 190 -9 28 -17
52 -18 52 -1 0 -10 -17 -20 -37z"/>
<path d="M3097 3785 c-93 -26 -160 -66 -240 -146 l-79 -78 -51 26 c-29 14 -77
41 -107 60 -30 19 -48 28 -40 20 8 -9 58 -40 110 -70 l95 -55 57 63 c32 34 80
77 108 95 60 39 166 76 238 83 l52 6 -43 -57 c-48 -62 -137 -210 -137 -227 0
-5 19 22 42 60 40 67 85 131 143 203 l26 32 -63 -1 c-35 0 -85 -7 -111 -14z"/>
<path d="M2530 3706 c0 -2 8 -10 18 -17 15 -13 16 -12 3 4 -13 16 -21 21 -21
13z"/>
<path d="M2188 3483 c7 -3 16 -2 19 1 4 3 -2 6 -13 5 -11 0 -14 -3 -6 -6z"/>
<path d="M2100 3466 c-118 -44 -229 -122 -298 -210 -43 -56 -105 -177 -118
-231 -7 -28 -2 -25 66 38 164 152 391 266 612 307 87 16 98 11 99 -42 2 -32 3
-36 6 -14 3 15 2 39 -1 52 -8 31 -48 32 -162 4 -204 -48 -381 -135 -528 -258
-28 -23 -52 -40 -54 -37 -9 8 61 134 103 185 75 92 166 155 283 196 37 13 58
23 47 23 -11 0 -36 -6 -55 -13z"/>
<path d="M2852 3457 c51 -48 46 -135 -14 -202 -72 -82 -316 -206 -518 -261
-100 -28 -110 -29 -84 -8 10 8 0 5 -23 -8 -23 -12 -40 -24 -38 -26 7 -8 174
32 255 60 99 35 294 133 362 183 60 44 99 102 105 158 6 51 -15 100 -50 118
-19 10 -18 8 5 -14z"/>
<path d="M2451 3254 c0 -11 3 -14 6 -6 3 7 2 16 -1 19 -3 4 -6 -2 -5 -13z"/>
<path d="M2436 3215 c-9 -26 -7 -32 5 -12 6 10 9 21 6 23 -2 3 -7 -2 -11 -11z"/>
<path d="M3580 3147 c0 -3 24 -23 53 -45 216 -163 351 -334 418 -532 30 -88
33 -105 33 -225 1 -102 -3 -143 -18 -190 l-19 -60 -9 53 c-11 74 -43 158 -84
224 -23 38 -39 79 -45 120 -31 190 -146 389 -301 518 -47 39 -44 34 26 -40
154 -164 238 -329 267 -521 12 -75 7 -161 -16 -279 -3 -14 2 -5 10 20 9 25 19
81 23 125 l7 80 22 -35 c32 -52 70 -175 78 -253 4 -38 11 -65 15 -60 4 4 20
42 36 83 25 67 28 89 28 200 1 101 -4 140 -22 203 -54 187 -180 365 -367 516
-78 63 -135 105 -135 98z"/>
<path d="M2325 3063 c-38 -37 -56 -57 -40 -46 29 21 124 113 115 113 -3 -1
-36 -31 -75 -67z"/>
<path d="M3084 2963 c24 -49 57 -131 74 -183 30 -94 54 -225 43 -236 -3 -3
-25 -14 -49 -25 -25 -10 -71 -37 -104 -60 -33 -22 -61 -39 -62 -37 -2 2 -24
44 -51 93 l-48 90 -3 135 c-1 74 -7 151 -12 170 -7 25 -8 -1 -5 -95 12 -297
-54 -528 -216 -756 -66 -92 -196 -237 -206 -228 -3 3 4 50 15 105 42 201 34
384 -21 498 -15 32 -19 64 -21 160 l-1 121 -8 -135 c-11 -202 -50 -329 -143
-468 -49 -75 -91 -118 -99 -104 -4 5 0 30 8 57 8 26 15 58 14 69 -1 23 -4 16
-13 -27 l-6 -27 -43 21 c-27 14 -70 24 -119 28 -64 5 -76 9 -69 20 10 16 155
22 204 8 18 -5 26 -4 23 2 -12 19 -114 33 -164 22 -26 -5 -48 -8 -49 -7 -2 1
22 56 51 122 60 132 55 128 139 92 l47 -20 2 -107 2 -106 5 102 6 103 35 -20
35 -21 -30 26 c-16 14 -33 25 -37 25 -4 0 -12 26 -18 58 -6 31 -20 84 -31 118
-18 57 -19 65 -4 125 29 126 16 107 -30 -42 -19 -63 -42 -131 -52 -152 -15
-34 -20 -38 -42 -33 -14 3 -65 9 -112 12 l-87 7 14 61 c8 34 22 84 31 111 25
79 26 82 3 41 -12 -21 -32 -80 -45 -129 l-23 -91 -61 -12 c-34 -7 -87 -24
-118 -39 -31 -14 -58 -23 -61 -20 -8 8 27 160 59 254 16 46 27 86 25 89 -14
13 -106 -287 -106 -345 0 -13 -12 -29 -34 -42 -19 -12 -40 -29 -47 -38 -8 -9
4 -5 26 10 l40 27 3 -46 c2 -25 -6 -86 -18 -135 -35 -149 -42 -408 -15 -517
l6 -25 -33 28 c-81 68 -156 181 -189 285 -27 84 -37 310 -19 431 14 100 50
217 96 317 43 93 28 85 -19 -10 -78 -160 -112 -319 -104 -488 3 -89 0 -118
-19 -187 -25 -88 -47 -264 -37 -290 4 -10 2 -14 -5 -10 -14 9 -76 197 -101
307 -70 304 -39 572 89 767 25 38 26 42 6 18 -38 -44 -91 -151 -115 -230 -42
-139 -44 -333 -6 -516 19 -93 92 -311 121 -363 l22 -39 1 99 c1 138 9 168 46
174 29 5 32 2 70 -75 29 -59 61 -102 122 -165 45 -46 84 -82 87 -80 2 3 0 25
-4 50 -18 88 -23 264 -11 360 19 149 21 153 42 72 10 -39 29 -94 42 -121 l24
-50 -49 -48 -48 -47 47 -22 c25 -13 73 -51 105 -85 32 -34 61 -59 64 -56 3 2
-9 26 -25 53 -17 27 -34 65 -37 84 l-7 35 32 -29 31 -30 0 70 c0 116 7 140 51
168 l38 25 12 -36 12 -37 29 57 c15 31 34 57 42 57 7 0 29 3 47 6 l34 6 -22
-22 c-21 -23 -21 -23 -2 -39 36 -29 38 -121 3 -155 -21 -21 -29 -20 -55 7
l-21 22 5 -85 c7 -108 29 -171 73 -210 65 -57 151 -32 195 57 21 42 24 62 24
168 0 66 -3 134 -8 150 -7 29 -6 28 36 -16 24 -26 60 -78 80 -115 20 -38 37
-62 37 -53 0 37 -43 151 -76 200 -31 46 -34 56 -23 75 l12 23 45 -37 c36 -30
43 -32 33 -14 -7 13 -25 31 -41 40 -26 16 -27 19 -13 37 46 61 133 277 133
329 0 30 16 8 34 -46 40 -122 39 -292 -5 -486 -11 -50 -19 -98 -16 -105 6 -18
173 157 245 259 35 49 83 130 107 179 43 88 95 246 95 289 0 11 4 27 9 35 6 9
21 -11 50 -70 l42 -84 -43 -38 c-24 -21 -33 -33 -21 -28 12 6 25 16 28 21 3 5
14 14 24 20 16 8 22 0 49 -73 52 -137 52 -129 -12 -188 -31 -28 -62 -61 -67
-73 -6 -11 20 10 59 47 69 68 69 69 76 42 5 -21 -1 -35 -33 -74 -22 -26 -51
-68 -65 -95 -28 -54 -24 -84 6 -45 11 13 40 48 66 78 l46 54 9 -34 9 -34 28
54 c25 51 28 53 39 34 20 -38 14 -99 -13 -130 l-24 -28 -28 25 -27 25 6 -88
c13 -186 107 -283 213 -218 53 32 78 99 82 222 5 135 -12 203 -63 247 l-34 31
30 6 c16 4 47 4 68 0 l39 -6 12 -70 c7 -39 10 -84 8 -100 -3 -16 -3 -29 -1
-29 2 0 19 33 39 73 19 39 40 72 46 72 7 0 26 -22 43 -49 24 -40 30 -60 30
-105 0 -31 -3 -69 -8 -86 l-7 -30 22 30 c13 17 42 51 67 77 l43 48 -25 9 c-13
5 -34 25 -46 44 -12 19 -42 53 -67 77 l-45 42 16 64 c9 36 17 103 18 149 1 47
3 85 4 85 8 0 83 -164 101 -220 36 -109 44 -160 51 -294 l6 -129 74 124 c41
68 83 134 94 147 45 49 100 11 112 -80 4 -28 18 -81 31 -117 26 -71 26 -65 -2
44 -9 39 -21 86 -25 105 -11 46 -43 80 -75 80 -34 0 -67 -37 -134 -149 l-55
-92 -12 118 c-17 173 -71 342 -147 462 -30 47 -50 101 -37 101 17 0 126 -41
149 -56 14 -9 21 -11 17 -4 -9 15 -124 70 -147 70 -21 0 -27 10 -54 87 -41
118 -135 266 -215 338 -37 33 -24 13 34 -55 53 -62 121 -179 157 -272 17 -43
30 -79 30 -81 0 -2 -44 -4 -97 -4 -57 -1 -118 -8 -146 -16 -55 -18 -51 -23
-68 83 -15 99 -68 245 -119 331 -22 38 -43 69 -45 69 -3 0 15 -39 39 -87z
m-911 -505 c8 -38 13 -68 11 -68 -5 0 -108 41 -112 45 -2 1 12 35 30 76 l32
72 12 -29 c6 -16 18 -59 27 -96z m1365 47 c23 -109 -3 -296 -59 -420 l-22 -50
-8 60 c-15 109 -67 227 -165 374 -24 36 -42 66 -40 68 12 13 144 31 206 30
l75 -2 13 -60z m-328 -7 c-1 -121 -40 -319 -81 -414 l-21 -49 -23 90 c-12 50
-39 133 -58 185 -20 52 -35 95 -34 95 1 1 18 12 37 26 48 33 152 88 168 89 6
0 12 -10 12 -22z m73 -60 c42 -68 117 -211 117 -223 0 -3 -24 -5 -53 -5 -30 0
-76 -7 -103 -15 -64 -19 -63 -19 -55 12 8 31 32 40 101 42 25 1 52 6 60 12 18
12 -103 7 -134 -6 -17 -7 -18 -5 -12 18 3 15 9 55 12 89 7 90 15 148 19 148 1
0 23 -33 48 -72z m-1480 -65 c-3 -38 -16 -105 -29 -149 -22 -79 -45 -215 -61
-357 l-8 -69 -43 66 c-84 128 -116 247 -107 393 l7 101 59 27 c33 14 88 32
122 40 34 7 63 14 64 14 1 1 0 -29 -4 -66z m228 53 c14 -6 0 -43 -85 -228
l-101 -222 -14 45 c-16 50 -22 317 -8 383 l8 39 92 -6 c51 -2 99 -8 108 -11z
m-243 -300 c-14 -18 -19 1 -11 45 l8 44 5 -40 c3 -22 2 -44 -2 -49z m12 -33
c0 -10 -12 -26 -25 -36 -22 -15 -25 -16 -25 -2 0 14 33 55 45 55 3 0 5 -8 5
-17z m-536 -124 c6 -33 4 -37 -19 -41 -14 -3 -25 -3 -25 -1 0 2 5 24 11 49 13
50 23 48 33 -7z m1908 -103 c-4 -55 -1 -67 17 -85 28 -28 56 -27 86 4 25 24
30 48 26 113 l-3 34 27 -18 c25 -17 27 -22 22 -70 -10 -97 -55 -154 -122 -154
-69 0 -105 55 -105 160 0 55 2 59 28 68 15 6 27 11 27 11 1 1 -1 -28 -3 -63z
m-1013 -120 c-7 -76 -34 -120 -84 -136 -27 -9 -40 -8 -61 2 -49 24 -68 62 -72
144 -2 40 0 74 4 74 5 0 18 3 29 6 19 5 20 1 17 -55 -3 -50 0 -63 17 -80 28
-28 56 -26 86 4 21 20 25 34 25 86 l0 62 23 -21 c21 -20 22 -27 16 -86z"/>
<path d="M3864 1865 c-18 -13 -16 -14 17 -8 l36 5 7 -90 c8 -102 3 -121 -50
-165 -18 -15 -40 -47 -49 -75 -28 -76 -37 -91 -64 -101 -18 -7 -21 -10 -8 -10
44 -2 63 24 87 116 7 30 21 51 47 70 51 39 65 79 57 161 -11 111 -30 134 -80
97z"/>
<path d="M4063 1765 c0 -33 2 -45 4 -27 2 18 2 45 0 60 -2 15 -4 0 -4 -33z"/>
<path d="M1220 1764 c-12 -13 -10 -14 13 -3 37 17 68 1 107 -52 l30 -42 -30
-33 c-45 -51 -55 -104 -32 -157 23 -51 191 -217 218 -216 11 0 37 7 59 14 l40
14 -56 -5 -55 -6 -85 77 c-46 43 -92 89 -101 104 -26 39 -22 89 12 148 l30 52
50 -37 c28 -20 52 -46 55 -57 2 -11 6 -36 9 -55 8 -45 38 -95 68 -111 19 -10
18 -6 -9 25 -33 37 -37 48 -47 121 -4 29 -14 47 -37 65 -29 24 -45 39 -130
131 -40 43 -86 52 -109 23z"/>
<path d="M3426 1621 c-32 -36 -116 -64 -187 -65 -53 0 -77 5 -119 27 -29 15
-47 21 -41 13 48 -58 188 -74 276 -32 42 19 111 76 93 76 -3 0 -13 -9 -22 -19z"/>
<path d="M2760 1585 c0 -11 9 -33 20 -50 13 -20 20 -47 20 -80 0 -36 3 -46 10
-35 15 23 12 83 -6 108 -8 12 -22 35 -30 50 -11 22 -14 24 -14 7z"/>
<path d="M2220 1539 c-51 -33 -128 -59 -174 -58 -27 0 -121 22 -181 43 -11 3
3 -5 31 -19 72 -35 152 -49 206 -34 53 14 103 40 143 73 39 33 31 31 -25 -5z"/>
<path d="M2860 1529 c0 -3 5 -20 11 -37 11 -33 7 -48 -35 -117 -17 -28 -15
-27 18 7 29 30 36 46 36 76 0 21 -7 47 -15 58 -8 10 -15 16 -15 13z"/>
<path d="M3020 1100 c-39 -16 -75 -19 -255 -19 -116 -1 -226 -6 -245 -11 -19
-6 -63 -11 -98 -12 -36 -1 -57 -5 -50 -10 20 -12 87 -9 146 6 l52 14 0 -56 c0
-94 52 -152 134 -152 45 0 94 42 135 114 39 67 56 82 109 90 41 6 122 40 122
51 0 3 -1 5 -2 4 -2 -1 -23 -9 -48 -19z m-340 -49 c-12 -24 -13 -31 -2 -31 5
0 14 12 20 26 8 17 18 24 30 20 9 -3 47 -6 85 -7 l68 -2 -19 -21 c-10 -12 -38
-49 -61 -82 -60 -88 -113 -106 -169 -59 -30 25 -52 86 -52 144 0 31 0 31 55
31 52 0 55 -1 45 -19z"/>
</g>
</svg>
