<?xml version="1.0" standalone="no"?>
<!DOCTYPE svg PUBLIC "-//W3C//DTD SVG 20010904//EN"
 "http://www.w3.org/TR/2001/REC-SVG-20010904/DTD/svg10.dtd">
<svg version="1.0" xmlns="http://www.w3.org/2000/svg"
 width="1844.000000pt" height="1844.000000pt" viewBox="0 0 1844.000000 1844.000000"
 preserveAspectRatio="xMidYMid meet">

<g transform="translate(0.000000,1844.000000) scale(0.100000,-0.100000)"
fill="#000000" stroke="none">
<path d="M4710 13217 c0 -8 -11 -24 -25 -37 -18 -17 -25 -34 -25 -61 0 -21 -4
-41 -10 -44 -5 -3 -10 -33 -10 -66 0 -33 -4 -59 -10 -59 -6 0 -10 -38 -10 -94
0 -53 -4 -98 -10 -101 -5 -3 -10 -46 -10 -94 0 -48 -3 -91 -7 -94 -3 -4 -15 0
-25 10 -17 15 -18 37 -18 269 0 158 -4 255 -10 259 -5 3 -10 16 -10 29 0 27
-49 76 -76 76 -21 0 -39 -17 -61 -57 -16 -28 -18 -333 -3 -333 6 0 10 -41 10
-103 0 -57 5 -108 10 -113 15 -15 9 -370 -7 -367 -6 1 -17 -4 -23 -12 -7 -8
-27 -15 -46 -15 -18 0 -36 -4 -39 -10 -3 -5 -33 -10 -65 -10 -32 0 -62 5 -65
10 -3 6 -26 10 -51 10 -29 0 -57 8 -82 23 -80 50 -74 71 -70 -243 2 -206 6
-282 16 -292 6 -6 12 -25 12 -40 0 -15 5 -28 10 -28 6 0 10 -18 10 -39 0 -22
5 -43 10 -46 6 -3 10 -23 10 -44 0 -22 6 -44 15 -51 9 -7 12 -22 9 -39 -4 -18
0 -32 10 -40 10 -8 16 -29 16 -52 0 -22 5 -39 10 -39 6 0 10 -18 10 -39 0 -22
5 -43 10 -46 6 -3 10 -24 10 -46 0 -21 5 -39 10 -39 6 0 10 -16 10 -35 0 -34
11 -63 38 -97 8 -9 11 -21 8 -27 -8 -12 33 -91 50 -98 8 -3 14 -13 14 -23 0
-10 7 -23 15 -30 13 -10 19 -9 35 5 12 11 18 26 15 35 -3 10 1 23 10 30 11 9
15 34 15 101 0 48 -4 91 -10 94 -5 3 -10 30 -10 59 0 30 -6 60 -15 72 -8 10
-15 38 -15 61 0 23 -4 45 -10 48 -5 3 -10 28 -10 55 0 27 -4 52 -10 55 -5 3
-10 33 -10 65 0 32 -4 62 -10 65 -6 4 -10 58 -10 128 l0 122 27 13 c33 15 213
17 213 2 0 -5 9 -10 20 -10 13 0 20 -7 20 -18 0 -10 9 -24 20 -32 11 -8 20
-22 20 -31 0 -9 7 -22 16 -30 8 -7 13 -21 11 -30 -3 -10 1 -23 9 -30 9 -7 14
-32 14 -70 0 -32 5 -61 10 -64 6 -3 10 -28 10 -56 0 -27 5 -49 10 -49 6 0 10
-18 10 -39 0 -22 5 -43 10 -46 6 -3 10 -14 10 -24 0 -10 6 -31 14 -45 16 -31
98 -126 108 -126 12 0 10 38 -2 45 -6 4 -10 55 -10 121 0 71 -4 114 -10 114
-7 0 -10 49 -8 141 3 161 9 173 67 148 43 -19 61 -59 61 -135 0 -35 5 -66 10
-69 6 -3 10 -37 10 -75 0 -38 5 -72 10 -75 6 -4 10 -58 10 -130 0 -81 4 -125
11 -127 7 -2 11 -46 10 -133 -2 -102 1 -134 13 -150 10 -13 15 -43 16 -87 0
-39 4 -68 10 -68 6 0 10 -22 10 -49 0 -28 5 -53 10 -56 6 -3 10 -24 10 -45 0
-21 5 -42 10 -45 6 -3 10 -19 10 -35 0 -16 9 -45 20 -65 11 -20 20 -46 20 -60
0 -13 4 -26 9 -30 6 -3 28 -43 50 -88 22 -45 54 -96 71 -112 16 -16 30 -34 30
-41 0 -16 159 -174 175 -174 7 0 18 -7 25 -15 14 -17 108 -65 129 -65 9 0 25
-7 35 -15 11 -8 30 -15 42 -15 13 0 26 -4 29 -10 3 -5 21 -10 40 -10 19 0 37
-4 40 -10 3 -6 48 -10 101 -10 56 0 94 -4 94 -10 0 -5 13 -10 29 -10 17 0 33
5 36 10 3 6 21 10 39 10 40 0 84 21 116 55 29 31 75 55 107 55 12 0 23 5 23
10 0 6 9 10 20 10 11 0 20 5 20 11 0 6 10 9 23 7 14 -2 22 -10 22 -23 0 -11 4
-27 10 -35 20 -31 35 -63 35 -76 0 -8 5 -14 10 -14 6 0 10 -9 10 -20 0 -11 5
-20 10 -20 6 0 10 -6 10 -13 0 -14 38 -90 70 -142 10 -16 19 -38 19 -47 1 -10
6 -18 11 -18 6 0 10 -7 10 -15 0 -9 9 -25 20 -37 11 -12 20 -28 20 -35 0 -7 7
-13 16 -13 13 0 15 7 11 34 -4 24 -1 39 9 47 19 15 18 53 -2 70 -12 10 -15 25
-12 61 4 33 1 52 -8 59 -8 6 -14 29 -14 50 0 21 -4 41 -10 44 -5 3 -10 24 -10
46 0 21 -4 39 -10 39 -5 0 -10 16 -10 35 0 19 -9 50 -20 70 -11 20 -20 44 -20
54 0 10 -7 24 -15 31 -9 7 -13 21 -10 30 3 10 -1 25 -10 33 -8 9 -15 27 -15
41 0 14 -4 28 -10 31 -5 3 -10 17 -10 30 0 13 -4 27 -10 30 -5 3 -10 15 -10
26 0 10 -4 19 -10 19 -5 0 -10 11 -10 23 0 26 -25 83 -41 93 -5 3 -7 14 -4 23
3 10 -1 24 -10 31 -8 7 -15 21 -15 31 0 11 -4 19 -10 19 -5 0 -10 11 -10 24 0
13 -13 50 -30 81 -16 31 -30 62 -30 68 0 15 -53 121 -62 125 -5 2 -8 10 -8 18
0 7 -9 29 -20 49 -11 20 -20 44 -20 54 0 9 -11 28 -25 41 -14 13 -25 29 -25
35 0 7 -13 26 -30 43 -16 18 -30 37 -30 44 0 7 -13 26 -29 43 -16 16 -43 56
-60 89 -16 32 -38 67 -47 77 -9 11 -14 22 -11 25 8 8 107 -96 107 -112 0 -5
14 -23 30 -39 17 -16 30 -34 30 -40 0 -7 9 -20 21 -31 11 -10 29 -37 39 -60
11 -22 26 -47 35 -54 8 -7 15 -21 15 -31 0 -11 5 -19 10 -19 6 0 10 -9 10 -20
0 -11 5 -20 10 -20 6 0 10 -8 10 -18 0 -11 9 -27 20 -37 21 -19 90 -151 90
-173 0 -6 5 -12 10 -12 6 0 10 -8 10 -17 1 -10 14 -36 30 -58 16 -22 59 -100
96 -173 37 -74 73 -136 80 -139 8 -3 14 -13 14 -23 0 -9 9 -25 20 -35 11 -10
20 -23 20 -29 0 -19 107 -119 119 -112 14 9 15 143 1 151 -15 9 -13 88 2 83
18 -6 78 -110 78 -135 0 -7 5 -13 10 -13 6 0 10 -6 10 -14 0 -13 35 -83 89
-179 11 -21 21 -43 21 -50 0 -7 9 -19 20 -27 11 -8 20 -19 20 -26 0 -17 29
-70 46 -85 8 -7 24 -32 34 -55 11 -24 24 -46 30 -49 6 -3 19 -25 29 -48 11
-23 29 -52 40 -64 12 -12 21 -29 21 -38 0 -8 5 -15 10 -15 6 0 10 -8 10 -18 0
-11 9 -27 20 -37 11 -10 20 -23 20 -30 0 -7 9 -20 21 -31 11 -10 29 -37 39
-60 11 -22 26 -47 35 -54 8 -7 15 -18 15 -25 0 -6 9 -20 20 -30 11 -10 20 -26
20 -35 0 -26 20 -30 146 -30 l114 0 0 44 c0 25 -4 48 -10 51 -5 3 -10 28 -10
56 0 27 -4 49 -10 49 -5 0 -10 22 -10 49 0 28 -4 53 -10 56 -5 3 -10 24 -10
45 0 21 -4 42 -10 45 -5 3 -10 26 -10 50 0 24 -4 47 -10 50 -5 3 -10 28 -10
54 0 31 -5 53 -15 61 -10 8 -15 30 -15 61 0 26 -4 51 -10 54 -5 3 -10 28 -10
56 0 27 -4 49 -10 49 -5 0 -10 22 -10 49 0 28 -4 53 -10 56 -5 3 -10 28 -10
55 0 27 -4 52 -10 55 -5 3 -10 25 -10 49 0 23 -5 47 -12 54 -6 6 -11 35 -9 65
1 38 -3 57 -14 67 -10 8 -15 29 -15 61 0 26 -4 51 -10 54 -5 3 -10 33 -10 66
0 33 -4 59 -10 59 -6 0 -10 28 -10 65 0 37 -4 65 -10 65 -5 0 -10 22 -10 49 0
28 -4 53 -10 56 -5 3 -10 37 -10 75 0 38 -4 72 -10 75 -5 3 -10 37 -10 74 0
49 -4 72 -15 81 -12 10 -15 36 -15 116 0 63 -4 104 -10 104 -5 0 -10 14 -10
30 0 36 17 39 30 6 5 -13 13 -27 19 -30 13 -8 41 -65 41 -83 0 -7 5 -13 10
-13 6 0 10 -10 10 -23 0 -22 31 -89 70 -152 10 -16 19 -42 19 -57 1 -16 6 -28
11 -28 6 0 10 -9 10 -19 0 -11 5 -23 10 -26 6 -3 10 -14 10 -24 0 -20 47 -118
61 -127 5 -3 9 -14 9 -25 0 -10 5 -19 10 -19 6 0 10 -9 10 -20 0 -11 5 -20 10
-20 6 0 10 -10 10 -23 0 -29 44 -119 70 -142 11 -10 20 -26 20 -37 0 -10 5
-18 10 -18 6 0 10 -9 10 -20 0 -11 5 -20 10 -20 6 0 10 -6 10 -12 0 -14 59
-133 90 -183 10 -16 19 -37 19 -45 1 -9 10 -22 21 -30 11 -8 20 -20 20 -27 0
-7 12 -34 27 -60 14 -26 35 -63 45 -81 10 -18 18 -39 18 -47 0 -8 5 -15 10
-15 6 0 10 -9 10 -20 0 -11 5 -20 10 -20 6 0 10 -7 10 -15 0 -18 18 -52 43
-82 23 -27 67 -112 67 -130 0 -7 5 -13 10 -13 6 0 10 -7 10 -16 0 -9 8 -24 18
-33 9 -9 27 -37 40 -63 13 -26 27 -50 33 -53 5 -4 18 -25 28 -48 11 -23 33
-55 50 -71 17 -17 31 -35 31 -41 0 -7 9 -20 20 -30 11 -10 20 -25 20 -33 0 -7
14 -27 30 -42 17 -15 30 -34 30 -40 0 -7 29 -41 65 -77 l65 -64 77 3 78 3 3
42 c2 27 -3 51 -14 68 -12 19 -15 40 -12 80 3 39 1 59 -9 66 -8 7 -13 33 -13
70 0 32 -4 61 -10 64 -5 3 -10 24 -10 45 0 21 -4 42 -10 45 -5 3 -10 21 -10
40 0 19 -4 37 -10 40 -5 3 -10 24 -10 45 0 21 -4 42 -10 45 -5 3 -10 17 -10
29 0 13 -7 29 -15 36 -9 7 -12 22 -9 39 4 18 0 33 -10 44 -9 8 -16 27 -16 41
0 14 -4 28 -10 31 -5 3 -10 21 -10 40 0 19 -4 37 -10 40 -5 3 -10 19 -10 36 0
16 -4 29 -10 29 -5 0 -10 18 -10 39 0 22 -4 43 -10 46 -5 3 -10 23 -10 44 0
23 -6 44 -15 51 -11 9 -14 22 -10 40 4 18 1 31 -10 40 -10 8 -15 29 -15 61 0
26 -4 51 -10 54 -5 3 -10 33 -10 66 0 33 -4 59 -10 59 -6 0 -10 45 -10 114 0
66 -4 117 -10 121 -5 3 -10 15 -10 26 0 18 8 19 124 19 73 0 127 -4 131 -10 3
-5 19 -10 34 -10 29 0 101 -64 101 -91 0 -8 9 -21 20 -29 11 -8 20 -22 20 -32
0 -10 5 -18 10 -18 6 0 10 -8 10 -18 0 -10 4 -22 9 -28 5 -5 11 -20 14 -34 2
-14 5 219 5 517 1 462 -1 543 -13 553 -10 8 -15 32 -15 71 0 32 -4 61 -10 64
-5 3 -10 33 -10 65 0 32 -4 62 -10 65 -5 3 -10 21 -10 40 0 19 -4 37 -10 40
-5 3 -10 24 -10 45 0 21 -4 42 -10 45 -5 3 -10 21 -10 39 0 19 -7 39 -15 46
-18 15 -20 40 -2 40 19 0 37 -21 37 -44 0 -12 19 -59 42 -106 l43 -84 3 163
c2 136 0 167 -13 181 -8 9 -15 24 -15 33 0 9 -4 17 -10 17 -5 0 -10 9 -10 20
0 11 -4 20 -10 20 -5 0 -10 11 -10 24 0 22 -60 148 -81 170 -5 6 -9 18 -9 28
0 10 -4 18 -10 18 -5 0 -10 9 -10 19 0 11 -4 23 -10 26 -5 3 -10 17 -10 30 0
13 -4 27 -10 30 -5 3 -10 17 -10 30 0 13 -4 27 -10 30 -5 3 -10 19 -10 34 0
16 -7 34 -15 41 -9 7 -13 21 -10 30 3 9 -1 23 -10 30 -10 8 -15 30 -15 61 0
27 -4 49 -10 49 -5 0 -10 17 -10 38 0 47 -44 96 -81 90 -20 -2 -24 -10 -27
-45 -2 -24 -7 -43 -13 -43 -12 0 -12 -137 1 -145 6 -3 10 -51 10 -109 0 -74 4
-107 13 -115 10 -7 12 -27 9 -66 -3 -40 0 -62 12 -80 10 -15 16 -45 16 -80 0
-30 5 -55 10 -55 6 0 10 -22 10 -49 0 -28 5 -53 10 -56 6 -3 10 -33 10 -65 0
-32 5 -62 10 -65 6 -3 10 -24 10 -46 0 -21 5 -39 10 -39 6 0 10 -22 10 -49 0
-31 5 -53 15 -61 9 -8 13 -23 10 -39 -3 -16 2 -36 10 -47 8 -10 15 -38 15 -61
0 -23 5 -45 10 -48 6 -3 10 -28 10 -55 0 -27 5 -52 10 -55 6 -3 10 -21 10 -40
0 -19 5 -37 10 -40 6 -3 10 -24 10 -45 0 -21 5 -42 10 -45 6 -3 10 -26 10 -51
0 -28 6 -52 16 -61 10 -10 13 -25 9 -43 -4 -18 -1 -31 10 -40 16 -13 21 -75 6
-84 -11 -7 -101 89 -101 108 0 9 -4 16 -10 16 -5 0 -10 8 -10 18 0 10 -4 22
-9 28 -21 23 -61 107 -61 129 0 14 -4 25 -10 25 -5 0 -10 9 -10 20 0 11 -4 20
-10 20 -5 0 -10 13 -10 29 0 17 -4 33 -10 36 -5 3 -10 16 -10 29 0 12 -5 27
-11 33 -6 6 -12 23 -14 39 -1 15 -8 30 -14 32 -6 2 -11 17 -11 32 0 16 -4 32
-10 35 -5 3 -10 17 -10 30 0 13 -4 27 -10 30 -5 3 -10 24 -10 46 0 21 -4 39
-10 39 -5 0 -10 13 -10 29 0 17 -4 33 -10 36 -5 3 -10 17 -10 29 0 13 -7 29
-16 37 -10 8 -14 22 -10 40 3 15 -1 34 -9 45 -8 11 -15 33 -15 51 0 17 -4 35
-10 38 -5 3 -10 19 -10 36 0 16 -4 29 -10 29 -5 0 -10 18 -10 39 0 22 -4 43
-10 46 -5 3 -10 19 -10 36 0 16 -4 29 -10 29 -5 0 -10 17 -10 39 0 23 -6 44
-16 52 -8 7 -13 21 -11 30 3 10 -1 23 -9 30 -8 6 -14 29 -14 50 0 21 -4 41
-10 44 -5 3 -10 17 -10 30 0 13 -4 27 -10 30 -5 3 -10 17 -10 30 0 13 -4 27
-10 30 -5 3 -10 18 -11 33 0 15 -9 41 -19 57 -11 17 -28 48 -39 71 -11 22 -27
47 -36 54 -8 7 -15 21 -15 31 0 22 -11 24 -28 7 -15 -15 -17 -504 -2 -513 6
-3 10 -46 10 -95 0 -49 5 -92 10 -95 6 -3 10 -48 10 -101 0 -56 4 -94 10 -94
6 0 10 -38 10 -94 0 -53 4 -98 10 -101 6 -3 10 -37 10 -74 0 -45 5 -72 13 -80
10 -7 12 -27 9 -66 -3 -40 0 -61 12 -80 12 -18 16 -44 15 -86 -1 -35 3 -65 9
-71 7 -7 12 -41 12 -79 0 -37 5 -71 10 -74 6 -3 10 -33 10 -66 0 -33 4 -59 10
-59 6 0 10 -26 10 -59 0 -33 5 -63 10 -66 6 -3 10 -32 10 -64 0 -31 5 -62 12
-69 7 -7 11 -36 10 -66 -1 -37 4 -58 14 -66 10 -9 14 -33 14 -81 0 -37 5 -71
10 -74 6 -3 10 -33 10 -65 0 -32 5 -62 10 -65 6 -3 10 -33 10 -66 0 -33 4 -59
10 -59 6 0 10 -22 10 -49 0 -28 5 -53 10 -56 6 -3 10 -28 10 -54 0 -29 6 -53
14 -60 9 -8 12 -25 9 -54 -4 -31 -1 -46 11 -56 10 -9 16 -29 16 -57 0 -23 5
-46 10 -49 6 -3 10 -24 10 -45 0 -21 5 -42 10 -45 6 -3 10 -17 10 -30 0 -13 5
-27 10 -30 6 -3 10 -24 10 -46 0 -21 5 -39 10 -39 6 0 10 -13 10 -29 0 -16 7
-34 15 -41 9 -7 13 -21 10 -30 -3 -9 1 -23 10 -30 10 -8 15 -30 15 -61 0 -26
5 -51 10 -54 6 -3 10 -28 10 -56 0 -27 5 -49 10 -49 6 0 10 -18 10 -41 0 -29
-4 -39 -12 -35 -7 3 -21 9 -30 12 -10 4 -18 10 -18 15 0 5 -16 26 -35 48 -19
21 -35 43 -35 48 0 5 -14 22 -31 39 -17 16 -39 47 -49 70 -11 22 -26 47 -35
54 -8 7 -15 21 -15 31 0 11 -4 19 -10 19 -5 0 -10 8 -10 18 0 11 -9 27 -20 37
-12 11 -34 47 -51 82 -16 34 -34 65 -38 68 -5 3 -24 35 -43 72 -18 38 -36 70
-40 71 -5 2 -8 9 -8 15 0 15 -113 241 -122 245 -5 2 -8 12 -8 22 0 9 -7 23
-15 30 -8 7 -27 37 -42 69 -15 31 -37 73 -50 93 -13 21 -23 44 -23 53 0 8 -4
15 -10 15 -5 0 -10 6 -10 14 0 15 -85 185 -101 201 -5 5 -9 17 -9 27 0 10 -4
18 -10 18 -5 0 -10 9 -10 20 0 11 -4 20 -10 20 -5 0 -10 6 -10 13 0 16 -41 99
-60 121 -7 9 -10 22 -7 31 4 8 0 21 -8 29 -8 8 -15 22 -15 30 0 9 -4 16 -10
16 -5 0 -10 7 -10 15 0 8 -9 30 -20 50 -11 20 -20 44 -20 55 0 10 -4 22 -10
25 -5 3 -10 19 -10 35 0 16 -4 31 -9 35 -14 8 -41 65 -41 86 0 10 -4 21 -10
24 -5 3 -10 17 -10 30 0 13 -4 27 -10 30 -5 3 -10 24 -10 45 0 21 -4 42 -10
45 -5 3 -10 16 -10 29 0 12 -5 27 -12 34 -7 7 -11 27 -10 46 2 20 -4 38 -13
46 -8 7 -15 27 -15 46 0 18 -4 36 -10 39 -5 3 -10 33 -10 65 0 32 -4 62 -10
65 -5 3 -10 28 -10 56 0 27 -4 49 -10 49 -6 0 -10 28 -10 65 0 37 -4 65 -10
65 -6 0 -10 26 -10 58 0 32 -5 63 -11 69 -7 7 -11 51 -10 121 2 87 -1 111 -14
122 -13 10 -15 47 -15 239 -1 226 -1 226 -25 254 l-25 28 -26 -26 c-25 -25
-27 -33 -25 -104 2 -60 -2 -81 -14 -91 -23 -19 -23 -521 0 -540 13 -11 16 -45
15 -218 -1 -134 2 -208 9 -215 7 -7 11 -65 11 -153 0 -85 4 -145 10 -149 6 -4
10 -58 10 -130 0 -72 4 -126 10 -130 6 -4 10 -55 10 -120 0 -65 4 -116 10
-120 6 -4 10 -53 10 -115 0 -62 4 -111 10 -115 6 -3 10 -41 10 -83 1 -52 5
-83 15 -96 10 -14 15 -45 15 -98 0 -45 4 -78 10 -78 6 0 10 -32 10 -75 0 -43
4 -75 10 -75 6 0 10 -18 10 -39 0 -22 5 -43 10 -46 6 -3 10 -17 10 -30 0 -13
5 -27 10 -30 6 -3 10 -24 10 -45 0 -21 5 -42 10 -45 6 -3 10 -21 10 -39 0 -19
7 -39 15 -46 9 -7 15 -29 15 -51 0 -21 5 -41 10 -44 6 -3 10 -21 10 -40 0 -19
5 -37 10 -40 6 -3 10 -28 10 -55 0 -27 5 -52 10 -55 6 -3 10 -28 10 -56 0 -27
5 -49 10 -49 6 0 10 -22 10 -49 0 -28 5 -53 10 -56 15 -9 13 -225 -2 -225 -15
0 -68 50 -68 65 0 6 -14 24 -30 40 -17 16 -42 53 -57 82 -14 29 -29 53 -34 53
-5 0 -9 9 -9 20 0 11 -4 20 -10 20 -5 0 -10 6 -10 14 0 8 -10 27 -23 43 -13
15 -44 71 -71 123 -26 52 -51 102 -56 110 -28 50 -200 407 -200 416 0 6 -16
42 -35 80 -19 37 -35 73 -35 80 0 7 -13 38 -30 69 -16 31 -30 63 -30 71 0 8
-4 14 -10 14 -5 0 -10 13 -10 28 0 15 -4 32 -9 38 -21 23 -61 107 -61 129 0
14 -4 25 -10 25 -5 0 -10 13 -10 29 0 17 -4 33 -10 36 -5 3 -10 17 -10 30 0
13 -4 27 -10 30 -5 3 -10 17 -10 29 0 13 -7 29 -15 36 -9 7 -13 20 -10 29 3
10 -2 26 -10 37 -8 10 -15 29 -15 41 0 12 -4 25 -10 28 -5 3 -10 19 -10 36 0
16 -4 29 -10 29 -6 0 -10 26 -10 59 0 33 -4 63 -10 66 -5 3 -10 33 -10 65 0
32 -4 62 -10 65 -5 3 -10 20 -10 36 0 17 -5 40 -12 52 -6 12 -11 38 -9 58 1
22 -3 40 -13 48 -10 8 -16 29 -16 52 0 22 -4 39 -10 39 -5 0 -10 13 -10 29 0
17 -4 33 -10 36 -5 3 -10 17 -10 30 0 13 -4 27 -10 30 -5 3 -10 24 -10 45 0
21 -4 42 -10 45 -5 3 -10 37 -10 74 0 37 -5 72 -11 78 -7 7 -11 49 -11 106 1
72 -3 99 -14 107 -11 10 -14 42 -14 146 0 78 -4 135 -10 139 -6 3 -10 52 -10
110 0 58 -4 107 -10 110 -5 3 -10 33 -10 66 0 33 -4 59 -10 59 -5 0 -10 13
-10 28 0 28 -44 82 -66 82 -18 0 -44 -35 -44 -58 0 -11 -4 -24 -10 -27 -6 -4
-10 -73 -10 -175 0 -102 4 -171 10 -175 6 -3 10 -48 10 -101 0 -56 4 -94 10
-94 6 0 10 -30 10 -69 0 -39 5 -73 10 -76 6 -3 10 -37 10 -74 0 -39 5 -72 12
-79 8 -8 11 -37 9 -83 -2 -55 1 -75 15 -90 10 -11 14 -25 10 -36 -6 -13 -27 4
-111 87 -58 58 -105 112 -105 120 0 8 -9 21 -20 28 -11 7 -20 19 -20 28 0 8
-7 22 -15 30 -12 12 -15 43 -15 145 0 106 3 131 15 135 13 5 15 35 15 184 0
109 4 181 10 185 16 10 13 185 -4 191 -45 17 -133 -92 -135 -167 -1 -20 -8
-42 -16 -49 -10 -8 -15 -31 -15 -71 0 -32 -4 -61 -10 -64 -6 -4 -10 -63 -10
-144 0 -135 -11 -191 -36 -191 -42 0 -204 123 -204 155 0 6 -13 24 -30 40 -16
16 -30 34 -30 40 0 7 -9 20 -20 30 -11 10 -20 23 -20 30 0 7 -9 20 -20 30 -22
20 -50 71 -50 92 0 7 -4 13 -10 13 -5 0 -10 9 -10 20 0 11 -4 20 -10 20 -5 0
-10 6 -10 13 0 21 -28 72 -50 92 -11 10 -20 24 -20 30 0 7 -7 19 -16 26 -9 7
-20 23 -25 36 -11 29 -49 31 -74 3 -14 -16 -31 -20 -82 -20 -35 0 -63 4 -63
10 0 6 -11 10 -25 10 -13 0 -40 9 -60 20 -41 23 -125 28 -125 7z m130 -237 c0
-5 9 -10 20 -10 11 0 20 -4 20 -10 0 -5 7 -10 16 -10 22 0 114 -90 114 -112 0
-10 5 -18 10 -18 6 0 10 -7 10 -15 0 -8 9 -30 20 -50 11 -20 20 -44 20 -54 0
-10 7 -24 16 -32 8 -7 13 -21 11 -31 -3 -10 1 -25 9 -32 8 -8 14 -26 14 -40 0
-14 5 -28 10 -31 6 -3 10 -28 10 -56 0 -27 5 -49 10 -49 6 0 10 -22 10 -49 0
-28 5 -53 10 -56 6 -3 10 -32 10 -63 0 -31 6 -64 13 -73 7 -10 11 -41 9 -82
l-4 -67 -48 0 c-27 0 -52 5 -55 10 -3 6 -17 10 -30 10 -13 0 -27 5 -30 10 -3
6 -24 10 -45 10 -21 0 -41 4 -45 9 -8 14 -65 41 -85 41 -9 0 -28 13 -43 28
-24 25 -27 36 -27 94 0 37 -4 70 -10 73 -5 3 -10 21 -10 40 0 19 5 37 10 40 6
4 10 92 10 231 0 143 4 224 10 224 6 0 10 28 10 65 0 51 3 65 15 65 8 0 15 -4
15 -10z m500 -455 c19 -19 39 -35 44 -35 14 0 166 -152 166 -166 0 -6 9 -19
19 -28 11 -10 22 -28 25 -42 4 -13 11 -24 16 -24 6 0 10 -9 10 -19 0 -11 5
-23 10 -26 6 -3 10 -21 10 -40 0 -19 5 -37 10 -40 6 -4 10 -102 10 -260 0
-158 4 -256 10 -260 6 -4 10 -68 10 -160 0 -92 4 -156 10 -160 6 -4 10 -58 10
-129 0 -74 4 -126 11 -133 8 -8 15 -103 10 -147 -3 -29 -61 61 -61 95 0 10 -4
21 -10 24 -5 3 -10 19 -10 35 0 16 -4 32 -10 35 -5 3 -10 17 -10 29 0 13 -7
29 -15 36 -10 8 -15 26 -13 48 1 21 -3 37 -10 40 -7 2 -12 17 -12 32 0 16 -4
32 -10 35 -5 3 -10 21 -10 40 0 19 -4 37 -10 40 -5 3 -10 24 -10 45 0 21 -4
42 -10 45 -5 3 -10 21 -10 40 0 19 -4 37 -10 40 -5 3 -10 23 -10 44 0 23 -6
44 -16 52 -10 8 -14 26 -13 51 2 21 -2 43 -9 50 -7 7 -12 33 -12 59 0 26 -4
51 -10 54 -5 3 -10 28 -10 55 0 27 -4 52 -10 55 -5 3 -10 21 -10 40 0 19 -4
37 -10 40 -5 3 -10 28 -10 55 0 27 -4 52 -10 55 -5 3 -10 28 -10 54 0 32 -5
53 -16 62 -12 10 -15 25 -12 61 4 33 1 52 -8 59 -9 7 -14 33 -14 70 0 32 -4
61 -10 64 -12 7 -14 65 -2 65 4 0 23 -16 42 -35z m671 -692 c93 -93 169 -175
169 -183 0 -9 9 -22 20 -30 11 -8 20 -22 20 -32 0 -9 4 -19 9 -22 16 -10 81
-150 81 -174 0 -12 5 -22 10 -22 6 0 10 -13 10 -29 0 -17 5 -33 10 -36 6 -3
10 -21 10 -38 0 -18 7 -41 16 -52 9 -12 12 -30 9 -46 -4 -17 -1 -30 10 -39 8
-7 15 -27 15 -46 0 -18 5 -36 10 -39 6 -3 10 -28 10 -54 0 -26 5 -52 12 -59 7
-7 8 -12 3 -12 -13 0 -125 112 -125 125 0 6 -58 69 -130 140 -71 71 -130 134
-130 140 0 6 -47 58 -105 115 -58 58 -112 118 -120 134 -12 22 -15 73 -15 221
0 185 2 205 23 205 5 0 85 -75 178 -167z m2245 -21 c6 -12 18 -30 27 -40 10
-10 17 -23 17 -29 0 -6 7 -16 15 -23 8 -7 15 -21 15 -31 0 -11 5 -19 10 -19 6
0 10 -6 10 -13 0 -20 45 -106 69 -131 12 -13 19 -30 16 -38 -3 -8 1 -21 10
-28 8 -7 15 -25 15 -41 0 -15 5 -31 10 -34 6 -4 10 -53 10 -114 0 -91 -3 -110
-17 -122 -35 -29 -70 -40 -114 -37 l-44 3 0 47 c-1 26 -6 53 -13 60 -7 7 -12
31 -12 54 0 24 -4 46 -10 49 -5 3 -10 33 -10 65 0 32 -4 62 -10 65 -5 3 -10
37 -10 75 0 38 -4 72 -10 75 -16 10 -13 238 3 233 6 -3 17 -14 23 -26z"/>
<path d="M10573 13215 c-16 -17 -18 -155 -3 -155 6 0 10 -28 10 -65 0 -37 4
-65 10 -65 6 0 10 -12 11 -27 0 -16 9 -41 19 -58 37 -59 50 -88 50 -112 0 -12
5 -23 10 -23 6 0 10 -9 10 -19 0 -11 5 -23 10 -26 6 -3 10 -15 10 -25 0 -18
42 -104 61 -124 5 -6 9 -23 9 -38 0 -15 5 -28 10 -28 6 0 10 -6 10 -13 0 -18
64 -144 87 -170 25 -30 43 -64 43 -82 0 -8 5 -15 10 -15 6 0 10 -7 10 -15 0
-8 9 -30 20 -50 11 -20 20 -42 20 -51 0 -8 11 -32 25 -54 22 -34 25 -51 25
-124 l0 -85 -32 -15 c-17 -9 -50 -16 -74 -16 -24 0 -46 -4 -49 -10 -3 -5 -15
-10 -26 -10 -10 0 -19 5 -19 10 0 6 -8 10 -18 10 -21 0 -132 109 -132 131 0 8
-9 21 -20 29 -11 8 -20 20 -20 26 0 7 -10 25 -23 41 -13 15 -31 45 -40 65 -10
20 -22 40 -27 43 -6 3 -19 25 -29 48 -11 24 -29 51 -40 61 -12 11 -21 27 -21
38 0 10 -4 18 -10 18 -5 0 -10 9 -10 20 0 11 -4 20 -10 20 -5 0 -10 8 -10 17
0 9 -7 25 -17 35 -19 21 -30 41 -72 124 -17 34 -38 67 -46 74 -8 7 -15 21 -15
31 0 11 -4 19 -10 19 -5 0 -10 9 -10 19 0 11 -4 23 -10 26 -5 3 -23 35 -40 70
-17 35 -35 67 -40 70 -5 3 -26 40 -46 81 -20 42 -43 78 -50 81 -8 3 -14 11
-14 18 0 18 -28 71 -45 85 -8 7 -15 18 -15 24 0 7 -16 27 -35 46 -19 19 -35
39 -35 46 0 7 -13 19 -29 27 -27 13 -31 13 -45 -2 -22 -24 -23 -163 -1 -181 9
-8 15 -29 15 -56 0 -23 5 -46 10 -49 6 -3 10 -24 10 -45 0 -21 5 -42 10 -45 6
-3 10 -17 10 -30 0 -13 5 -27 10 -30 6 -3 10 -19 10 -36 0 -16 5 -29 10 -29 6
0 10 -15 10 -33 0 -34 23 -91 41 -102 5 -4 9 -17 9 -30 0 -13 5 -27 10 -30 6
-3 10 -19 10 -36 0 -16 5 -29 10 -29 6 0 10 -13 10 -29 0 -17 5 -33 10 -36 6
-3 10 -17 10 -30 0 -13 5 -27 10 -30 6 -3 10 -17 10 -31 0 -14 7 -32 15 -40 8
-8 12 -21 8 -30 -3 -8 1 -22 8 -32 26 -32 39 -62 39 -87 0 -14 5 -25 10 -25 6
0 10 -13 10 -29 0 -17 5 -33 10 -36 6 -3 10 -21 10 -40 0 -19 5 -37 10 -40 6
-3 10 -28 10 -54 0 -29 6 -53 14 -60 7 -6 11 -22 8 -36 -2 -14 1 -32 8 -40 15
-18 -7 -75 -30 -75 -9 0 -22 -9 -30 -20 -8 -11 -26 -20 -41 -20 -15 0 -32 -7
-39 -15 -7 -8 -16 -13 -20 -10 -4 3 -13 -2 -20 -10 -7 -8 -23 -15 -36 -15 -12
0 -26 -4 -29 -10 -3 -5 -19 -10 -36 -10 -16 0 -29 -4 -29 -10 0 -5 -22 -10
-49 -10 -28 0 -53 -4 -56 -10 -3 -5 -24 -10 -45 -10 -21 0 -42 -4 -45 -10 -3
-5 -21 -10 -40 -10 -19 0 -37 -4 -40 -10 -9 -15 -230 -13 -258 2 -31 18 -157
140 -157 153 0 6 -16 26 -35 45 -19 19 -35 41 -35 50 0 8 -9 21 -20 28 -11 7
-20 21 -20 31 0 10 -6 21 -14 24 -8 3 -26 30 -40 61 -14 30 -30 57 -35 61 -6
3 -28 43 -51 88 -22 45 -45 89 -49 97 -5 8 -26 50 -46 93 -20 42 -41 77 -47
77 -6 0 -8 -58 -6 -154 3 -144 5 -156 26 -178 12 -14 22 -31 22 -39 0 -8 9
-21 20 -29 11 -8 20 -22 20 -30 0 -9 11 -27 25 -40 14 -13 25 -29 25 -35 0 -6
14 -24 30 -40 17 -16 30 -34 30 -40 0 -6 11 -22 25 -35 14 -13 25 -29 25 -36
0 -6 7 -17 15 -24 17 -14 45 -67 45 -87 0 -7 5 -13 10 -13 6 0 10 -8 10 -19 0
-10 6 -23 13 -29 8 -7 11 -25 9 -47 l-4 -35 -79 0 c-43 0 -81 -4 -84 -10 -3
-5 -19 -10 -35 -10 -16 0 -32 5 -35 10 -3 6 -17 10 -31 10 -32 0 -51 19 -56
55 -2 16 -9 30 -15 33 -10 3 -13 -90 -13 -445 0 -378 2 -452 15 -477 8 -15 15
-39 15 -52 0 -13 5 -24 10 -24 6 0 10 -9 10 -19 0 -11 5 -23 10 -26 6 -3 10
-17 10 -30 0 -13 5 -27 10 -30 6 -3 10 -16 10 -28 0 -12 7 -31 15 -41 8 -11
12 -28 9 -38 -3 -11 1 -30 10 -43 9 -13 16 -32 16 -42 0 -23 -49 -73 -72 -73
-10 0 -18 -4 -18 -10 0 -5 -8 -10 -19 -10 -20 0 -31 -34 -31 -95 0 -40 39 -67
70 -47 11 7 33 12 48 12 16 0 37 9 47 20 10 11 29 20 43 20 14 0 34 8 44 17
17 15 20 15 48 -12 17 -16 30 -35 30 -43 0 -7 6 -20 14 -28 8 -7 12 -22 9 -32
-2 -10 3 -24 11 -31 9 -8 16 -29 16 -50 0 -30 -9 -45 -51 -89 -27 -28 -55 -52
-62 -52 -15 0 -127 -111 -127 -125 0 -7 -11 -22 -25 -35 -15 -14 -25 -35 -25
-52 0 -15 -4 -28 -10 -28 -5 0 -10 -9 -10 -19 0 -11 -4 -23 -10 -26 -5 -3 -10
-28 -10 -56 0 -27 -4 -49 -10 -49 -18 0 -11 -76 8 -93 24 -22 35 -21 57 3 10
11 23 20 30 20 6 0 22 11 35 25 13 14 29 25 35 25 7 0 20 9 30 20 10 11 23 20
30 20 7 0 20 9 30 20 10 11 23 20 30 20 6 0 22 11 35 25 13 14 32 25 42 25 10
0 18 5 18 10 0 6 8 10 19 10 10 0 24 7 31 15 7 9 32 25 54 36 60 30 84 44 104
62 10 10 26 17 35 17 9 0 17 5 17 10 0 6 9 10 20 10 11 0 20 5 20 10 0 6 7 10
15 10 17 0 50 17 78 39 15 13 20 12 41 -8 15 -14 22 -29 19 -45 -3 -14 5 -40
21 -65 14 -22 26 -50 26 -60 0 -11 9 -36 20 -56 11 -20 20 -42 20 -49 0 -23
28 -71 60 -101 16 -16 30 -35 30 -43 0 -7 23 -36 51 -63 l50 -49 826 0 c767 0
827 1 856 18 45 25 77 54 77 69 0 7 25 37 55 67 30 29 55 59 55 65 0 14 20 50
43 78 29 33 87 154 87 180 0 13 5 23 10 23 6 0 10 17 10 38 0 21 5 43 12 50 6
6 11 35 9 65 -1 39 2 57 14 67 14 11 16 35 14 154 -1 99 1 141 9 144 7 2 12
-1 12 -7 0 -6 9 -11 20 -11 11 0 20 -4 20 -9 0 -5 24 -21 53 -36 28 -14 69
-36 89 -47 37 -21 38 -21 58 -3 25 22 24 51 0 90 -11 17 -27 45 -36 63 -16 31
-16 34 1 52 14 16 31 20 76 20 32 0 61 -4 64 -10 3 -5 42 -10 85 -10 43 0 82
-4 85 -10 3 -5 24 -10 45 -10 21 0 42 -4 45 -10 3 -5 16 -10 29 -10 12 0 33
-11 46 -25 13 -14 29 -25 37 -25 7 0 13 -6 13 -13 0 -8 11 -24 25 -37 15 -14
25 -35 25 -52 0 -15 5 -28 10 -28 6 0 10 -18 10 -39 0 -22 -4 -43 -10 -46 -5
-3 -10 -28 -10 -56 0 -27 -4 -49 -10 -49 -5 0 -10 -9 -10 -19 0 -11 -5 -23
-10 -26 -6 -3 -19 -26 -30 -50 -11 -24 -24 -46 -29 -49 -5 -3 -42 -72 -82
-153 -40 -82 -79 -156 -87 -166 -17 -19 -36 -51 -51 -82 -5 -12 -16 -27 -25
-34 -9 -7 -16 -22 -16 -32 0 -11 -4 -19 -10 -19 -5 0 -10 -9 -10 -19 0 -11 -4
-23 -10 -26 -23 -14 -7 -25 34 -25 40 0 50 5 95 49 28 27 51 55 51 62 0 7 16
27 35 46 19 19 35 40 35 47 0 7 14 25 30 41 17 16 30 34 30 40 0 6 11 22 25
35 14 13 25 29 25 35 0 7 9 20 20 30 11 10 20 23 20 30 0 7 9 20 20 30 11 10
20 23 20 30 0 6 11 22 25 35 14 13 25 31 25 40 0 8 9 22 20 30 11 8 20 22 20
31 0 9 9 24 20 34 11 10 20 24 20 32 0 7 6 13 13 13 17 0 187 -172 187 -189 0
-7 14 -26 30 -41 17 -15 30 -34 30 -42 0 -14 70 -88 83 -88 4 0 7 9 7 20 0 11
5 20 10 20 6 0 10 24 10 54 0 30 -4 58 -10 61 -5 3 -10 15 -10 25 0 10 -15 47
-34 82 -22 42 -32 73 -29 89 3 16 -1 30 -11 38 -9 8 -16 28 -16 47 0 18 -4 36
-10 39 -6 4 -10 54 -10 119 0 112 0 112 30 141 33 32 60 78 60 104 0 19 -179
201 -198 201 -17 0 -82 66 -82 83 0 7 -4 17 -9 23 -21 23 -61 107 -61 129 0
14 -4 25 -10 25 -5 0 -10 9 -10 20 0 11 -4 20 -10 20 -5 0 -10 7 -10 15 0 16
-17 50 -39 77 -7 10 -11 24 -8 32 4 9 2 18 -3 21 -12 7 -40 65 -40 82 0 7 -4
13 -10 13 -5 0 -10 11 -10 25 0 13 -9 40 -20 60 -11 20 -20 42 -20 51 0 8 -11
32 -25 54 -14 22 -25 46 -25 55 0 8 -4 15 -10 15 -5 0 -10 11 -10 25 0 13 -9
40 -20 60 -11 20 -20 47 -20 60 0 14 -4 25 -9 25 -5 0 -11 12 -13 28 -3 15 -9
36 -13 47 -5 13 7 6 34 -20 22 -21 41 -44 41 -50 0 -6 20 -31 45 -55 25 -24
45 -49 45 -55 0 -6 14 -24 30 -40 17 -16 30 -35 30 -43 0 -8 11 -25 25 -38 14
-13 25 -28 25 -34 0 -6 13 -25 30 -43 16 -18 30 -37 30 -43 0 -5 16 -25 35
-44 19 -19 35 -39 35 -45 0 -7 9 -20 20 -30 11 -10 20 -23 20 -30 0 -7 9 -20
20 -30 11 -10 20 -23 20 -30 0 -6 11 -22 25 -35 14 -13 25 -31 25 -40 0 -8 9
-22 20 -30 11 -8 20 -21 20 -30 0 -9 9 -22 20 -30 11 -8 20 -22 20 -30 0 -9
16 -31 35 -50 19 -19 35 -39 35 -46 0 -6 7 -17 15 -24 9 -7 25 -32 35 -55 10
-23 26 -47 34 -54 18 -15 46 -68 46 -88 0 -7 5 -13 10 -13 6 0 10 -8 10 -18 0
-11 9 -27 20 -37 12 -10 20 -31 20 -49 0 -17 7 -39 14 -49 9 -11 14 -49 15
-105 1 -48 6 -88 11 -90 16 -6 13 -651 -2 -671 -9 -11 -12 -49 -10 -128 l3
-113 50 0 49 0 0 159 c0 132 3 161 16 172 13 11 15 35 13 151 -2 97 1 142 9
150 7 7 12 33 12 59 0 26 5 51 10 54 6 3 10 17 10 30 0 38 19 40 54 6 18 -17
35 -31 39 -31 4 0 7 70 7 156 l0 156 -40 40 c-22 22 -40 46 -40 52 0 6 -25 36
-55 66 -30 30 -55 59 -55 65 0 6 -13 24 -30 40 -16 16 -30 34 -30 40 0 6 -16
26 -35 45 -19 19 -35 39 -35 45 0 6 -13 24 -30 40 -16 16 -30 34 -30 40 0 7
-16 28 -35 48 -19 20 -35 42 -35 49 0 8 -9 20 -20 28 -11 8 -20 22 -20 30 0 9
-16 31 -35 50 -19 19 -35 39 -35 45 0 7 -9 20 -20 30 -11 10 -20 23 -20 30 0
7 -9 20 -20 30 -11 10 -20 23 -20 30 0 6 -16 26 -35 45 -19 19 -35 42 -35 51
0 9 -6 19 -14 22 -8 3 -22 22 -31 41 -10 20 -21 36 -26 36 -5 0 -9 6 -9 14 0
8 -11 28 -25 44 -14 17 -25 34 -25 40 0 5 -7 15 -15 22 -9 7 -24 32 -35 54
-10 23 -28 50 -39 60 -12 11 -21 24 -21 31 0 7 -9 20 -20 30 -11 10 -20 26
-20 37 0 10 -4 18 -10 18 -5 0 -10 7 -10 15 0 18 -18 52 -43 82 -29 33 -67
114 -67 140 0 22 2 23 90 23 54 0 99 5 113 13 66 36 102 97 58 97 -11 0 -23 5
-26 10 -3 6 -21 10 -40 10 -19 0 -37 5 -40 10 -3 6 -19 10 -36 10 -16 0 -29 5
-29 10 0 6 -13 10 -29 10 -16 0 -34 7 -41 15 -8 10 -30 15 -61 15 -27 0 -49 5
-49 10 0 6 -27 10 -60 10 l-61 0 -69 71 c-39 39 -70 77 -70 84 0 7 -7 18 -15
25 -8 7 -29 41 -45 75 -16 34 -36 68 -45 75 -17 14 -45 67 -45 87 0 7 -4 13
-10 13 -5 0 -10 9 -10 20 0 11 -4 20 -10 20 -5 0 -10 7 -10 15 0 16 -17 50
-39 77 -7 10 -11 24 -8 32 3 8 -1 20 -9 26 -8 7 -14 21 -14 31 0 11 -4 19 -10
19 -5 0 -10 9 -10 20 0 11 -4 20 -10 20 -5 0 -10 6 -10 13 0 14 -38 90 -70
142 -10 17 -19 38 -19 48 -1 9 -5 17 -11 17 -5 0 -10 9 -10 20 0 11 -4 20 -10
20 -5 0 -10 6 -10 13 0 21 -49 113 -70 132 -11 10 -20 23 -20 30 0 15 -32 45
-48 45 -7 0 -12 -15 -12 -35 0 -19 5 -35 10 -35 6 0 10 -13 10 -29 0 -17 5
-33 10 -36 6 -3 10 -21 10 -40 0 -19 5 -37 10 -40 6 -3 10 -17 10 -31 0 -14 7
-32 15 -40 8 -8 12 -21 8 -30 -3 -8 1 -22 8 -32 26 -32 39 -62 39 -87 0 -14 5
-25 10 -25 6 0 10 -11 10 -25 0 -13 9 -40 20 -60 11 -20 20 -43 21 -53 0 -9 9
-30 20 -47 10 -16 21 -37 25 -45 3 -8 19 -42 35 -74 16 -32 29 -67 29 -77 0
-10 5 -21 10 -24 6 -3 10 -15 10 -25 0 -10 3 -20 8 -22 10 -4 62 -110 62 -125
0 -7 9 -28 20 -48 11 -20 20 -47 20 -60 0 -14 5 -25 10 -25 6 0 10 -7 10 -15
0 -8 9 -30 20 -50 25 -45 25 -45 -4 -45 -14 0 -28 -4 -31 -10 -3 -5 -19 -10
-35 -10 -16 0 -32 -4 -35 -10 -3 -5 -25 -10 -49 -10 -23 0 -47 -5 -54 -12 -8
-8 -45 -11 -112 -9 -80 2 -105 -1 -129 -15 -27 -16 -30 -16 -46 -1 -13 13 -36
17 -105 17 -49 0 -92 5 -95 10 -3 6 -17 10 -30 10 -13 0 -27 5 -30 10 -3 6
-17 10 -31 10 -17 0 -46 21 -94 69 -39 38 -70 75 -70 83 0 8 -20 34 -45 58
-25 24 -45 49 -45 55 0 6 -13 24 -30 40 -16 16 -30 33 -30 38 0 10 -27 47 -77
106 -18 21 -33 43 -33 48 0 5 -13 22 -30 38 -16 16 -30 34 -30 40 0 6 -11 22
-25 35 -14 13 -25 31 -25 40 0 8 -9 22 -20 30 -11 8 -20 19 -20 26 0 17 -29
70 -46 85 -8 7 -24 32 -34 55 -11 24 -24 45 -29 49 -11 6 -41 63 -41 77 0 5
-7 16 -16 25 -8 9 -13 22 -9 31 3 8 0 21 -6 29 -18 21 -79 145 -79 160 0 7 -4
13 -10 13 -5 0 -10 8 -10 18 0 10 -5 23 -11 29 -6 6 -16 21 -23 34 -14 28 -27
32 -43 14z m-313 -959 c0 -6 18 -30 40 -51 22 -21 40 -45 40 -52 0 -8 16 -27
35 -44 19 -17 35 -39 35 -48 0 -9 9 -23 20 -31 11 -8 20 -22 20 -31 0 -9 7
-23 16 -30 9 -7 20 -22 25 -34 14 -30 33 -61 48 -79 8 -9 25 -38 38 -63 17
-35 20 -49 12 -60 -13 -15 -85 -18 -94 -3 -3 6 -13 10 -21 10 -21 0 -84 60
-84 80 0 9 -11 27 -25 40 -14 13 -25 29 -25 37 0 7 -4 13 -10 13 -5 0 -10 11
-10 25 0 13 -9 40 -20 60 -11 20 -20 51 -20 70 0 18 -4 37 -10 40 -5 3 -10 21
-10 39 0 19 -7 39 -15 46 -15 12 -21 71 -9 83 9 9 24 -2 24 -17z m960 -321
c17 -21 5 -31 -15 -12 -8 9 -15 18 -15 21 0 11 18 6 30 -9z m30 -55 c0 -5 -5
-10 -11 -10 -5 0 -7 5 -4 10 3 6 8 10 11 10 2 0 4 -4 4 -10z m1133 -177 c42
-23 87 -64 87 -79 0 -6 7 -17 15 -24 21 -17 45 -69 45 -96 0 -12 3 -24 8 -26
11 -5 62 -111 62 -130 0 -9 5 -20 10 -23 6 -3 10 -19 10 -36 0 -16 5 -29 10
-29 6 0 10 -9 10 -20 0 -11 5 -20 10 -20 6 0 10 -11 10 -23 0 -26 25 -83 41
-92 5 -4 9 -17 9 -30 0 -13 5 -27 10 -30 6 -3 10 -17 10 -30 0 -14 9 -40 20
-60 11 -20 20 -44 20 -55 0 -10 5 -22 10 -25 6 -3 10 -19 10 -35 0 -15 3 -30
8 -32 10 -4 42 -67 42 -84 0 -7 9 -29 20 -49 11 -20 20 -47 20 -60 0 -14 5
-25 10 -25 6 0 10 -13 10 -29 0 -17 5 -33 10 -36 6 -3 10 -17 10 -29 0 -13 7
-29 15 -36 9 -7 13 -20 10 -27 -3 -8 2 -24 10 -36 8 -12 15 -36 15 -54 0 -17
5 -35 10 -38 6 -3 10 -24 10 -46 0 -21 5 -39 10 -39 6 0 10 -18 10 -39 0 -22
5 -43 10 -46 6 -3 10 -11 10 -17 0 -7 -13 0 -28 15 -15 15 -32 27 -37 27 -13
0 -235 222 -235 235 0 6 -34 44 -75 85 -41 41 -75 79 -75 85 0 6 -29 40 -65
75 -36 35 -65 69 -65 75 0 6 -25 35 -55 65 -30 30 -55 59 -55 65 0 6 -20 31
-45 55 -25 24 -45 50 -45 58 0 7 -20 33 -45 59 -25 25 -45 51 -45 57 0 7 -18
28 -40 49 -22 20 -40 42 -40 50 0 7 -16 28 -35 47 -19 19 -35 39 -35 45 0 6
-18 29 -40 50 -22 21 -40 44 -40 50 0 6 -20 31 -45 55 -25 24 -45 49 -45 56 0
6 -9 19 -20 29 -11 10 -20 23 -20 30 0 6 -16 26 -35 45 -19 19 -35 41 -35 50
0 8 -9 21 -21 28 -44 28 -14 34 172 32 156 -1 188 2 199 15 19 23 260 22 303
-2z m-931 -118 c3 3 11 -1 18 -10 7 -8 17 -15 23 -15 7 0 39 -27 73 -61 34
-33 72 -66 85 -73 13 -6 29 -22 35 -35 7 -13 44 -56 83 -95 39 -39 71 -76 71
-82 0 -5 25 -34 55 -64 30 -30 55 -59 55 -65 0 -6 18 -29 40 -50 22 -21 40
-44 40 -50 0 -6 20 -31 45 -55 25 -24 45 -49 45 -55 0 -5 25 -35 55 -65 30
-30 54 -61 55 -68 0 -7 29 -42 65 -77 36 -36 65 -70 65 -78 0 -7 5 -18 11 -24
7 -7 9 -19 5 -28 -5 -14 -24 -16 -133 -14 -71 1 -132 4 -136 6 -4 3 -2 11 4
20 9 10 10 16 2 21 -7 4 -13 25 -15 47 -2 23 -8 39 -14 38 -6 -1 -22 9 -34 22
-13 14 -34 25 -47 25 -38 0 -123 59 -123 85 0 6 -13 24 -30 40 -16 16 -30 34
-30 41 0 7 -11 24 -25 38 -14 14 -25 31 -25 38 0 8 -9 20 -20 28 -11 8 -20 20
-20 27 0 15 -18 49 -39 76 -16 19 -36 52 -50 82 -5 12 -16 27 -25 34 -9 7 -16
22 -16 32 0 11 -4 19 -10 19 -5 0 -10 8 -10 18 0 10 -9 24 -20 32 -11 8 -20
20 -20 26 0 7 -11 26 -25 42 -14 17 -25 37 -25 46 0 8 -9 31 -20 51 -11 20
-20 42 -20 50 0 8 -4 15 -10 15 -5 0 -10 13 -10 29 0 17 -4 33 -10 36 -5 3
-10 11 -10 17 0 6 8 4 18 -5 10 -10 21 -15 24 -12z m-344 -25 c16 0 37 -9 47
-20 10 -11 24 -20 31 -20 19 0 114 -93 114 -111 0 -8 9 -21 20 -29 11 -8 20
-22 20 -31 0 -9 7 -23 16 -30 9 -7 20 -22 25 -34 14 -30 34 -63 50 -82 22 -28
39 -61 39 -78 0 -8 5 -15 10 -15 6 0 10 -8 11 -17 0 -10 9 -31 19 -48 11 -16
27 -46 36 -65 10 -19 24 -43 32 -52 20 -24 63 -110 57 -116 -7 -7 -405 391
-405 405 0 7 -25 38 -55 70 -30 32 -55 63 -55 69 0 6 -12 21 -26 35 -14 13
-34 43 -45 66 -10 23 -23 44 -28 47 -5 3 -12 18 -16 33 -9 38 19 59 51 38 13
-8 36 -15 52 -15z m-418 -50 c0 -5 13 -10 28 -10 16 0 37 -9 47 -20 10 -11 23
-20 29 -20 14 0 196 -181 196 -195 0 -6 20 -31 45 -55 25 -24 45 -49 45 -55 0
-6 20 -31 45 -55 25 -24 45 -50 45 -58 0 -7 18 -31 40 -52 22 -21 40 -45 40
-53 0 -9 11 -24 25 -35 14 -11 25 -26 25 -34 0 -8 14 -27 30 -43 17 -16 30
-34 30 -40 0 -7 9 -20 20 -30 11 -10 20 -21 20 -24 0 -12 -54 -31 -86 -31 -18
0 -36 -4 -39 -10 -4 -6 -83 -10 -203 -10 -193 0 -198 1 -224 24 -17 14 -28 33
-28 49 0 14 -4 29 -10 32 -5 3 -10 14 -10 24 0 10 -25 67 -55 126 -30 60 -55
117 -55 126 0 10 -4 21 -10 24 -5 3 -10 15 -10 25 0 10 -3 20 -8 22 -15 6 -82
152 -82 179 0 15 -4 31 -10 34 -15 9 -12 89 4 120 8 15 25 33 38 40 28 16 78
19 78 5z m-397 -92 c36 -21 59 -42 68 -63 5 -11 13 -27 18 -35 5 -8 16 -30 23
-47 7 -18 16 -33 20 -33 5 0 8 -9 8 -19 0 -11 5 -23 10 -26 6 -3 10 -15 10
-25 0 -11 11 -39 25 -63 13 -25 22 -47 18 -50 -3 -4 2 -18 11 -31 9 -14 16
-34 16 -45 0 -11 5 -23 10 -26 6 -3 10 -19 10 -36 0 -16 5 -29 10 -29 6 0 10
-9 10 -20 0 -11 5 -20 10 -20 6 0 10 -13 10 -29 0 -17 5 -33 10 -36 6 -3 10
-15 10 -26 0 -11 11 -37 25 -59 14 -22 25 -51 25 -65 0 -14 5 -25 10 -25 6 0
10 -9 10 -19 0 -11 5 -23 10 -26 6 -3 10 -17 10 -30 0 -13 5 -27 10 -30 6 -3
10 -19 10 -36 0 -16 5 -29 10 -29 6 0 10 -8 10 -19 0 -10 7 -24 15 -31 9 -7
13 -21 10 -30 -3 -9 1 -23 10 -30 8 -7 15 -23 15 -36 0 -12 5 -26 10 -29 6 -3
10 -15 10 -26 0 -10 5 -19 10 -19 6 0 10 -13 10 -29 0 -17 5 -33 10 -36 6 -3
10 -21 10 -40 0 -19 5 -37 10 -40 11 -7 14 -68 3 -63 -67 30 -102 50 -113 63
-7 8 -18 15 -24 15 -7 0 -27 16 -46 35 -19 19 -40 35 -48 35 -7 0 -41 29 -74
65 -34 36 -67 65 -76 65 -8 0 -72 57 -142 127 -71 70 -138 130 -149 135 -12 4
-25 18 -30 30 -5 13 -86 99 -180 193 -94 93 -171 176 -171 183 0 8 -25 37 -55
66 -30 28 -55 58 -55 66 0 9 -9 22 -20 30 -11 8 -20 22 -20 32 0 10 -4 18 -10
18 -20 0 -9 20 28 55 20 19 45 35 54 35 10 0 33 9 53 20 20 11 44 20 53 20 10
0 27 7 38 15 10 8 31 15 46 15 15 0 43 9 63 20 20 11 47 20 60 20 14 0 25 5
25 10 0 6 8 10 18 11 9 0 31 9 47 19 36 22 134 26 168 8z m-776 -403 c52 -52
98 -95 103 -95 15 0 70 -51 70 -65 0 -8 29 -42 65 -77 36 -34 65 -69 65 -77 0
-8 29 -43 65 -77 36 -35 65 -69 65 -78 0 -17 -94 -66 -127 -66 -13 0 -23 -4
-23 -10 0 -5 -6 -10 -12 -10 -11 0 -125 -51 -180 -81 -10 -5 -27 -9 -38 -9
-10 0 -35 -9 -55 -20 -20 -11 -49 -20 -65 -20 -16 0 -32 -4 -35 -10 -9 -14
-148 -13 -163 2 -7 7 -12 24 -12 39 0 15 -6 32 -14 39 -8 6 -12 18 -9 26 3 8
-1 22 -8 32 -26 32 -39 62 -39 87 0 14 -4 25 -10 25 -5 0 -10 13 -10 29 0 17
-4 33 -10 36 -5 3 -10 15 -10 25 0 11 -10 36 -22 57 -12 21 -21 48 -20 59 1
12 -5 27 -13 34 -8 7 -15 27 -15 46 0 18 -4 36 -10 39 -24 15 -10 69 27 107
20 21 42 38 49 38 6 0 17 7 24 15 7 8 23 15 36 15 12 0 26 5 29 10 3 6 19 10
35 10 16 0 32 5 35 10 3 6 36 10 73 10 l66 0 93 -95z m498 -675 c3 -5 44 -10
91 -10 49 0 84 -4 84 -10 0 -5 8 -10 17 -10 19 0 53 -28 53 -43 0 -18 -32 -47
-52 -47 -10 0 -18 -4 -18 -10 0 -5 -6 -10 -14 -10 -8 0 -40 -13 -71 -30 -31
-16 -65 -30 -75 -30 -10 0 -23 -7 -30 -15 -7 -8 -21 -15 -31 -15 -11 0 -19 -4
-19 -10 0 -5 -6 -10 -14 -10 -7 0 -48 -18 -91 -40 -43 -22 -88 -40 -101 -40
-12 0 -25 -4 -28 -9 -9 -14 -107 -61 -127 -61 -10 0 -21 -4 -24 -10 -3 -5 -19
-10 -36 -10 -16 0 -29 -4 -29 -10 0 -5 -13 -10 -29 -10 -17 0 -33 -4 -36 -10
-18 -29 -65 12 -65 56 0 7 -5 14 -12 16 -7 3 -11 19 -10 40 2 22 -3 40 -13 48
-8 7 -15 17 -15 23 0 24 36 87 50 87 9 0 22 9 30 20 8 11 22 20 32 20 9 0 20
5 23 10 3 6 14 10 24 10 21 0 78 27 86 41 4 5 19 9 35 9 16 0 32 5 35 10 3 6
17 10 30 10 13 0 27 5 30 10 3 6 28 10 55 10 27 0 52 5 55 10 3 6 33 10 66 10
33 0 59 4 59 10 0 6 18 10 39 10 22 0 43 -4 46 -10z"/>
<path d="M2099 13193 c-26 -32 -39 -62 -39 -88 0 -14 -4 -25 -10 -25 -6 0 -10
-45 -10 -114 0 -66 -4 -117 -10 -121 -5 -3 -10 -35 -10 -71 0 -36 4 -64 10
-64 6 0 10 -66 10 -179 0 -109 4 -182 10 -186 6 -4 10 -62 10 -140 0 -78 4
-136 10 -140 6 -4 10 -58 10 -130 0 -72 4 -126 10 -130 6 -3 10 -24 10 -46 l0
-39 -59 0 c-33 0 -63 -4 -66 -10 -3 -5 -34 -23 -69 -40 -35 -16 -69 -37 -76
-45 -7 -8 -18 -15 -24 -15 -7 0 -23 -11 -36 -25 -13 -14 -30 -25 -38 -25 -8 0
-27 -13 -42 -30 -15 -16 -34 -30 -42 -30 -8 0 -34 -20 -58 -45 -24 -25 -49
-45 -55 -45 -6 0 -64 -54 -130 -120 -66 -66 -124 -120 -130 -120 -13 0 -506
-498 -523 -527 -17 -31 -17 -192 0 -175 7 7 19 12 28 12 8 0 22 9 30 20 8 11
21 20 28 20 17 0 242 219 242 235 0 6 49 60 110 121 60 60 110 115 110 122 0
18 266 282 283 282 7 0 28 16 47 35 19 19 39 35 45 35 6 0 22 12 36 26 13 14
42 34 64 45 22 11 54 28 70 39 17 10 38 19 48 19 9 1 17 6 17 11 0 15 29 12
46 -4 17 -17 21 -206 4 -206 -5 0 -10 -22 -10 -49 0 -28 -5 -53 -10 -56 -6 -3
-10 -28 -10 -55 0 -27 -4 -52 -10 -55 -5 -3 -10 -21 -10 -40 0 -19 -4 -37 -10
-40 -5 -3 -10 -23 -10 -44 0 -23 -6 -44 -15 -51 -11 -9 -14 -22 -10 -40 4 -18
1 -31 -10 -40 -8 -7 -15 -25 -15 -41 0 -16 -4 -29 -10 -29 -5 0 -10 -18 -10
-39 0 -22 -4 -43 -10 -46 -5 -3 -10 -19 -10 -36 0 -16 -4 -29 -10 -29 -5 0
-10 -9 -10 -20 0 -11 -4 -20 -10 -20 -5 0 -10 -13 -10 -29 0 -16 -7 -34 -15
-41 -9 -7 -13 -21 -10 -30 3 -9 -1 -23 -10 -30 -8 -7 -15 -25 -15 -41 0 -16
-4 -29 -10 -29 -5 0 -10 -11 -10 -25 0 -13 -9 -40 -20 -60 -11 -20 -20 -44
-20 -55 0 -10 -5 -22 -10 -25 -5 -3 -10 -13 -10 -21 0 -9 -7 -22 -16 -31 -8
-9 -13 -22 -9 -31 3 -8 0 -21 -6 -29 -23 -27 -59 -107 -59 -130 0 -13 -4 -23
-10 -23 -5 0 -10 -8 -11 -17 0 -10 -9 -31 -19 -48 -11 -16 -28 -48 -39 -71
-11 -22 -27 -47 -36 -54 -8 -7 -15 -21 -15 -31 0 -11 -4 -19 -10 -19 -5 0 -10
-9 -10 -20 0 -11 -4 -20 -10 -20 -5 0 -10 -8 -10 -18 0 -10 -11 -29 -25 -42
-14 -13 -25 -29 -25 -35 0 -7 -9 -20 -20 -30 -11 -10 -20 -23 -20 -29 0 -7
-20 -32 -45 -56 -25 -24 -45 -49 -45 -55 0 -6 -25 -35 -55 -65 -30 -30 -55
-59 -55 -66 0 -6 -9 -19 -20 -29 -11 -10 -20 -25 -20 -34 0 -9 -9 -23 -20 -31
-11 -8 -20 -22 -20 -32 0 -10 -4 -18 -10 -18 -5 0 -10 -7 -10 -16 0 -14 23
-16 218 -12 202 3 220 5 255 26 21 12 49 22 62 22 14 0 25 5 25 10 0 6 11 10
25 10 13 0 40 9 60 20 20 11 47 20 60 20 14 0 25 4 25 8 0 10 71 42 93 42 9 0
19 5 22 10 3 6 24 10 46 10 21 0 39 5 39 10 0 6 13 10 29 10 17 0 33 5 36 10
3 6 17 10 30 10 13 0 27 5 30 10 3 6 19 10 35 10 16 0 32 5 35 10 3 6 17 10
30 10 13 0 27 5 30 10 11 18 25 10 25 -14 0 -14 5 -28 10 -31 6 -3 10 -19 10
-35 0 -16 5 -32 10 -35 6 -3 10 -37 10 -75 0 -53 4 -69 16 -74 9 -3 263 -6
565 -6 l549 0 0 224 c0 139 4 227 10 231 5 3 10 27 10 53 0 26 7 55 14 65 9
12 12 32 9 57 -4 27 0 47 11 64 9 14 16 43 16 65 0 22 4 43 10 46 5 3 10 33
10 65 0 32 5 62 10 65 6 3 10 24 10 46 0 38 1 39 33 39 19 0 48 7 65 16 l32
15 0 375 c0 243 4 374 10 374 6 0 10 35 10 85 0 47 3 85 8 85 12 0 62 -103 62
-128 0 -12 5 -22 10 -22 6 0 10 -9 10 -20 0 -11 5 -20 10 -20 6 0 10 -18 10
-39 0 -22 5 -43 10 -46 6 -3 10 -24 10 -45 0 -21 5 -42 10 -45 6 -3 10 -21 10
-39 0 -19 7 -39 16 -47 10 -8 14 -22 10 -40 -3 -15 1 -34 9 -45 8 -11 15 -38
15 -61 0 -23 5 -45 10 -48 6 -3 10 -37 10 -75 0 -38 5 -72 10 -75 6 -4 10 -55
10 -120 0 -65 4 -116 10 -120 6 -3 10 -52 10 -111 0 -63 -4 -104 -10 -104 -6
0 -10 -28 -10 -65 0 -37 -4 -65 -10 -65 -5 0 -10 -8 -11 -17 0 -10 -9 -31 -19
-48 -32 -52 -70 -128 -70 -142 0 -7 -4 -13 -10 -13 -5 0 -10 -9 -10 -20 0 -11
-4 -20 -10 -20 -5 0 -10 -9 -10 -20 0 -11 -4 -20 -10 -20 -5 0 -10 -13 -10
-29 0 -17 -4 -32 -9 -36 -16 -9 -41 -66 -41 -92 0 -12 -4 -23 -10 -23 -5 0
-10 -9 -10 -20 0 -11 -4 -20 -10 -20 -5 0 -10 -9 -10 -19 0 -11 -5 -23 -10
-26 -31 -19 -1 -25 108 -23 113 3 117 4 120 26 2 12 8 22 13 22 5 0 9 13 9 29
0 17 5 33 10 36 6 3 10 24 10 46 0 21 5 39 10 39 6 0 10 13 10 29 0 17 5 33
10 36 6 3 10 15 10 26 0 11 7 31 16 45 9 13 14 27 10 31 -3 4 1 14 10 24 14
15 15 80 12 602 -2 475 -6 587 -17 600 -9 11 -11 28 -7 51 5 24 2 37 -9 46
-10 8 -15 30 -15 61 0 26 -4 51 -10 54 -5 3 -10 21 -10 40 0 19 -4 37 -10 40
-5 3 -10 24 -10 45 0 21 -4 42 -10 45 -5 3 -10 21 -10 40 0 19 -4 37 -10 40
-5 3 -10 23 -10 44 0 23 -6 44 -16 52 -12 9 -15 24 -11 51 3 25 0 41 -9 49 -8
6 -14 29 -14 50 0 21 -4 41 -10 44 -5 3 -10 28 -10 56 0 27 -4 49 -10 49 -6 0
-10 45 -10 114 0 66 4 117 10 121 6 3 10 37 10 75 0 38 5 72 10 75 6 3 10 44
10 91 0 51 4 84 10 84 18 0 73 -70 100 -125 14 -29 31 -59 38 -68 7 -8 12 -21
11 -29 -3 -26 1 -39 11 -33 6 4 10 92 10 230 0 217 -1 224 -22 252 -37 46 -48
71 -48 107 0 19 -6 36 -12 39 -10 4 -10 7 0 18 7 7 12 38 12 71 0 32 4 58 10
58 6 0 10 12 10 27 0 14 7 34 15 43 9 10 20 44 25 76 13 79 13 361 0 369 -5 3
-10 0 -10 -8 0 -8 -9 -22 -20 -32 -22 -20 -50 -71 -50 -92 0 -7 -4 -13 -10
-13 -5 0 -10 -11 -10 -25 0 -25 -13 -55 -39 -87 -8 -10 -11 -27 -7 -41 4 -16
0 -29 -9 -37 -8 -7 -15 -25 -15 -41 0 -16 -4 -29 -10 -29 -5 0 -10 -13 -10
-29 0 -17 -4 -33 -10 -36 -5 -3 -10 -24 -10 -46 0 -21 -4 -39 -10 -39 -5 0
-10 -13 -10 -29 0 -17 -4 -33 -10 -36 -5 -3 -10 -26 -10 -51 0 -28 -6 -52 -16
-61 -10 -10 -13 -25 -9 -43 4 -18 1 -31 -10 -40 -10 -8 -15 -29 -15 -61 0 -27
-4 -49 -10 -49 -5 0 -10 -22 -10 -49 0 -28 -4 -53 -10 -56 -5 -3 -10 -28 -10
-55 0 -27 -4 -52 -10 -55 -5 -3 -10 -37 -10 -75 0 -38 -4 -72 -10 -75 -5 -3
-10 -32 -10 -64 0 -42 -5 -62 -16 -72 -12 -10 -15 -25 -11 -62 3 -33 0 -53 -9
-62 -9 -8 -14 -36 -14 -69 0 -30 -4 -58 -10 -61 -5 -3 -10 -37 -10 -75 0 -38
-4 -72 -10 -75 -6 -3 -10 -48 -10 -101 0 -56 -4 -94 -10 -94 -6 0 -10 -38 -10
-93 0 -79 -3 -97 -19 -111 -18 -16 -20 -16 -35 15 -9 18 -16 38 -16 46 0 7 -4
13 -10 13 -5 0 -10 9 -10 20 0 11 -4 20 -10 20 -5 0 -10 18 -10 39 0 22 -4 43
-10 46 -5 3 -10 24 -10 45 0 21 -4 42 -10 45 -5 3 -10 26 -10 49 0 28 -6 48
-16 57 -12 10 -15 26 -12 66 3 37 1 57 -9 64 -8 8 -13 35 -13 80 0 37 -4 71
-10 74 -5 3 -10 37 -10 75 0 38 -4 72 -10 75 -6 3 -10 52 -10 111 0 63 -4 104
-10 104 -6 0 -10 41 -10 104 0 59 -4 108 -10 111 -6 4 -10 61 -10 139 0 107
-3 136 -15 146 -12 10 -15 38 -15 136 0 71 -4 125 -10 129 -6 3 -10 50 -10
105 0 55 -4 102 -10 105 -5 3 -10 37 -10 74 0 37 -4 71 -9 77 -6 5 -11 41 -13
79 l-3 70 -34 3 c-48 5 -91 -38 -91 -90 0 -21 -4 -38 -10 -38 -6 0 -10 -71
-10 -194 0 -119 4 -197 10 -201 6 -4 10 -53 10 -115 0 -62 4 -111 10 -115 6
-3 10 -40 10 -81 0 -43 4 -74 10 -74 6 0 10 -26 10 -59 0 -33 5 -63 10 -66 6
-3 10 -32 10 -64 0 -40 5 -63 15 -71 10 -8 15 -31 15 -71 0 -32 5 -61 10 -64
6 -3 10 -28 10 -56 0 -27 5 -49 10 -49 6 0 10 -28 10 -65 0 -37 4 -65 10 -65
6 0 10 -22 10 -49 0 -28 5 -53 10 -56 6 -3 10 -28 10 -56 0 -27 5 -49 10 -49
6 0 10 -22 10 -49 0 -31 5 -53 15 -61 9 -7 15 -29 15 -51 0 -21 5 -41 10 -44
6 -3 10 -28 10 -56 0 -27 5 -49 10 -49 6 0 10 -18 10 -39 0 -22 5 -43 10 -46
6 -3 10 -28 10 -56 0 -27 5 -49 10 -49 6 0 10 -17 10 -39 0 -21 6 -44 14 -50
10 -8 13 -23 9 -46 -4 -23 0 -43 11 -59 9 -14 16 -39 16 -55 0 -16 5 -33 10
-36 6 -3 10 -24 10 -46 0 -21 5 -39 10 -39 6 0 10 -18 10 -39 0 -22 5 -43 10
-46 6 -3 10 -24 10 -45 0 -21 5 -42 10 -45 6 -3 10 -21 10 -39 0 -19 7 -39 16
-47 10 -8 14 -22 11 -38 -3 -14 2 -38 10 -52 19 -32 11 -59 -16 -59 -11 0 -36
-9 -56 -20 -20 -11 -44 -20 -55 -20 -10 0 -31 -10 -47 -23 -15 -13 -73 -45
-128 -72 -55 -27 -107 -57 -116 -67 -9 -10 -21 -18 -26 -18 -14 0 -101 -45
-121 -62 -9 -8 -24 -18 -32 -22 -8 -3 -28 -15 -45 -25 -16 -11 -37 -20 -45
-20 -9 -1 -22 -10 -30 -21 -8 -11 -21 -20 -30 -21 -8 0 -37 -14 -65 -30 -27
-15 -59 -32 -70 -38 -12 -5 -27 -16 -34 -25 -7 -9 -22 -16 -32 -16 -11 0 -19
-4 -19 -10 0 -5 -9 -10 -20 -10 -11 0 -20 -4 -20 -10 0 -5 -9 -10 -19 -10 -11
0 -23 -4 -26 -10 -3 -5 -17 -10 -30 -10 -13 0 -26 -4 -30 -9 -7 -13 -64 -41
-82 -41 -7 0 -13 -4 -13 -10 0 -5 -6 -10 -12 -10 -17 0 -156 -69 -164 -81 -3
-5 -16 -9 -28 -9 -13 0 -58 -18 -101 -40 -43 -22 -84 -40 -91 -40 -7 0 -43
-16 -80 -35 -37 -19 -73 -35 -80 -35 -7 0 -29 -9 -49 -20 -20 -11 -47 -20 -60
-20 -14 0 -25 -4 -25 -10 0 -5 -13 -10 -28 -10 -15 0 -33 -5 -39 -11 -5 -5
-32 -9 -59 -7 -58 4 -69 25 -32 66 29 34 48 67 48 87 0 8 5 15 10 15 6 0 10 7
10 15 0 9 8 25 18 36 10 10 33 48 51 84 18 36 37 67 42 70 4 3 23 36 40 73 18
37 36 69 41 70 4 2 8 9 8 16 0 7 18 48 40 91 22 43 40 82 40 88 0 18 33 87 42
87 4 0 8 6 8 14 0 7 24 61 54 118 36 71 52 113 49 130 -3 15 2 29 11 37 9 8
16 28 16 47 0 18 5 36 10 39 6 3 10 24 10 45 0 21 5 42 10 45 5 3 10 33 10 65
0 32 4 62 10 65 5 3 10 28 10 56 0 27 5 49 10 49 6 0 10 26 10 59 0 41 5 62
16 72 10 8 14 26 13 56 -2 24 2 48 9 55 7 7 12 38 12 69 0 32 5 61 10 64 6 3
10 26 10 50 0 24 5 47 10 50 6 3 10 24 10 45 0 21 5 42 10 45 6 3 10 24 10 46
0 21 5 39 10 39 6 0 10 13 10 28 0 29 31 68 43 55 4 -3 7 -48 7 -100 0 -55 4
-93 10 -93 6 0 10 -26 10 -59 0 -33 5 -63 10 -66 6 -3 10 -33 10 -65 0 -32 5
-62 10 -65 6 -3 10 -23 10 -44 0 -21 6 -44 14 -51 8 -6 12 -18 9 -26 -3 -8 2
-23 12 -34 10 -11 15 -26 12 -34 -3 -8 1 -20 9 -26 8 -7 14 -24 14 -39 0 -15
9 -33 20 -41 11 -8 20 -22 20 -31 0 -9 9 -24 20 -34 11 -10 20 -14 20 -10 0 4
9 0 20 -10 10 -9 26 -15 35 -12 13 6 15 40 15 252 0 157 4 245 10 245 6 0 10
45 10 114 0 66 4 117 10 121 6 3 10 52 10 110 0 58 4 107 10 110 6 3 10 37 10
74 0 49 4 72 15 81 11 9 15 32 15 81 0 37 5 71 10 74 6 3 10 33 10 66 0 33 4
59 10 59 6 0 10 26 10 59 0 33 5 63 10 66 6 3 10 28 10 55 0 27 5 52 10 55 6
3 10 33 10 65 0 32 5 62 10 65 6 3 10 21 10 39 0 19 7 40 16 47 12 10 15 25
11 56 -3 29 0 46 9 54 8 6 14 29 14 50 0 22 5 39 10 39 6 0 10 22 10 49 0 28
5 53 10 56 6 3 10 28 10 55 0 27 5 52 10 55 6 3 10 28 10 56 0 27 5 49 10 49
6 0 10 22 10 49 0 32 5 53 15 61 11 9 15 27 13 59 -3 41 -6 46 -29 49 -15 2
-32 -5 -44 -18 -10 -11 -24 -20 -31 -20 -6 0 -23 -17 -36 -37 -59 -93 -76
-130 -77 -165 -1 -21 -5 -38 -11 -38 -5 0 -10 -13 -10 -29 0 -16 -7 -34 -15
-41 -9 -7 -13 -21 -10 -30 3 -9 -1 -23 -10 -30 -10 -8 -15 -30 -15 -61 0 -26
-4 -51 -10 -54 -5 -3 -10 -28 -10 -56 0 -27 -4 -49 -10 -49 -5 0 -10 -22 -10
-49 0 -28 -4 -53 -10 -56 -5 -3 -10 -37 -10 -75 0 -38 -4 -72 -10 -75 -5 -3
-10 -32 -10 -64 0 -31 -5 -62 -12 -69 -6 -6 -10 -37 -9 -75 1 -47 -2 -67 -14
-77 -10 -9 -15 -30 -15 -71 0 -32 -4 -61 -10 -64 -5 -3 -10 -28 -10 -56 0 -27
-4 -49 -10 -49 -5 0 -10 -23 -10 -51 0 -53 -15 -63 -35 -22 -6 12 -16 27 -23
36 -7 8 -10 27 -6 45 4 21 1 40 -10 57 -10 15 -16 45 -16 80 0 30 -4 55 -10
55 -6 0 -10 48 -10 124 0 73 -4 127 -10 131 -6 4 -10 119 -10 314 0 185 -4
311 -10 317 -5 5 -11 79 -12 164 l-3 155 -26 3 c-15 2 -31 -4 -40 -15z"/>
<path d="M4023 13196 c-64 -36 -63 -32 -62 -235 1 -102 4 -176 6 -163 2 12 9
22 14 22 5 0 9 11 9 25 0 13 9 40 20 60 11 20 20 44 20 54 0 10 7 24 15 31 9
7 13 20 10 28 -3 8 2 26 10 39 11 17 15 42 13 86 -3 67 -13 76 -55 53z"/>
<path d="M13917 13192 c-19 -20 -24 -112 -7 -112 6 0 10 -13 10 -29 0 -17 5
-33 10 -36 6 -3 10 -17 10 -30 0 -13 5 -27 10 -30 6 -3 10 -19 10 -34 0 -16 7
-34 15 -41 8 -7 15 -23 15 -36 0 -12 5 -26 10 -29 6 -3 10 -17 10 -30 0 -13 5
-27 10 -30 6 -3 10 -19 10 -36 0 -16 5 -29 10 -29 6 0 10 -13 10 -29 0 -17 5
-33 10 -36 6 -3 10 -17 10 -30 0 -13 5 -27 10 -30 6 -3 10 -17 10 -31 0 -14 7
-32 15 -40 8 -9 15 -26 15 -39 0 -13 5 -27 10 -30 6 -3 10 -17 10 -30 0 -13 5
-27 10 -30 6 -3 10 -19 10 -36 0 -16 5 -29 10 -29 6 0 10 -13 10 -29 0 -17 5
-33 10 -36 6 -3 10 -17 10 -30 0 -13 5 -27 10 -30 6 -3 10 -15 10 -26 0 -11 7
-31 16 -44 9 -13 13 -28 10 -33 -3 -5 1 -18 9 -28 8 -10 15 -29 15 -41 0 -12
5 -25 10 -28 6 -3 10 -19 10 -36 0 -16 5 -29 10 -29 6 0 10 -13 10 -29 0 -17
5 -33 10 -36 6 -3 10 -17 10 -30 0 -13 5 -27 10 -30 6 -3 10 -19 10 -35 0 -15
5 -30 11 -32 6 -2 13 -17 14 -32 2 -16 8 -33 14 -39 6 -6 11 -21 11 -33 0 -13
5 -26 10 -29 6 -3 10 -24 10 -46 0 -21 5 -39 10 -39 6 0 10 -13 10 -29 0 -17
5 -33 10 -36 6 -3 10 -17 10 -30 0 -13 5 -27 10 -30 6 -3 10 -16 10 -29 0 -12
7 -31 15 -42 8 -10 15 -29 15 -41 0 -12 5 -25 10 -28 6 -3 10 -17 10 -30 0
-13 5 -27 10 -30 6 -3 10 -24 10 -45 0 -21 5 -42 10 -45 6 -3 10 -17 10 -30 0
-13 5 -27 10 -30 6 -3 10 -22 10 -41 0 -20 6 -42 14 -50 8 -7 12 -22 9 -32 -2
-10 3 -24 11 -31 9 -8 16 -28 16 -47 0 -18 5 -36 10 -39 6 -3 10 -19 10 -36 0
-16 5 -29 10 -29 6 0 10 -13 10 -29 0 -17 5 -33 10 -36 6 -3 10 -24 10 -46 0
-21 5 -39 10 -39 6 0 10 -17 10 -39 0 -22 6 -44 15 -51 9 -8 13 -21 9 -36 -4
-15 0 -34 11 -50 9 -14 15 -37 12 -50 -2 -13 2 -29 9 -35 8 -6 14 -29 14 -50
0 -22 5 -39 10 -39 6 0 10 -18 10 -39 0 -22 5 -43 10 -46 6 -3 10 -24 10 -46
0 -21 5 -39 10 -39 6 0 10 -17 10 -39 0 -21 6 -44 14 -50 10 -8 13 -23 9 -46
-4 -23 0 -43 11 -61 10 -15 16 -40 14 -59 -1 -19 3 -40 10 -47 7 -7 12 -37 12
-69 0 -32 5 -61 10 -64 6 -3 10 -42 10 -85 0 -43 5 -82 10 -85 14 -9 13 -232
-1 -241 -12 -7 -99 73 -99 91 0 6 -13 24 -30 40 -16 16 -30 34 -30 40 0 6 -11
22 -25 35 -14 13 -25 29 -25 35 0 6 -13 24 -30 40 -16 16 -30 37 -30 47 0 10
-4 18 -10 18 -5 0 -10 7 -10 15 0 9 -11 28 -25 43 -14 15 -25 32 -25 38 0 6
-7 17 -15 24 -8 7 -29 41 -45 75 -16 34 -36 68 -45 75 -16 14 -45 67 -45 84 0
7 -9 18 -20 26 -11 8 -20 19 -20 26 0 16 -45 103 -67 127 -11 12 -30 43 -43
70 -13 26 -27 47 -32 47 -4 0 -8 9 -8 19 0 11 -3 21 -7 23 -5 2 -18 24 -31 50
-13 26 -27 50 -33 53 -5 4 -18 25 -29 49 -10 23 -26 49 -35 56 -8 7 -15 18
-15 24 0 7 -11 23 -25 36 -14 13 -25 32 -25 42 0 10 -4 18 -10 18 -5 0 -10 9
-10 20 0 11 -9 25 -20 32 -11 7 -20 18 -20 24 0 17 -29 70 -45 84 -13 10 -41
65 -71 135 -5 12 -10 -126 -12 -335 -2 -272 1 -361 10 -379 10 -19 10 -25 1
-28 -10 -4 -13 -45 -13 -162 l0 -158 40 -78 c22 -44 40 -92 40 -110 0 -18 7
-38 15 -45 12 -10 15 -40 15 -150 0 -110 -3 -140 -15 -150 -10 -8 -15 -30 -15
-61 0 -26 -4 -51 -10 -54 -5 -3 -10 -17 -10 -30 0 -13 -4 -27 -10 -30 -29 -18
-3 -26 76 -23 l86 3 24 43 c13 23 24 51 24 62 0 10 5 22 10 25 6 3 10 13 10
22 0 16 27 42 45 43 6 0 19 -20 30 -45 19 -42 23 -45 58 -45 l37 0 0 64 c0 36
-4 68 -10 71 -6 4 -10 58 -10 130 0 72 -4 126 -10 130 -5 3 -10 28 -10 56 0
27 5 49 10 49 6 0 10 28 10 65 0 65 0 65 28 65 19 0 40 -12 65 -38 20 -21 37
-43 37 -48 0 -6 9 -19 20 -29 11 -10 20 -23 20 -30 0 -7 9 -20 20 -30 22 -20
50 -71 50 -92 0 -7 5 -13 10 -13 6 0 10 -7 10 -15 0 -8 9 -30 20 -50 11 -20
20 -42 20 -51 0 -8 11 -32 25 -54 14 -23 25 -55 25 -74 0 -19 5 -38 10 -41 6
-3 10 -44 10 -91 l0 -84 493 0 c466 0 495 1 510 18 10 10 17 28 17 40 0 12 9
37 20 57 11 20 20 44 20 55 0 10 5 22 10 25 6 3 10 23 10 44 0 23 6 44 16 52
10 8 14 23 12 41 -3 16 1 33 9 39 20 17 18 162 -2 179 -9 7 -13 20 -10 30 3
10 -5 26 -20 40 -14 13 -25 29 -25 35 0 6 -13 24 -30 40 -19 18 -30 39 -30 56
0 15 -5 29 -12 31 -7 3 -11 21 -10 50 2 30 -2 49 -13 58 -23 19 -22 230 1 266
13 18 15 38 11 79 -4 40 -2 57 9 66 8 6 14 21 14 34 0 30 42 111 76 147 30 30
78 58 101 58 7 0 13 5 13 10 0 6 9 10 19 10 15 0 28 -18 50 -64 17 -35 38 -69
46 -76 8 -7 15 -21 15 -31 0 -11 5 -19 10 -19 6 0 10 -9 10 -19 0 -11 4 -23
10 -26 5 -3 17 -23 26 -43 10 -20 24 -45 32 -54 8 -10 24 -35 36 -57 29 -53
73 -118 86 -126 5 -3 10 -15 10 -26 0 -10 3 -19 6 -19 11 0 34 29 34 44 0 8 5
18 10 21 6 3 10 48 10 100 0 52 -4 97 -10 100 -5 3 -10 15 -10 25 0 11 -9 35
-20 55 -11 20 -20 42 -20 50 0 8 -4 15 -10 15 -5 0 -10 8 -10 18 0 10 -11 29
-25 42 -14 13 -25 28 -25 34 0 18 -154 166 -173 166 -9 0 -17 5 -17 10 0 6
-24 10 -54 10 -30 0 -58 -4 -61 -10 -3 -5 -17 -10 -30 -10 -13 0 -27 -4 -30
-10 -3 -5 -19 -10 -36 -10 -16 0 -29 -4 -29 -10 0 -5 -13 -10 -30 -10 -16 0
-30 -4 -30 -10 0 -5 -7 -10 -15 -10 -13 0 -15 21 -13 148 l3 147 50 3 c28 2
54 7 59 13 13 12 106 12 106 -1 0 -6 28 -10 65 -10 37 0 65 -4 65 -10 0 -5 8
-10 18 -11 9 0 31 -9 47 -20 17 -10 39 -23 50 -28 12 -5 27 -16 34 -25 7 -9
19 -16 25 -16 14 0 86 -72 86 -86 0 -6 14 -23 30 -39 30 -29 80 -117 80 -142
0 -7 5 -13 10 -13 6 0 10 -9 10 -19 0 -11 5 -23 10 -26 6 -3 10 -17 10 -30 0
-13 5 -27 10 -30 6 -3 10 -17 10 -29 0 -13 7 -29 15 -36 8 -7 15 -25 15 -41 0
-15 5 -31 10 -34 6 -3 10 -28 10 -56 0 -27 5 -49 10 -49 6 0 10 -30 10 -69 0
-39 5 -73 10 -76 6 -4 10 -110 10 -286 0 -179 -4 -279 -10 -279 -6 0 -10 -32
-10 -75 0 -43 -4 -75 -10 -75 -6 0 -10 -28 -10 -65 0 -37 -4 -65 -10 -65 -5 0
-10 -17 -10 -39 0 -23 -6 -44 -16 -51 -10 -9 -14 -26 -12 -49 l3 -36 75 0 75
0 1 28 c1 15 6 33 13 40 6 6 11 26 11 43 0 18 5 36 10 39 6 3 10 28 10 55 0
27 5 52 10 55 6 3 10 33 10 65 0 32 5 62 10 65 6 3 10 50 10 105 0 55 4 102
10 105 6 4 10 63 10 145 0 82 -4 141 -10 145 -6 3 -10 52 -10 111 0 63 -4 104
-10 104 -5 0 -10 18 -10 39 0 22 -4 43 -10 46 -5 3 -10 28 -10 56 0 27 -4 49
-10 49 -5 0 -10 12 -10 28 0 15 -7 35 -15 45 -7 11 -11 25 -9 31 3 7 -2 19
-11 26 -8 7 -15 25 -15 41 0 16 -4 29 -10 29 -5 0 -10 8 -10 19 0 10 -7 24
-15 31 -8 7 -28 40 -45 74 -16 33 -47 79 -69 101 -23 21 -41 45 -41 53 0 16
-49 62 -66 62 -5 0 -25 16 -44 35 -19 19 -39 35 -46 35 -6 0 -17 7 -24 15 -7
9 -32 25 -54 36 -23 11 -54 28 -71 39 -16 10 -38 19 -47 19 -10 1 -18 6 -18
11 0 6 -18 10 -39 10 -22 0 -43 5 -46 10 -3 6 -32 10 -63 11 -91 1 -150 50
-151 127 -1 18 -7 40 -15 48 -11 10 -15 38 -14 100 0 51 -4 90 -11 97 -6 6
-11 47 -11 98 0 48 -4 91 -10 94 -6 3 -10 48 -10 101 0 56 -4 94 -10 94 -6 0
-10 35 -10 85 0 50 -4 85 -10 85 -6 0 -10 38 -10 94 0 53 -4 98 -10 101 -5 3
-10 37 -10 74 0 50 -4 72 -16 81 -11 10 -14 29 -12 76 1 40 -2 68 -10 76 -7 7
-12 37 -12 69 0 32 -4 61 -10 64 -5 3 -10 26 -10 50 0 24 -4 47 -10 50 -5 3
-10 28 -10 55 0 27 -4 52 -10 55 -5 3 -10 24 -10 45 0 21 -5 40 -11 42 -6 2
-13 17 -14 32 -2 16 -8 33 -14 39 -6 6 -11 19 -11 29 0 41 -62 118 -95 118
-42 0 -55 -29 -55 -121 0 -54 4 -89 12 -97 8 -8 12 -35 10 -76 -3 -47 0 -65
12 -75 11 -9 16 -30 16 -62 0 -27 5 -49 10 -49 6 0 10 -22 10 -49 0 -28 5 -53
10 -56 6 -3 10 -28 10 -55 0 -27 5 -52 10 -55 6 -3 10 -21 10 -40 0 -19 5 -37
10 -40 6 -3 10 -28 10 -54 0 -26 5 -52 12 -59 7 -7 11 -28 10 -48 -2 -20 4
-47 13 -60 9 -14 15 -46 15 -79 0 -30 5 -55 10 -55 6 0 10 -26 10 -59 0 -33 5
-63 10 -66 6 -3 10 -37 10 -75 0 -38 5 -72 10 -75 6 -4 10 -80 10 -195 0 -115
4 -191 10 -195 7 -4 10 -302 10 -861 0 -563 -3 -854 -10 -854 -6 0 -10 -45
-10 -114 0 -66 -4 -117 -10 -121 -5 -3 -10 -37 -10 -75 0 -38 -4 -72 -10 -75
-5 -3 -10 -24 -10 -46 0 -32 -4 -39 -19 -39 -19 0 -51 48 -51 76 0 7 -9 29
-20 49 -11 20 -20 46 -20 60 0 13 -4 27 -10 30 -5 3 -10 15 -10 26 0 20 -15
51 -39 81 -7 10 -11 24 -8 32 3 8 -1 20 -9 26 -8 7 -14 23 -14 36 0 13 -9 39
-20 59 -11 20 -20 47 -20 60 0 14 -4 25 -10 25 -5 0 -10 13 -10 29 0 17 -4 33
-10 36 -5 3 -10 17 -10 29 0 13 -7 29 -15 36 -8 7 -13 16 -10 20 3 4 -2 13
-10 20 -8 7 -15 25 -15 41 0 16 -4 29 -10 29 -5 0 -10 13 -10 29 0 17 -4 33
-10 36 -5 3 -10 15 -10 25 0 11 -9 35 -20 55 -11 20 -20 43 -20 53 0 10 -7 28
-16 40 -9 13 -13 29 -10 37 2 7 -2 19 -10 25 -8 7 -14 23 -14 36 0 12 -4 26
-10 29 -5 3 -10 19 -10 36 0 16 -4 29 -10 29 -5 0 -10 11 -10 25 0 13 -9 40
-20 60 -11 20 -20 44 -20 54 0 10 -7 24 -16 32 -9 7 -13 21 -10 35 4 13 0 27
-9 34 -8 7 -15 23 -15 36 0 12 -4 26 -10 29 -5 3 -10 17 -10 30 0 13 -4 27
-10 30 -5 3 -10 17 -10 30 0 14 -9 40 -20 60 -11 20 -20 44 -20 54 0 10 -7 24
-16 32 -8 7 -13 21 -11 31 3 10 -1 25 -9 32 -8 8 -14 26 -14 40 0 14 -4 28
-10 31 -5 3 -10 17 -10 30 0 13 -4 27 -10 30 -5 3 -10 19 -10 36 0 16 -4 29
-10 29 -5 0 -10 13 -10 29 0 16 -6 34 -14 41 -8 6 -12 18 -9 26 3 8 -1 22 -8
32 -26 32 -39 62 -39 87 0 14 -4 25 -10 25 -5 0 -10 13 -10 29 0 17 -4 33 -10
36 -5 3 -10 17 -10 30 0 13 -4 27 -10 30 -5 3 -10 19 -10 35 0 16 -4 32 -10
35 -5 3 -10 17 -10 29 0 13 -7 29 -16 37 -8 7 -13 21 -11 30 3 10 -1 23 -9 30
-8 6 -14 24 -14 40 0 16 -4 29 -10 29 -5 0 -10 11 -10 25 0 13 -9 40 -20 60
-11 20 -20 45 -20 56 0 11 -7 27 -15 35 -8 8 -12 21 -8 30 3 8 -2 23 -11 33
-9 10 -14 25 -11 33 3 8 -1 21 -10 28 -8 7 -15 23 -15 36 0 12 -4 26 -10 29
-5 3 -10 19 -10 36 0 16 -4 29 -10 29 -5 0 -10 13 -10 29 0 17 -4 33 -10 36
-5 3 -10 16 -10 28 0 12 -7 30 -14 40 -8 10 -12 26 -9 36 2 9 -3 23 -11 30 -9
8 -16 22 -16 32 0 10 -9 34 -20 54 -11 20 -20 47 -20 60 0 14 -4 25 -10 25 -5
0 -10 13 -10 29 0 17 -4 33 -10 36 -5 3 -10 16 -10 28 0 12 -7 30 -15 40 -7
11 -11 25 -9 31 3 7 -2 19 -11 26 -8 7 -15 25 -15 41 0 15 -4 31 -10 34 -5 3
-10 17 -10 30 0 13 -4 27 -10 30 -5 3 -10 19 -10 36 0 16 -4 29 -10 29 -5 0
-10 13 -10 28 0 16 -9 37 -20 47 -11 10 -22 26 -25 36 -8 24 -47 25 -68 1z"/>
<path d="M15420 13136 c0 -41 5 -78 10 -81 6 -3 10 -19 10 -36 0 -16 5 -29 10
-29 6 0 10 -13 10 -30 0 -16 5 -30 10 -30 6 0 10 -7 10 -15 0 -8 11 -34 24
-57 13 -24 21 -48 19 -54 -2 -6 3 -17 12 -24 8 -7 15 -25 15 -41 0 -16 5 -29
10 -29 6 0 10 -18 10 -39 0 -22 5 -43 10 -46 6 -3 10 -24 10 -46 0 -21 5 -39
10 -39 6 0 10 -18 10 -39 0 -22 5 -43 10 -46 6 -3 10 -23 10 -44 0 -23 6 -44
15 -51 12 -10 15 -30 14 -79 -2 -42 2 -66 9 -69 7 -2 12 -27 12 -62 0 -32 5
-62 10 -65 6 -3 10 -33 10 -65 0 -32 5 -62 10 -65 6 -3 10 -37 10 -75 0 -38 5
-72 10 -75 6 -3 10 -33 10 -65 0 -32 5 -62 10 -65 6 -3 10 -28 10 -54 0 -32 5
-53 15 -61 11 -9 14 -22 10 -40 -4 -18 -1 -31 10 -40 9 -7 15 -28 15 -51 0
-22 5 -39 10 -39 6 0 10 -18 10 -39 0 -22 5 -43 10 -46 6 -3 10 -24 10 -46 0
-45 8 -48 36 -16 53 59 54 63 54 280 0 140 -4 207 -12 215 -7 7 -10 40 -9 85
2 56 -1 77 -13 86 -11 9 -16 30 -16 62 0 26 -4 51 -10 54 -5 3 -10 33 -10 66
0 33 -4 59 -10 59 -5 0 -10 22 -10 49 0 28 -4 53 -10 56 -5 3 -10 24 -10 45 0
21 -4 42 -10 45 -5 3 -10 21 -10 40 0 19 -4 37 -10 40 -5 3 -10 24 -10 46 0
26 -5 42 -15 45 -8 4 -15 19 -15 34 0 16 -4 32 -10 35 -5 3 -10 21 -10 40 0
19 -4 37 -10 40 -5 3 -10 19 -10 35 0 16 -4 32 -10 35 -5 3 -10 17 -10 30 0
13 -4 27 -10 30 -5 3 -10 16 -10 28 0 12 -7 30 -15 40 -7 11 -11 25 -8 33 3 8
-1 22 -8 32 -22 27 -39 61 -39 77 0 8 -9 30 -20 50 -11 20 -20 42 -20 49 0 8
-7 16 -15 20 -8 3 -22 22 -32 43 -16 34 -22 38 -61 41 l-42 3 0 -75z"/>
<path d="M13067 12542 c-21 -23 -22 -75 -2 -92 9 -7 13 -21 10 -30 -3 -9 1
-23 10 -30 8 -7 15 -21 15 -31 0 -11 5 -19 10 -19 6 0 10 -13 10 -29 0 -17 5
-33 10 -36 6 -3 10 -17 10 -30 0 -13 5 -27 10 -30 6 -3 10 -19 10 -36 0 -16 5
-29 10 -29 6 0 10 -8 10 -19 0 -10 7 -24 15 -31 9 -7 13 -21 10 -30 -3 -9 1
-23 10 -30 8 -7 15 -23 15 -36 0 -12 5 -26 10 -29 6 -3 10 -15 10 -26 0 -10 5
-19 10 -19 6 0 10 -11 10 -25 0 -13 9 -40 20 -60 11 -20 20 -44 20 -54 0 -10
7 -24 15 -31 8 -7 13 -16 10 -20 -3 -4 2 -13 10 -20 8 -7 15 -23 15 -36 0 -13
9 -39 20 -59 11 -20 20 -44 20 -55 0 -10 5 -22 10 -25 6 -3 10 -19 10 -36 0
-16 5 -29 10 -29 6 0 10 -8 10 -19 0 -10 7 -24 16 -32 8 -7 13 -21 11 -31 -3
-10 -1 -20 3 -23 15 -9 40 -67 40 -92 0 -12 5 -23 10 -23 6 0 10 -11 10 -25 0
-13 9 -40 20 -60 11 -20 20 -44 20 -54 0 -10 7 -24 15 -31 8 -7 14 -22 13 -34
-1 -11 8 -38 20 -59 12 -21 22 -46 22 -57 0 -10 5 -22 10 -25 6 -3 10 -19 10
-36 0 -16 5 -29 10 -29 6 0 10 -11 10 -23 0 -26 25 -83 41 -93 5 -3 7 -14 4
-23 -3 -10 1 -24 10 -31 8 -7 15 -25 15 -41 0 -16 5 -29 10 -29 6 0 10 -13 10
-29 0 -17 5 -33 10 -36 6 -3 10 -17 10 -30 0 -13 5 -27 10 -30 6 -3 10 -23 10
-44 0 -21 6 -44 14 -50 8 -7 12 -20 9 -30 -3 -10 0 -22 6 -25 6 -4 11 -21 11
-37 0 -18 4 -28 10 -24 6 4 10 121 10 318 0 281 -2 315 -17 337 -27 38 -132
248 -126 253 2 3 -12 35 -31 72 -20 37 -36 78 -36 91 0 13 -4 24 -10 24 -5 0
-10 9 -10 20 0 11 -4 20 -10 20 -5 0 -10 13 -10 29 0 16 -7 34 -15 41 -9 7
-13 21 -10 30 3 9 -1 23 -10 30 -8 7 -15 25 -15 41 0 16 -4 29 -10 29 -5 0
-10 13 -10 29 0 17 -4 33 -10 36 -5 3 -10 21 -10 40 0 19 -4 37 -10 40 -5 3
-10 19 -10 35 0 16 -4 32 -10 35 -5 3 -10 17 -10 29 0 13 -7 29 -15 36 -9 7
-13 21 -10 30 3 9 -1 23 -10 30 -8 7 -15 21 -15 31 0 11 -4 19 -10 19 -5 0
-10 11 -10 25 0 13 -9 40 -20 60 -11 20 -20 44 -20 55 0 10 -4 22 -10 25 -5 3
-10 15 -10 25 0 10 -3 20 -8 22 -4 2 -35 60 -70 129 -60 121 -101 174 -159
207 -30 16 -37 15 -56 -6z"/>
<path d="M1325 12400 c-3 -5 -21 -10 -39 -10 -17 0 -37 -5 -43 -11 -6 -6 -28
-13 -49 -16 -22 -3 -43 -9 -48 -14 -6 -5 -27 -9 -48 -9 -21 0 -38 -4 -38 -10
0 -5 -13 -10 -29 -10 -17 0 -33 -4 -36 -10 -3 -5 -17 -10 -30 -10 -13 0 -27
-4 -30 -10 -3 -5 -18 -10 -33 -10 -16 0 -34 -8 -42 -20 -8 -11 -20 -20 -28
-20 -7 0 -24 -11 -38 -25 -14 -14 -31 -25 -39 -25 -11 0 -15 -14 -15 -55 l0
-55 49 0 c31 0 53 5 61 15 7 8 21 15 31 15 10 0 34 9 54 20 20 11 47 20 60 20
14 0 25 5 25 10 0 6 13 10 29 10 17 0 33 5 36 10 3 6 21 10 40 10 19 0 37 5
40 10 3 6 19 10 34 10 16 0 33 6 39 13 9 10 51 13 125 8 15 -2 6 -28 -18 -51
-14 -13 -25 -29 -25 -35 0 -6 -18 -29 -40 -50 -22 -21 -40 -44 -40 -50 0 -6
-20 -31 -45 -55 -25 -24 -45 -50 -45 -58 0 -7 -13 -24 -29 -38 -17 -14 -33
-35 -37 -47 -4 -12 -20 -34 -35 -48 -16 -15 -29 -34 -29 -42 0 -8 -7 -21 -16
-28 -9 -7 -20 -22 -25 -34 -16 -34 -35 -64 -52 -83 -10 -10 -17 -23 -17 -29 0
-5 -9 -18 -20 -28 -11 -10 -20 -31 -20 -46 0 -15 -3 -29 -7 -31 -12 -5 -63
-111 -63 -130 0 -9 -4 -20 -10 -23 -5 -3 -10 -19 -10 -36 0 -16 -4 -29 -10
-29 -5 0 -10 -18 -10 -40 0 -22 -4 -40 -10 -40 -6 0 -10 -40 -10 -100 0 -55 3
-100 6 -100 11 0 74 73 74 86 0 6 7 17 16 25 8 7 13 21 11 31 -3 10 -1 20 3
23 12 7 40 65 40 82 0 7 5 13 10 13 6 0 10 9 10 20 0 11 5 20 10 20 6 0 10 8
10 18 0 9 7 26 15 36 8 10 12 23 9 28 -3 5 0 17 8 26 20 26 38 60 38 74 0 7 9
19 20 26 11 7 20 19 20 28 0 8 8 24 18 34 10 11 28 40 40 64 12 24 29 49 37
56 8 7 15 18 15 25 0 6 9 20 20 30 11 10 20 23 20 30 0 6 16 26 35 45 19 19
35 39 35 45 0 6 18 29 40 50 22 21 40 45 40 52 0 7 16 28 35 47 19 20 35 42
35 49 0 8 20 33 45 56 25 23 45 47 45 54 0 8 11 24 25 37 14 13 39 52 56 86
30 60 31 65 16 82 -10 10 -17 26 -17 35 0 15 -15 17 -124 17 -73 0 -127 -4
-131 -10z"/>
<path d="M3962 10003 c-2 -477 0 -543 13 -543 12 0 15 -14 15 -69 0 -39 5 -73
10 -76 6 -3 10 -51 10 -109 0 -125 7 -136 93 -136 54 0 57 1 57 25 0 14 -4 25
-10 25 -6 0 -10 41 -10 104 0 59 -4 108 -10 111 -6 3 -10 52 -10 111 0 63 -4
104 -10 104 -6 0 -10 35 -10 84 0 47 -4 88 -10 91 -5 3 -10 41 -10 84 0 60 -4
82 -16 92 -13 10 -15 25 -11 67 4 41 2 54 -9 59 -10 4 -14 24 -14 79 0 43 -4
74 -10 74 -6 0 -10 28 -10 65 0 37 -4 65 -10 65 -6 0 -10 26 -10 58 0 32 -4
62 -9 68 -6 5 -12 32 -14 59 -2 28 -4 -194 -5 -492z"/>
<path d="M4427 10343 c-12 -12 -7 -40 9 -54 8 -7 13 -21 11 -30 -3 -10 1 -26
9 -36 7 -10 14 -28 14 -40 0 -12 5 -25 10 -28 6 -3 10 -17 10 -30 0 -13 5 -27
10 -30 6 -3 10 -15 10 -26 0 -10 5 -19 10 -19 6 0 10 -8 11 -17 0 -10 9 -31
20 -48 10 -16 23 -40 28 -52 5 -11 14 -24 20 -27 12 -8 41 -64 41 -80 0 -6 9
-17 20 -24 11 -7 20 -18 20 -25 0 -7 11 -24 25 -39 14 -15 25 -34 25 -42 0 -9
9 -21 20 -28 11 -7 20 -20 20 -28 0 -9 34 -49 75 -90 41 -41 75 -79 75 -85 0
-14 52 -65 66 -65 14 0 189 -181 201 -210 19 -41 21 -79 7 -91 -8 -6 -14 -16
-14 -21 0 -15 1096 -6 1112 10 6 6 20 12 30 12 55 0 155 105 133 139 -4 7 -77
11 -205 11 -122 0 -201 4 -205 10 -4 6 -62 10 -140 10 -78 0 -136 4 -140 10
-3 6 -50 10 -105 10 -55 0 -102 4 -105 10 -3 6 -19 10 -36 10 -16 0 -29 5 -29
10 0 6 -13 10 -29 10 -16 0 -34 7 -41 15 -7 8 -23 15 -36 15 -12 0 -26 5 -29
10 -3 6 -19 10 -36 10 -16 0 -29 5 -29 10 0 6 -8 10 -19 10 -10 0 -24 7 -31
15 -7 9 -32 24 -54 35 -23 10 -50 28 -60 39 -11 12 -24 21 -31 21 -6 0 -24 14
-40 30 -16 17 -34 30 -40 30 -17 0 -155 137 -155 153 0 8 -20 33 -45 56 -25
23 -45 47 -45 55 0 7 -9 21 -20 31 -11 10 -20 23 -20 30 0 7 -9 20 -20 30 -21
19 -70 111 -70 132 0 7 -4 13 -10 13 -5 0 -10 6 -10 13 0 18 -28 75 -41 83 -5
3 -7 15 -3 26 7 22 -20 83 -48 109 -10 9 -18 24 -18 33 0 12 -10 16 -38 16
-21 0 -42 -3 -45 -7z"/>
<path d="M8823 9985 c0 -22 2 -30 4 -17 2 12 2 30 0 40 -3 9 -5 -1 -4 -23z"/>
<path d="M975 9039 c3 -12 6 -22 7 -23 2 0 13 -7 25 -13 27 -15 159 -17 168
-3 3 6 17 10 30 10 13 0 27 5 30 10 3 6 19 10 36 10 16 0 29 4 29 9 0 6 15 12
33 14 17 2 -57 5 -165 5 -196 2 -197 2 -193 -19z"/>
<path d="M2258 8651 c2 -355 0 -410 -13 -421 -13 -10 -15 -50 -15 -256 0 -156
-4 -244 -10 -244 -5 0 -10 -18 -10 -40 l0 -40 78 0 c53 0 84 -5 98 -15 16 -12
101 -14 568 -15 503 0 553 1 587 18 21 9 39 24 39 32 0 9 9 22 20 30 12 8 20
26 20 42 0 15 5 30 10 33 6 4 10 101 10 259 0 176 3 255 11 263 8 8 11 44 10
96 -2 65 1 86 13 97 12 9 16 32 16 91 0 43 5 81 10 84 6 3 10 24 10 46 0 21 5
39 10 39 6 0 10 18 10 39 0 22 5 43 10 46 6 3 10 24 10 46 0 21 5 39 10 39 6
0 10 13 10 29 0 16 7 34 15 41 9 7 13 20 10 28 -3 8 0 21 6 28 10 12 -7 14
-103 14 l-115 0 -29 -56 c-16 -30 -37 -64 -46 -74 -10 -11 -18 -26 -18 -33 0
-14 -28 -44 -33 -36 -22 32 -77 157 -77 175 l0 24 -562 0 -563 0 3 -409z"/>
<path d="M4030 8554 c0 -452 2 -507 16 -522 13 -13 15 -32 12 -99 -3 -61 -1
-86 9 -94 7 -7 13 -26 13 -45 0 -18 5 -36 10 -39 6 -3 10 -14 10 -23 0 -10 9
-24 20 -32 11 -8 20 -22 20 -32 0 -15 9 -18 45 -18 l45 0 0 40 c0 22 -4 40
-10 40 -6 0 -10 134 -10 383 0 273 -3 386 -11 394 -8 8 -11 60 -10 160 2 119
-1 152 -13 168 -11 15 -15 47 -16 123 l0 102 -65 0 -65 0 0 -506z"/>
<path d="M5195 9051 c7 -12 64 -41 79 -41 7 0 18 -9 26 -20 8 -11 25 -20 37
-20 13 0 41 -11 63 -25 23 -14 54 -25 75 -25 19 0 35 -4 35 -10 0 -6 34 -10
83 -10 52 0 88 -5 95 -12 10 -10 17 -10 32 0 11 6 49 12 84 12 36 0 68 5 71
10 3 6 22 10 41 10 20 0 42 7 51 15 8 8 18 13 23 10 5 -3 48 15 95 40 48 25
94 45 101 45 8 0 14 4 14 9 0 5 10 12 23 14 12 2 -216 5 -506 6 -326 0 -526
-3 -522 -8z"/>
<path d="M7428 9053 c6 -2 12 -13 12 -22 0 -10 9 -26 20 -36 11 -10 20 -23 20
-30 0 -7 9 -20 20 -30 11 -10 20 -23 20 -30 0 -6 16 -26 35 -45 19 -19 35 -38
35 -44 0 -5 12 -22 26 -37 15 -15 32 -38 38 -51 6 -13 24 -29 39 -36 16 -8 27
-21 27 -33 0 -10 5 -19 10 -19 6 0 10 25 10 55 0 30 -4 55 -10 55 -5 0 -10 22
-10 49 0 28 -4 53 -10 56 -5 3 -10 24 -10 45 0 21 -4 42 -10 45 -5 3 -10 25
-10 49 0 23 -5 47 -12 54 -8 8 -51 12 -132 11 -67 0 -115 -3 -108 -6z"/>
<path d="M8584 9045 c8 -8 22 -15 30 -15 9 0 16 -4 16 -10 0 -5 8 -10 18 -10
10 0 23 -5 29 -11 19 -19 43 -2 43 31 l0 30 -76 0 c-67 0 -74 -2 -60 -15z"/>
<path d="M10044 9015 c25 -25 52 -45 59 -45 7 0 24 -11 37 -25 13 -14 29 -25
36 -25 6 0 17 -7 24 -15 19 -23 176 -90 212 -90 4 0 13 -6 20 -12 6 -7 22 -13
34 -13 13 0 26 -4 29 -10 3 -5 33 -10 65 -10 32 0 62 -4 65 -10 4 -6 73 -10
176 -10 106 0 169 4 169 10 0 6 22 10 49 10 28 0 53 5 56 10 3 6 21 10 39 10
19 0 46 7 62 14 15 8 31 13 35 11 4 -3 12 2 19 10 7 8 21 15 31 15 11 0 27 4
37 9 9 5 60 30 113 55 53 26 104 55 114 66 10 11 24 20 32 20 7 0 29 16 49 35
l35 35 -821 0 -821 0 45 -45z"/>
<path d="M12438 9035 c-10 -13 -18 -28 -18 -33 0 -5 -9 -17 -20 -27 -12 -11
-17 -22 -12 -27 13 -13 68 20 119 70 l44 42 -48 0 c-39 -1 -51 -5 -65 -25z"/>
<path d="M13595 9041 c3 -10 -1 -24 -10 -31 -12 -10 -15 -35 -15 -116 0 -63
-4 -104 -10 -104 -6 0 -10 -38 -10 -94 0 -53 -4 -98 -10 -101 -6 -3 -10 -50
-10 -105 0 -55 -4 -102 -10 -105 -5 -3 -10 -44 -10 -91 0 -49 -4 -84 -10 -84
-6 0 -10 -38 -10 -93 0 -60 -4 -97 -12 -105 -8 -8 -11 -38 -9 -85 2 -57 -1
-76 -13 -86 -11 -9 -16 -30 -16 -64 0 -67 34 -107 92 -107 32 0 38 3 38 20 0
12 7 32 16 45 9 13 13 28 10 33 -3 5 1 18 9 28 8 10 15 27 15 36 0 10 9 33 20
53 11 20 20 47 20 60 0 14 5 25 10 25 6 0 10 11 10 25 0 25 13 55 39 87 7 10
11 24 8 32 -3 8 1 20 9 26 8 7 14 21 14 31 0 11 5 19 10 19 6 0 10 13 10 29 0
17 5 33 10 36 6 3 10 15 10 25 0 11 9 35 20 55 11 20 20 45 20 57 0 12 8 30
18 41 15 17 17 47 20 248 2 126 -1 229 -5 229 -10 0 -33 -49 -33 -71 0 -10 -4
-21 -10 -24 -5 -3 -10 -15 -10 -26 0 -10 -4 -19 -10 -19 -5 0 -10 -9 -10 -20
0 -11 -4 -20 -10 -20 -5 0 -10 -8 -10 -18 0 -20 -18 -42 -35 -42 -7 0 -9 57
-7 180 3 133 1 184 -8 195 -8 10 -31 15 -72 15 -53 0 -59 -2 -53 -19z"/>
<path d="M13920 9045 c0 -8 -4 -15 -10 -15 -5 0 -10 -9 -10 -20 0 -11 -4 -20
-10 -20 -6 0 -10 -84 -10 -231 0 -151 3 -228 10 -224 6 3 10 19 10 36 0 16 5
29 10 29 6 0 10 9 10 20 0 11 5 20 10 20 6 0 10 11 10 25 0 25 13 55 39 87 7
10 11 24 8 32 -3 8 1 20 9 26 8 7 14 25 14 41 0 16 5 29 10 29 6 0 10 9 10 19
0 11 5 23 10 26 6 3 10 15 10 25 0 11 11 40 25 65 l26 45 -91 0 c-73 0 -90 -3
-90 -15z"/>
<path d="M14680 9040 c0 -19 -87 -109 -119 -122 -9 -3 -52 -43 -96 -87 -44
-45 -84 -81 -90 -81 -14 0 -65 -52 -65 -66 0 -5 -18 -28 -41 -49 -39 -39 -69
-86 -69 -109 0 -7 -9 -18 -20 -26 -11 -8 -20 -22 -20 -32 0 -9 -4 -20 -10 -23
-5 -3 -10 -17 -10 -29 0 -13 -6 -29 -14 -36 -8 -6 -12 -18 -9 -26 3 -8 -2 -23
-11 -33 -14 -15 -16 -36 -14 -117 l3 -99 59 -3 c32 -2 64 2 69 7 6 6 41 11 78
11 37 0 71 5 74 10 3 6 25 10 48 10 23 0 51 7 61 15 11 8 34 15 52 15 18 0 36
5 39 10 3 6 24 10 45 10 21 0 42 5 45 10 3 6 21 10 40 10 19 0 37 5 40 10 3 6
28 10 55 10 27 0 52 5 55 10 3 6 26 10 50 10 24 0 47 5 50 10 3 6 38 10 77 10
l71 0 58 -52 c96 -87 136 -118 143 -111 3 3 6 21 6 39 0 18 5 36 10 39 6 3 10
15 10 26 0 10 -4 19 -10 19 -6 0 -10 36 -10 88 0 114 16 152 65 152 28 0 36
-6 49 -32 9 -17 16 -35 16 -40 0 -10 46 -58 55 -58 3 0 5 6 5 13 0 8 11 24 25
37 14 13 25 32 25 42 0 10 5 18 10 18 6 0 10 18 10 39 0 22 5 43 10 46 6 3 10
52 10 111 0 63 4 104 10 104 6 0 10 30 10 69 0 39 5 73 10 76 6 3 10 23 10 44
0 23 6 44 15 51 9 7 13 20 10 28 -3 8 0 21 6 28 10 12 -65 14 -485 14 -486 0
-496 0 -496 -20z m194 -177 c3 -10 10 -25 15 -33 5 -8 16 -30 23 -47 7 -18 16
-33 20 -33 5 0 8 -11 8 -25 0 -13 9 -40 20 -60 11 -20 20 -46 20 -59 0 -14 4
-26 9 -28 4 -1 10 -29 13 -60 5 -67 -14 -95 -61 -90 -16 2 -33 -4 -41 -12 -7
-9 -25 -16 -41 -16 -15 0 -31 -4 -34 -10 -3 -5 -42 -10 -85 -10 -43 0 -82 -4
-85 -10 -3 -5 -46 -10 -94 -10 -48 0 -92 -5 -98 -11 -5 -5 -37 -9 -69 -7 l-59
3 -3 41 c-2 28 4 52 17 75 12 19 25 43 30 54 5 12 16 27 25 34 9 7 16 18 16
25 0 14 181 196 196 196 6 0 19 9 29 20 10 11 23 20 30 20 6 0 22 11 35 25 13
14 34 25 46 25 13 0 26 5 29 10 3 6 23 10 44 10 28 0 40 -5 45 -17z"/>
<path d="M16390 9036 c0 -14 -4 -28 -10 -31 -5 -3 -10 -14 -10 -23 0 -27 -68
-157 -100 -191 -17 -17 -30 -37 -30 -44 0 -7 -9 -19 -20 -27 -11 -8 -20 -21
-20 -30 0 -9 -29 -45 -65 -80 -36 -35 -65 -69 -65 -75 0 -14 -272 -285 -286
-285 -6 0 -53 -43 -105 -95 -51 -52 -100 -95 -107 -95 -8 0 -42 -29 -77 -65
-35 -36 -70 -65 -77 -65 -7 0 -58 -45 -113 -100 -55 -55 -104 -100 -110 -100
-12 0 -75 -61 -75 -73 0 -11 268 -8 275 3 3 6 19 10 34 10 17 0 38 11 56 30
16 17 34 30 40 30 6 0 26 16 45 35 19 19 39 35 45 35 6 0 24 14 40 30 16 17
34 30 40 30 6 0 26 16 45 35 19 19 39 35 45 35 7 0 20 9 30 20 10 11 26 20 37
20 10 0 18 4 18 8 0 5 12 15 28 22 36 18 212 191 212 208 0 8 20 32 45 54 25
22 45 47 45 55 0 8 14 28 30 43 17 15 30 33 30 39 0 14 20 50 43 78 23 27 67
112 67 130 0 7 5 13 10 13 6 0 10 9 10 19 0 11 3 21 8 23 11 5 62 111 62 130
0 9 5 20 10 23 6 3 10 15 10 26 0 10 5 19 10 19 6 0 10 13 10 29 0 17 5 33 10
36 6 3 10 17 10 30 0 13 5 27 10 30 6 3 10 16 10 29 0 12 5 27 12 34 9 9 -7
12 -75 12 -86 0 -87 0 -87 -24z"/>
<path d="M6899 8913 c-1 -5 0 -35 1 -69 1 -44 -2 -64 -14 -73 -9 -8 -16 -24
-16 -37 0 -12 -4 -26 -10 -29 -5 -3 -10 -19 -10 -36 0 -16 -4 -29 -10 -29 -5
0 -10 -8 -10 -18 0 -10 -9 -24 -20 -32 -11 -8 -20 -21 -20 -29 0 -22 -141
-161 -162 -161 -10 0 -18 -4 -18 -10 0 -5 -7 -10 -15 -10 -9 0 -25 -9 -37 -20
-12 -11 -32 -20 -44 -20 -13 0 -26 -4 -29 -10 -3 -5 -17 -10 -30 -10 -13 0
-27 -4 -30 -10 -3 -5 -28 -10 -54 -10 -31 0 -53 -5 -61 -15 -10 -12 -39 -15
-144 -15 -73 0 -136 -4 -141 -9 -6 -5 -21 -11 -35 -13 -36 -5 -39 -54 -6 -107
14 -22 26 -44 26 -49 0 -5 9 -17 20 -27 11 -10 20 -23 20 -29 0 -7 25 -36 55
-66 30 -30 55 -59 55 -65 0 -14 242 -255 256 -255 7 0 17 -7 24 -15 18 -22
152 -21 171 1 8 10 25 14 47 12 22 -2 37 2 40 10 2 6 0 12 -5 12 -4 0 -14 15
-21 33 -7 17 -17 39 -22 47 -5 8 -30 58 -56 110 -27 52 -58 108 -71 123 -13
16 -23 36 -23 45 0 20 181 202 200 202 18 0 150 134 150 153 0 8 16 29 35 46
19 17 35 35 35 40 0 5 14 35 30 66 17 31 30 72 30 91 0 19 5 34 10 34 6 0 10
40 10 99 0 56 -4 103 -10 106 -5 3 -10 17 -10 31 0 21 -4 24 -40 24 -22 0 -41
-3 -41 -7z"/>
<path d="M16712 8868 c-9 -9 -12 -96 -12 -329 0 -269 -2 -318 -15 -329 -10 -8
-15 -31 -15 -71 0 -32 -4 -61 -10 -64 -5 -3 -10 -17 -10 -30 0 -13 -4 -27 -10
-30 -5 -3 -10 -15 -10 -26 0 -29 -12 -23 -54 26 -22 25 -47 45 -57 45 -11 0
-19 5 -19 10 0 6 -6 10 -13 10 -8 0 -28 7 -45 16 -28 13 -32 21 -32 55 0 21
-4 39 -10 39 -5 0 -10 6 -10 13 0 7 -6 25 -12 40 -11 22 -20 27 -48 27 -36 0
-90 -36 -90 -59 0 -13 -19 -48 -39 -74 -16 -19 -36 -52 -50 -82 -5 -12 -16
-27 -25 -34 -9 -7 -16 -22 -16 -32 0 -11 -4 -19 -10 -19 -5 0 -10 -7 -10 -16
0 -29 -27 -44 -79 -44 -27 0 -53 5 -56 10 -12 19 -55 11 -64 -12 -5 -13 -21
-34 -35 -47 -14 -14 -26 -32 -26 -41 0 -8 -9 -22 -20 -30 -11 -8 -20 -20 -20
-28 0 -7 -11 -24 -25 -38 -14 -14 -25 -31 -25 -39 0 -8 -5 -15 -11 -15 -6 0
-9 -5 -7 -11 5 -14 418 -13 432 1 6 6 31 10 56 10 40 0 51 5 85 40 21 22 46
40 55 40 17 0 40 -43 40 -77 0 -20 5 -23 39 -23 22 0 44 -6 51 -15 10 -12 45
-15 195 -15 150 0 185 3 195 15 7 8 19 15 26 15 8 0 14 10 14 24 0 14 5 28 10
31 6 3 10 23 10 44 0 22 6 44 15 51 12 10 15 37 15 121 0 61 4 110 10 114 6 4
10 77 10 186 0 98 4 179 8 179 19 0 72 -68 72 -92 0 -14 7 -31 15 -38 8 -7 15
-27 15 -46 0 -18 5 -36 10 -39 6 -4 10 -105 10 -271 l0 -264 224 0 c139 0 227
4 231 10 3 6 19 10 36 10 16 0 29 5 29 10 0 6 9 10 20 10 13 0 20 7 20 20 0
11 5 20 10 20 6 0 10 98 10 275 0 177 -4 275 -10 275 -6 0 -10 37 -10 90 0 87
-1 92 -27 115 -29 25 -103 36 -103 15 0 -5 -9 -10 -19 -10 -11 0 -23 5 -26 10
-3 6 -17 10 -30 10 -13 0 -27 5 -30 10 -3 6 -15 10 -26 10 -11 0 -37 11 -59
25 -43 27 -70 31 -87 14 -29 -29 -159 -5 -193 36 -7 8 -18 15 -24 15 -6 0 -54
43 -106 95 -52 52 -100 95 -107 95 -8 0 -29 16 -47 35 -36 37 -54 43 -74 23z"/>
<path d="M9344 8799 c-8 -14 134 -159 156 -159 9 0 22 -9 30 -20 8 -11 20 -20
27 -20 15 0 49 -18 76 -39 9 -8 17 -10 17 -6 0 4 8 2 18 -6 31 -26 61 -39 87
-39 14 0 25 -4 25 -10 0 -5 6 -10 12 -10 7 0 45 -16 85 -36 l73 -36 0 -48 c0
-27 -4 -52 -10 -55 -5 -3 -10 -42 -10 -85 0 -43 -4 -82 -10 -85 -6 -3 -10 -48
-10 -101 0 -56 -4 -94 -10 -94 -6 0 -10 -41 -10 -104 0 -59 -4 -108 -10 -111
-5 -3 -10 -24 -10 -46 0 -34 3 -39 24 -39 13 0 29 -6 35 -14 9 -11 47 -14 169
-16 86 0 161 -5 166 -10 6 -6 95 -10 208 -10 125 0 198 -4 198 -10 0 -6 26
-10 59 -10 33 0 63 5 66 10 3 6 48 10 101 10 56 0 94 4 94 10 0 6 13 10 29 10
16 0 34 7 41 15 7 8 27 15 46 15 18 0 36 5 39 10 3 6 15 10 26 10 10 0 19 5
19 10 0 6 6 10 13 10 24 0 71 28 102 60 16 16 35 30 42 30 7 0 13 6 13 13 0 7
20 33 45 57 25 24 45 49 45 55 0 14 72 85 86 85 6 0 25 16 44 35 19 19 39 35
45 35 7 0 20 9 30 20 10 11 24 20 30 20 7 0 18 7 25 15 7 9 38 27 67 42 30 14
57 31 60 39 3 8 13 14 23 14 9 0 25 9 35 20 10 11 23 20 30 20 6 0 22 11 35
25 13 14 29 25 35 25 7 0 20 9 30 20 10 11 23 20 30 20 6 0 24 14 40 30 16 17
34 30 39 30 18 0 96 76 96 93 0 9 10 23 22 31 17 12 20 18 10 28 -7 7 -12 20
-12 30 0 16 -10 18 -85 18 -47 0 -85 2 -85 4 0 2 10 22 22 45 12 22 19 43 17
46 -5 5 -61 -11 -91 -26 -10 -5 -24 -9 -33 -9 -8 0 -30 -9 -50 -20 -20 -11
-44 -20 -55 -20 -10 0 -22 -4 -25 -10 -3 -5 -15 -10 -26 -10 -10 0 -19 -4 -19
-10 0 -5 -8 -10 -19 -10 -10 0 -24 -7 -31 -15 -7 -9 -15 -13 -18 -10 -3 3 -11
0 -19 -7 -21 -17 -145 -78 -160 -78 -7 0 -13 -4 -13 -10 0 -5 -8 -10 -17 -11
-10 0 -31 -9 -48 -19 -59 -37 -88 -50 -112 -50 -12 0 -23 -4 -23 -10 0 -5 -13
-10 -29 -10 -17 0 -33 -4 -36 -10 -3 -5 -33 -10 -65 -10 -32 0 -62 -4 -65 -10
-4 -6 -95 -10 -240 -10 -145 0 -236 4 -240 10 -3 6 -33 10 -66 10 -33 0 -59 4
-59 10 0 6 -22 10 -49 10 -28 0 -53 5 -56 10 -3 6 -19 10 -35 10 -16 0 -32 5
-35 10 -3 6 -21 10 -39 10 -19 0 -39 7 -46 15 -7 8 -23 15 -36 15 -12 0 -26 5
-29 10 -3 6 -19 10 -35 10 -16 0 -32 5 -35 10 -3 6 -17 10 -30 10 -13 0 -27 5
-30 10 -3 6 -19 10 -36 10 -16 0 -29 5 -29 10 0 6 -12 10 -27 11 -16 0 -41 9
-58 19 -59 37 -88 50 -112 50 -12 0 -23 5 -23 10 0 6 -6 10 -12 10 -22 0 -154
69 -173 90 -10 11 -24 20 -31 20 -8 0 -27 14 -42 30 -16 17 -36 30 -43 30 -8
0 -21 9 -29 20 -12 16 -26 20 -77 20 -34 0 -65 -5 -69 -11z"/>
<path d="M4965 8297 c-22 -12 -41 -31 -43 -42 -3 -10 -17 -31 -33 -46 -16 -15
-29 -34 -29 -41 0 -8 -9 -23 -20 -33 -26 -23 -90 -154 -90 -183 0 -12 -4 -22
-10 -22 -5 0 -10 -8 -10 -19 0 -10 -6 -24 -14 -31 -8 -6 -12 -18 -9 -26 3 -8
-1 -22 -8 -32 -28 -34 -39 -62 -39 -97 0 -19 -4 -35 -10 -35 -5 0 -10 -9 -10
-20 0 -18 7 -20 84 -20 47 0 88 5 91 10 3 6 18 10 32 10 14 0 33 8 42 19 9 10
25 20 36 22 11 2 26 18 35 34 8 17 18 32 23 33 4 2 7 12 7 23 0 10 5 19 10 19
6 0 10 32 10 75 0 44 4 75 10 75 14 0 9 342 -5 346 -5 1 -28 -7 -50 -19z"/>
<path d="M5725 6940 c-3 -5 -15 -10 -26 -10 -10 0 -19 -4 -19 -10 0 -5 -9 -10
-20 -10 -11 0 -20 -4 -20 -10 0 -5 -7 -10 -15 -10 -32 0 -135 -81 -135 -106 0
-6 -7 -17 -15 -24 -8 -7 -15 -25 -15 -41 0 -16 -4 -29 -10 -29 -6 0 -10 -41
-10 -104 0 -59 -4 -108 -10 -111 -5 -3 -10 -21 -10 -40 0 -19 5 -37 10 -40 6
-4 10 -69 10 -164 0 -103 4 -161 11 -168 7 -7 11 -49 10 -116 -2 -83 1 -106
13 -117 13 -10 16 -36 16 -136 0 -71 4 -125 10 -129 6 -3 10 -37 10 -74 0 -53
4 -72 18 -84 10 -10 23 -17 29 -17 16 0 38 -31 35 -50 -1 -9 4 -23 13 -30 8
-7 15 -18 15 -25 0 -37 98 -63 129 -32 6 6 17 12 24 12 9 0 13 47 15 173 2
112 -1 172 -8 172 -6 0 -10 27 -10 65 0 58 2 65 20 65 11 0 20 -4 20 -10 0 -5
6 -10 14 -10 8 0 44 -16 80 -35 37 -19 75 -35 86 -35 11 0 20 -4 20 -10 0 -5
9 -10 20 -10 11 0 20 -4 20 -10 0 -5 6 -10 13 -10 7 0 98 -43 202 -95 104 -52
199 -95 212 -95 12 0 24 -4 27 -9 10 -16 150 -81 174 -81 12 0 22 -4 22 -10 0
-5 9 -10 19 -10 11 0 23 -4 26 -10 3 -5 17 -10 29 -10 13 0 29 -7 36 -15 7 -8
16 -13 20 -10 4 3 13 -2 20 -10 7 -9 29 -15 51 -15 21 0 41 -4 44 -10 3 -5 17
-10 31 -10 13 0 24 -4 24 -10 0 -6 33 -10 80 -10 58 0 80 3 80 13 0 7 -36 48
-79 92 -78 77 -91 102 -46 91 12 -3 25 -3 29 1 8 8 -43 63 -59 63 -6 0 -24 14
-40 30 -16 17 -34 30 -40 30 -6 0 -22 11 -35 25 -13 14 -32 25 -42 25 -10 0
-18 5 -18 10 0 6 -8 10 -19 10 -10 0 -24 7 -31 15 -7 9 -32 25 -54 36 -23 11
-54 28 -71 39 -16 10 -37 19 -45 19 -9 1 -22 10 -30 21 -8 11 -21 20 -30 21
-8 0 -37 14 -65 29 -87 49 -149 80 -160 80 -6 0 -17 9 -25 20 -8 11 -21 20
-30 21 -8 0 -28 9 -45 19 -50 31 -169 90 -183 90 -6 0 -12 5 -12 10 0 6 -8 10
-18 10 -19 0 -52 29 -52 46 0 13 73 84 86 84 5 0 34 25 64 55 30 30 60 55 67
55 7 0 30 16 50 35 20 19 42 35 48 35 6 0 24 14 40 30 16 17 34 30 40 30 6 0
31 20 55 45 24 25 49 45 54 45 6 0 38 27 72 61 34 33 72 66 85 73 13 6 29 22
35 35 7 13 35 47 63 75 28 28 51 59 51 67 0 20 -45 63 -58 55 -5 -3 -18 1 -28
9 -14 10 -49 14 -130 15 -121 0 -141 -6 -199 -59 -19 -17 -41 -31 -48 -31 -8
0 -38 -25 -66 -55 -29 -30 -58 -55 -65 -55 -6 0 -30 -18 -51 -40 -21 -22 -44
-40 -50 -40 -6 0 -31 -20 -55 -45 -24 -25 -49 -45 -55 -45 -6 0 -29 -18 -50
-41 -40 -40 -86 -69 -112 -69 -16 0 -19 75 -3 85 6 4 10 58 10 130 0 72 4 126
10 130 15 9 13 188 -2 203 -15 15 -84 16 -93 2z"/>
<path d="M12900 6920 c0 -5 -8 -10 -18 -10 -23 0 -92 -70 -92 -93 0 -9 -4 -17
-10 -17 -5 0 -10 -18 -10 -39 0 -22 -4 -43 -10 -46 -6 -4 -10 -65 -10 -150 0
-85 4 -146 10 -150 6 -3 10 -48 10 -101 0 -56 4 -94 10 -94 6 0 10 -35 10 -84
0 -59 4 -87 14 -95 10 -9 13 -27 9 -72 -5 -48 -2 -63 12 -79 24 -26 12 -40
-73 -82 -37 -18 -68 -36 -70 -40 -2 -5 -17 -8 -32 -8 -16 0 -32 -4 -35 -10 -3
-5 -21 -10 -40 -10 -19 0 -37 -4 -40 -10 -3 -5 -15 -10 -26 -10 -10 0 -19 5
-19 10 0 6 -8 10 -18 10 -29 0 -52 33 -52 73 0 20 -4 39 -10 42 -15 10 -14
682 2 687 14 5 12 98 -3 113 -5 5 -9 48 -9 95 0 102 -12 120 -77 120 -54 0
-93 -48 -93 -114 0 -19 -4 -38 -10 -41 -5 -3 -10 -32 -10 -64 0 -31 -5 -62
-11 -68 -7 -7 -10 -63 -10 -160 2 -124 -1 -152 -14 -163 -13 -11 -15 -71 -15
-485 0 -444 1 -473 18 -488 10 -10 23 -17 29 -17 6 0 25 -16 42 -35 27 -31 71
-48 71 -27 0 4 15 13 33 21 17 8 40 20 49 28 9 8 23 13 30 10 13 -4 59 17 90
42 25 19 109 61 125 61 7 0 13 4 13 9 0 5 11 12 25 15 14 4 25 11 25 16 0 6 6
10 14 10 7 0 48 18 91 40 43 22 79 39 79 38 1 -2 7 -13 14 -25 6 -13 12 -33
12 -47 0 -13 7 -29 15 -36 9 -7 13 -20 10 -28 -6 -16 21 -52 38 -52 6 0 20 -9
31 -20 42 -38 126 -24 126 21 0 11 5 19 10 19 6 0 10 63 10 169 0 103 -4 172
-10 176 -5 3 -10 37 -10 75 0 38 -4 72 -10 75 -5 3 -10 28 -10 55 0 27 -4 52
-10 55 -5 3 -10 28 -10 54 0 32 -5 53 -16 62 -13 11 -15 35 -13 161 3 107 0
151 -9 160 -8 8 -12 59 -12 174 0 98 -4 165 -10 169 -5 3 -10 28 -10 55 0 27
-4 52 -10 55 -5 3 -10 22 -10 41 0 20 -6 42 -14 50 -16 16 -96 19 -96 4z"/>
<path d="M8110 6900 c0 -6 -41 -10 -104 -10 -59 0 -108 -4 -111 -10 -3 -5 -37
-10 -75 -10 -38 0 -72 -4 -75 -10 -3 -5 -37 -10 -74 -10 -49 0 -72 -4 -81 -15
-9 -11 -32 -15 -81 -15 -37 0 -71 -4 -74 -10 -3 -5 -32 -10 -63 -10 -55 0 -58
-1 -72 -32 -8 -18 -14 -42 -15 -53 0 -15 -8 -21 -30 -23 -38 -4 -75 -38 -75
-68 0 -13 -4 -26 -10 -29 -24 -15 -9 -35 25 -35 19 0 50 -9 70 -20 21 -12 54
-20 80 -20 24 0 47 -4 50 -10 3 -5 33 -10 65 -10 32 0 62 5 65 10 3 6 17 10
30 10 13 0 27 5 30 10 3 6 24 10 45 10 21 0 42 5 45 10 3 6 24 10 46 10 l39 0
0 -364 c0 -233 -4 -367 -10 -371 -5 -3 -10 -40 -10 -81 0 -74 -8 -99 -44 -142
-21 -24 -70 -52 -92 -52 -15 0 -78 -32 -82 -42 -2 -5 -17 -8 -32 -8 -16 0 -32
-4 -35 -10 -3 -5 -16 -10 -28 -10 -31 0 -170 -140 -165 -166 3 -16 14 -19 72
-22 39 -2 74 2 80 8 6 6 57 10 122 10 65 0 115 4 119 10 3 6 42 10 85 10 43 0
82 5 85 10 3 6 15 10 26 10 10 0 19 -4 19 -10 0 -5 18 -10 39 -10 22 0 43 -4
46 -10 3 -5 38 -10 76 -10 72 0 99 12 99 43 0 24 22 35 75 38 28 1 60 8 72 15
16 10 59 14 142 14 69 0 122 4 126 10 3 6 33 10 66 10 l59 0 0 39 c0 23 5 41
13 44 9 3 9 9 -2 30 -20 37 -8 57 32 57 43 0 67 26 67 73 l0 37 -75 0 c-43 0
-75 -4 -75 -10 0 -6 -26 -10 -59 -10 -33 0 -63 -4 -66 -10 -3 -5 -36 -10 -73
-10 -43 -1 -74 -6 -86 -15 -12 -9 -42 -15 -72 -15 -29 0 -56 -4 -59 -10 -3 -5
-26 -10 -50 -10 -39 0 -45 3 -59 32 -9 17 -16 50 -16 74 0 24 -4 46 -10 49 -5
3 -10 41 -10 84 0 58 -4 82 -15 91 -13 11 -15 58 -13 339 l3 326 105 3 c58 1
109 7 114 12 6 6 65 10 133 10 75 0 123 4 123 10 0 6 26 10 59 10 33 0 63 5
66 10 3 6 23 10 44 10 22 0 44 6 51 15 7 8 18 15 24 15 6 0 16 11 23 25 25 55
-37 105 -132 105 -36 0 -67 7 -90 20 -20 11 -46 20 -60 20 -13 0 -27 5 -30 10
-4 6 -77 10 -186 10 -113 0 -179 -4 -179 -10z"/>
<path d="M9049 6883 c-38 -44 -49 -70 -49 -117 0 -25 -4 -48 -10 -51 -6 -4
-10 -64 -10 -149 0 -97 -4 -146 -12 -154 -9 -9 -11 -71 -9 -235 2 -194 1 -225
-13 -236 -12 -10 -16 -32 -16 -82 0 -37 -4 -71 -10 -74 -5 -3 -10 -21 -10 -39
0 -36 -22 -87 -45 -106 -17 -14 -20 -66 -5 -75 16 -10 12 -51 -6 -66 -22 -18
-13 -83 15 -113 12 -12 21 -30 21 -39 0 -16 27 -17 325 -17 210 0 325 4 325
10 0 6 63 10 169 10 103 0 172 4 176 10 4 6 58 10 129 10 98 0 126 3 136 15
10 12 37 15 126 15 l114 0 0 33 c0 49 -25 67 -93 67 -44 0 -57 3 -57 15 0 8 5
15 10 15 6 0 10 14 10 30 0 17 5 30 10 30 6 0 10 5 10 10 0 6 -41 10 -104 10
-59 0 -108 4 -111 10 -4 6 -88 10 -220 10 -132 0 -216 -4 -220 -10 -4 -6 -58
-10 -131 -10 -76 0 -124 4 -124 10 0 6 -17 10 -38 10 -41 0 -74 27 -102 83
-16 33 -17 104 -1 120 7 7 11 59 11 143 0 78 4 135 10 139 6 4 10 138 10 369
0 310 -2 368 -16 394 -10 22 -23 32 -38 32 -24 0 -56 -28 -56 -48 0 -19 -12
-14 -45 18 l-31 30 -25 -27z"/>
<path d="M10717 6904 c-4 -4 -7 -58 -7 -121 0 -69 -4 -113 -10 -113 -6 0 -10
-45 -10 -114 0 -66 -4 -117 -10 -121 -5 -3 -10 -42 -10 -85 0 -43 -4 -82 -10
-85 -5 -3 -10 -37 -10 -74 0 -51 -4 -72 -16 -82 -13 -10 -15 -25 -11 -66 4
-38 2 -55 -9 -64 -9 -7 -14 -30 -14 -60 0 -27 -4 -49 -10 -49 -6 0 -10 -28
-10 -65 0 -37 -4 -65 -10 -65 -6 0 -10 -26 -10 -59 0 -33 -4 -63 -10 -66 -5
-3 -10 -28 -10 -54 0 -26 -5 -52 -11 -58 -5 -5 -9 -32 -7 -59 3 -45 5 -49 30
-52 21 -3 27 -9 30 -30 l3 -27 508 -3 c336 -1 507 1 507 8 0 6 41 10 104 10
59 0 108 4 111 10 3 6 33 10 65 10 32 0 62 5 65 10 3 6 17 10 29 10 13 0 29 7
36 15 7 8 25 15 41 15 37 0 37 18 1 53 -24 23 -37 27 -85 27 -43 0 -57 4 -57
14 0 8 5 18 10 21 19 11 10 45 -13 54 -13 5 -29 16 -36 25 -10 12 -31 16 -82
16 -37 0 -71 5 -74 10 -4 6 -63 10 -145 10 -82 0 -141 -4 -145 -10 -8 -13
-437 -14 -451 -1 -5 5 -20 11 -34 13 l-25 3 -3 153 c-2 99 1 152 8 152 6 0 10
34 10 85 0 50 4 85 10 85 6 0 10 38 10 94 0 53 4 98 10 101 6 4 10 92 10 231
0 143 -4 224 -10 224 -5 0 -10 22 -10 48 0 53 -20 82 -56 82 -26 0 -74 -50
-74 -77 0 -12 -4 -24 -9 -28 -6 -3 -11 17 -13 47 -3 53 -3 53 -38 56 -20 2
-39 0 -43 -4z"/>
<path d="M14290 6900 c0 -5 -8 -10 -18 -10 -11 0 -27 -9 -37 -20 -10 -11 -23
-20 -29 -20 -14 0 -136 -122 -136 -136 0 -5 -18 -28 -40 -49 -22 -21 -40 -44
-40 -50 0 -5 -11 -22 -25 -37 -14 -15 -25 -33 -25 -40 0 -8 -9 -20 -20 -28
-11 -8 -20 -22 -20 -32 0 -9 -4 -20 -10 -23 -6 -4 -10 -138 -10 -371 l0 -364
29 0 c17 0 33 5 36 10 3 6 52 10 111 10 63 0 104 -4 104 -10 0 -5 24 -10 54
-10 69 0 219 -72 224 -108 2 -12 8 -22 13 -22 5 0 9 -9 9 -20 0 -11 5 -20 10
-20 6 0 10 -8 10 -19 0 -10 7 -24 15 -31 10 -8 15 -31 15 -71 0 -33 4 -59 10
-59 6 0 10 -15 10 -34 0 -36 13 -66 46 -109 21 -26 26 -27 108 -27 l86 0 0 49
c0 32 -5 53 -16 62 -12 9 -15 24 -11 51 3 23 0 44 -9 55 -7 10 -14 37 -14 60
0 23 -4 45 -10 48 -5 3 -10 24 -10 45 0 21 -4 42 -10 45 -5 3 -10 21 -10 40 0
19 -4 37 -10 40 -5 3 -10 19 -10 36 0 27 2 29 40 29 22 0 40 4 40 9 0 5 10 11
23 13 19 3 22 10 25 54 3 50 2 52 -32 68 -19 9 -38 21 -41 26 -3 6 -25 10 -48
10 -56 1 -77 18 -77 63 0 20 -4 39 -10 42 -5 3 -10 28 -10 55 0 27 -4 52 -10
55 -5 3 -10 21 -10 40 0 19 -4 37 -10 40 -5 3 -10 24 -10 45 0 21 -4 42 -10
45 -5 3 -10 21 -10 39 0 19 -7 39 -15 46 -9 7 -15 29 -15 51 0 21 -4 41 -10
44 -5 3 -10 17 -10 30 0 13 -4 27 -10 30 -5 3 -10 19 -10 36 0 16 -4 29 -10
29 -5 0 -10 13 -10 29 0 17 -4 33 -10 36 -5 3 -10 15 -10 26 0 20 -15 51 -39
81 -7 10 -11 24 -8 32 4 9 0 22 -8 30 -8 8 -15 22 -15 30 0 9 -8 16 -20 16
-11 0 -20 -4 -20 -10z m-90 -670 c0 -16 5 -30 10 -30 6 0 10 -17 10 -39 0 -22
6 -44 15 -51 8 -7 15 -25 15 -40 0 -16 5 -30 12 -32 6 -2 9 -12 5 -21 -4 -12
-18 -17 -47 -17 -22 0 -40 -4 -40 -10 0 -6 -26 -10 -59 -10 -33 0 -63 -4 -66
-10 -3 -5 -30 -10 -60 -10 l-54 0 27 53 c15 28 35 59 45 68 9 9 17 23 17 30 0
8 9 21 20 29 11 8 20 22 20 30 0 9 11 27 25 40 14 13 25 29 25 37 0 9 13 13
40 13 38 0 40 -2 40 -30z"/>
<path d="M13850 6407 c0 -8 -9 -22 -20 -32 -11 -10 -20 -23 -20 -30 0 -7 -9
-20 -20 -30 -11 -10 -20 -23 -20 -30 0 -7 -9 -20 -20 -30 -11 -10 -20 -24 -20
-30 0 -7 -7 -18 -15 -25 -8 -7 -15 -19 -15 -27 0 -8 -13 -28 -30 -43 -16 -15
-30 -34 -30 -42 0 -20 -164 -178 -184 -178 -9 0 -16 -4 -16 -10 0 -5 -6 -10
-13 -10 -56 0 -137 -86 -137 -145 0 -14 -4 -25 -10 -25 -5 0 -10 -4 -10 -10 0
-6 28 -10 65 -10 36 0 65 -2 65 -4 0 -2 -15 -33 -33 -68 -19 -35 -32 -68 -30
-74 2 -6 -3 -17 -12 -24 -8 -7 -15 -28 -15 -49 0 -20 -5 -42 -12 -49 -17 -17
104 -16 135 0 31 18 187 170 187 183 0 27 86 85 125 85 14 0 25 4 25 9 0 6 21
11 48 13 l47 3 3 348 c1 229 -1 347 -8 347 -5 0 -10 -6 -10 -13z"/>
</g>
</svg>
